<!DOCTYPE svg PUBLIC "-//W3C//DTD SVG 20010904//EN" "http://www.w3.org/TR/2001/REC-SVG-20010904/DTD/svg10.dtd">
<svg version="1.0" xmlns="http://www.w3.org/2000/svg" width="900px" height="600px" viewBox="0 0 9000 6000" preserveAspectRatio="xMidYMid meet">
<g id="layer1" fill="#85857e" stroke="none">
 <path d="M969 3420 c-137 -16 -297 -71 -392 -134 -121 -80 -220 -223 -253 -362 -22 -96 -15 -248 15 -327 55 -140 208 -323 350 -419 95 -63 237 -131 321 -154 88 -24 256 -25 330 -2 76 24 271 149 355 229 85 81 136 164 174 284 53 164 59 269 24 409 -39 160 -149 278 -350 380 -75 37 -212 81 -273 88 l-35 3 0 -54 c0 -52 2 -55 30 -64 45 -14 64 -35 67 -74 3 -32 7 -37 66 -61 34 -15 78 -40 98 -56 46 -36 108 -132 129 -199 9 -29 19 -59 22 -67 3 -8 6 -28 7 -45 0 -16 6 -32 11 -35 12 -6 19 35 10 58 -4 9 -9 29 -10 44 -1 15 -19 62 -38 103 -48 101 -119 175 -202 211 -56 25 -64 31 -67 59 l-4 32 36 -15 c108 -45 229 -128 285 -196 112 -137 159 -365 114 -554 -19 -79 -75 -184 -121 -229 -81 -77 -192 -153 -273 -185 -70 -27 -95 -32 -201 -36 -100 -4 -135 -1 -203 17 -210 53 -430 206 -526 366 -42 71 -69 151 -90 275 -14 79 -14 97 -1 160 18 86 72 191 128 249 93 97 247 166 421 190 113 16 115 15 89 -12 -12 -13 -22 -33 -22 -45 0 -16 -10 -26 -36 -37 -60 -25 -159 -101 -204 -157 -45 -56 -88 -141 -94 -186 -2 -15 -7 -35 -11 -44 -4 -9 -4 -21 -1 -27 4 -5 2 -12 -3 -15 -15 -10 -25 -114 -12 -129 6 -8 8 -17 5 -20 -4 -3 15 -50 41 -104 63 -129 129 -199 231 -245 68 -30 74 -35 72 -60 -4 -37 12 -36 28 1 l13 31 -94 46 c-115 56 -168 110 -224 228 -43 90 -55 118 -53 127 0 3 3 32 5 65 3 32 8 66 11 75 4 9 6 20 5 25 -1 5 3 22 9 37 7 16 12 33 12 39 0 5 14 37 32 70 45 86 121 158 214 205 69 34 79 43 82 69 5 38 14 47 65 59 40 10 42 12 45 54 5 72 -10 78 -159 61z"/>
 <path d="M1135 3121 c-7 -13 32 -34 47 -25 7 5 5 11 -7 21 -22 15 -32 16 -40 4z"/>
 <path d="M1206 3121 c-4 -5 -1 -13 5 -16 5 -4 8 -13 5 -21 -5 -14 32 -47 44 -39 10 6 6 40 -5 42 -6 0 -8 -4 -7 -10 2 -7 0 -8 -5 -4 -4 5 -8 18 -8 30 0 22 -19 34 -29 18z"/>
 <path d="M995 3111 c-3 -6 3 -15 14 -21 12 -6 22 -6 26 -1 3 6 -3 15 -14 21 -12 6 -22 6 -26 1z"/>
 <path d="M945 3086 c-14 -10 -15 -15 -6 -21 8 -4 19 -1 28 8 20 19 1 30 -22 13z"/>
 <path d="M1385 3070 c-7 -11 35 -31 49 -22 5 3 1 11 -9 19 -22 16 -32 16 -40 3z"/>
 <path d="M886 3041 c-15 -16 -23 -31 -18 -35 5 -3 21 8 36 23 15 16 23 31 18 35 -5 3 -21 -8 -36 -23z"/>
 <path d="M1001 3046 c-7 -8 -8 -17 -3 -20 6 -3 15 1 21 8 7 8 8 17 3 20 -6 3 -15 -1 -21 -8z"/>
 <path d="M1446 3032 c-6 -10 60 -63 68 -55 7 7 -43 63 -55 63 -4 0 -10 -4 -13 -8z"/>
 <path d="M1125 3011 c-6 -11 29 -33 39 -24 7 7 -12 33 -25 33 -4 0 -10 -4 -14 -9z"/>
 <path d="M1305 3012 c-9 -9 6 -21 19 -16 7 3 16 -2 20 -11 3 -9 10 -13 16 -10 16 10 -5 38 -29 40 -12 1 -23 0 -26 -3z"/>
 <path d="M1195 2988 c-23 -13 -8 -30 16 -18 20 11 43 5 34 -10 -3 -4 2 -13 10 -20 8 -7 15 -9 15 -5 0 4 6 2 14 -4 10 -8 16 -9 21 -1 6 9 0 14 -16 12 -8 -1 -44 37 -44 46 0 10 -32 9 -50 0z"/>
 <path d="M1048 2983 c-9 -17 -2 -38 12 -38 8 0 15 -8 15 -17 0 -25 11 -30 25 -13 10 12 10 18 0 30 -6 8 -17 13 -23 12 -6 -1 -11 3 -12 10 0 15 -12 26 -17 16z"/>
 <path d="M936 2972 c-3 -5 3 -17 13 -26 11 -10 22 -13 25 -8 3 5 -3 17 -13 26 -11 10 -22 13 -25 8z"/>
 <path d="M1326 2968 c-16 -61 -22 -99 -15 -104 4 -2 13 5 19 16 6 11 14 19 18 17 4 -1 7 3 7 8 0 6 -3 9 -6 8 -3 -1 -3 11 -1 26 4 29 -15 54 -22 29z"/>
 <path d="M1516 2962 c-9 -15 12 -54 25 -47 12 8 11 18 -4 40 -10 12 -16 14 -21 7z"/>
 <path d="M791 2922 c-13 -25 2 -38 19 -16 9 10 10 18 3 25 -8 8 -14 5 -22 -9z"/>
 <path d="M1236 2932 c-3 -5 3 -17 13 -26 11 -10 22 -13 25 -8 3 5 -3 17 -13 26 -11 10 -22 13 -25 8z"/>
 <path d="M1145 2910 c-3 -6 -22 -17 -41 -25 -20 -8 -33 -19 -29 -25 3 -6 11 -8 16 -4 5 3 8 1 7 -4 -2 -6 2 -10 7 -11 6 -1 10 3 10 7 0 5 13 20 29 34 18 15 25 27 18 32 -6 3 -13 2 -17 -4z"/>
 <path d="M1187 2902 c-11 -12 -13 -22 -6 -35 14 -25 32 -11 18 15 -7 13 -7 18 -1 14 6 -3 13 -2 16 3 11 18 -11 21 -27 3z"/>
 <path d="M975 2850 c-3 -5 -4 -11 -1 -11 13 -3 22 -6 38 -13 22 -10 54 -4 48 9 -3 6 -16 10 -30 11 -14 0 -31 3 -37 7 -7 4 -14 3 -18 -3z"/>
 <path d="M1264 2846 c-10 -8 -22 -14 -26 -15 -5 0 -8 -3 -8 -6 0 -4 6 -6 13 -4 19 6 36 5 34 -1 -1 -4 2 -10 7 -11 11 -5 16 40 6 46 -4 2 -15 -2 -26 -9z"/>
 <path d="M1545 2730 c-4 -6 -3 -16 3 -22 6 -6 12 -6 17 2 4 6 3 16 -3 22 -6 6 -12 6 -17 -2z"/>
 <path d="M1647 2729 c-40 -154 -122 -325 -181 -376 -56 -50 -145 -93 -190 -93 -41 0 -50 -12 -47 -61 3 -52 -36 -97 -78 -91 -17 2 -35 10 -41 17 -7 8 -24 11 -49 8 -30 -4 -42 -1 -59 17 -15 16 -22 18 -28 9 -4 -8 4 -22 21 -37 22 -19 36 -23 62 -19 21 4 44 0 62 -10 17 -10 35 -14 47 -9 10 4 20 6 20 4 1 -2 12 6 24 17 32 29 52 74 46 101 -6 21 -3 24 22 24 43 0 145 55 206 111 59 54 107 142 162 296 22 64 26 85 17 94 -10 10 -13 9 -16 -2z"/>
 <path d="M735 2630 c-4 -6 -3 -16 3 -22 6 -6 12 -6 17 2 4 6 3 16 -3 22 -6 6 -12 6 -17 -2z"/>
 <path d="M1501 2592 c-13 -25 2 -38 19 -16 9 10 10 18 3 25 -8 8 -14 5 -22 -9z"/>
 <path d="M876 2451 c-4 -5 7 -19 23 -30 16 -12 32 -17 35 -12 4 5 -7 19 -23 30 -16 12 -32 17 -35 12z"/>
 <path d="M1321 2371 c-14 -11 -19 -21 -13 -25 5 -3 20 2 33 12 29 24 11 36 -20 13z"/>
 <path d="M1025 2371 c-7 -12 12 -24 25 -16 11 7 4 25 -10 25 -5 0 -11 -4 -15 -9z"/>
 <path d="M1225 2350 c-8 -13 20 -24 41 -16 20 8 9 26 -16 26 -10 0 -22 -5 -25 -10z"/>
 </g>
<g id="layer2" fill="#fdfee2" stroke="none">
 <path d="M1049 3088 c-48 -50 -89 -126 -89 -166 0 -54 52 -79 124 -61 48 12 86 47 86 79 0 19 -40 50 -63 50 -23 0 -42 -29 -29 -42 17 -17 15 -28 -3 -22 -25 10 -19 63 9 76 20 9 32 7 63 -9 25 -13 51 -18 74 -15 25 3 41 -1 53 -13 21 -22 17 -49 -8 -53 -15 -3 -18 0 -13 17 3 11 -1 25 -10 32 -11 10 -18 8 -35 -8 -19 -20 -19 -22 -3 -56 9 -20 28 -43 42 -52 25 -17 26 -16 56 13 23 23 31 42 34 79 5 48 4 51 -38 87 -55 47 -159 106 -187 106 -13 0 -40 -18 -63 -42z"/>
 <path d="M948 3080 c-57 -36 -137 -129 -171 -202 -32 -64 -53 -211 -38 -264 27 -97 159 -209 308 -260 62 -22 231 -20 280 3 93 44 197 198 225 333 19 92 11 196 -20 256 -32 63 -105 118 -190 144 -87 26 -123 20 -77 -13 72 -51 85 -72 85 -130 0 -112 -73 -161 -138 -94 l-33 34 -46 -24 c-54 -27 -128 -31 -161 -7 -18 12 -22 25 -22 65 0 52 15 91 56 145 39 52 13 59 -58 14z"/>
 </g>
<g id="layer3" fill="#8e8e85" stroke="none">
 <path d="M912 3328 c-99 -14 -242 -64 -310 -108 -128 -82 -219 -211 -248 -350 -13 -63 -13 -81 1 -160 33 -191 80 -288 193 -403 118 -121 287 -219 443 -258 68 -18 103 -21 203 -17 106 4 131 9 201 36 85 34 194 109 283 195 118 115 174 321 138 516 -18 101 -76 226 -135 293 -57 65 -165 142 -256 184 -73 34 -120 39 -97 11 6 -6 12 -25 14 -42 3 -26 12 -34 78 -66 86 -41 135 -90 180 -179 67 -132 71 -217 20 -359 -52 -143 -99 -228 -147 -271 -60 -52 -156 -100 -203 -100 -46 0 -50 -4 -37 -39 24 -64 -61 -134 -117 -97 -16 10 -35 14 -54 10 -45 -9 -72 10 -72 51 0 18 4 45 10 59 9 25 7 27 -83 69 -66 31 -104 57 -134 89 -45 50 -128 211 -138 270 -8 44 26 215 56 286 44 102 149 203 262 251 40 17 46 24 49 53 2 27 10 36 41 51 20 10 35 23 31 28 -6 11 -86 10 -172 -3z"/>
 <path d="M1071 3116 c-7 -8 -8 -17 -3 -20 6 -3 15 1 21 8 7 8 8 17 3 20 -6 3 -15 -1 -21 -8z"/>
 <path d="M1005 3110 c-3 -5 -3 -10 1 -10 4 0 -1 -9 -10 -19 -10 -11 -13 -21 -7 -25 11 -7 53 43 45 55 -7 12 -21 11 -29 -1z"/>
 <path d="M1226 3111 c-3 -5 16 -26 43 -46 28 -20 59 -48 69 -62 13 -18 21 -22 27 -14 4 8 -11 30 -41 59 -27 26 -49 51 -49 57 0 13 -41 19 -49 6z"/>
 <path d="M1176 3101 c-3 -5 5 -16 19 -25 24 -16 45 -6 22 11 -24 19 -36 23 -41 14z"/>
 <path d="M1285 3100 c-3 -5 -3 -11 2 -12 4 0 13 -2 18 -3 6 -1 23 -7 39 -14 20 -8 33 -8 39 -2 11 11 -38 35 -53 26 -5 -3 -11 -1 -15 5 -8 13 -22 13 -30 0z"/>
 <path d="M1026 3071 c-10 -11 -13 -22 -8 -25 5 -3 17 3 26 13 10 11 13 22 8 25 -5 3 -17 -3 -26 -13z"/>
 <path d="M1256 3051 c-4 -5 7 -19 23 -30 16 -12 32 -17 35 -12 4 5 -7 19 -23 30 -16 12 -32 17 -35 12z"/>
 <path d="M1426 3052 c-3 -6 1 -15 8 -21 8 -7 17 -8 20 -3 3 6 -1 15 -8 21 -8 7 -17 8 -20 3z"/>
 <path d="M950 3010 c-11 -22 -18 -41 -15 -41 3 -1 10 -3 15 -4 6 -1 13 -3 17 -4 4 0 2 -6 -5 -13 -19 -19 -14 -47 13 -73 29 -30 20 -33 -11 -4 -13 12 -24 16 -28 11 -7 -12 52 -64 68 -59 6 2 11 8 11 13 0 5 4 15 8 22 6 8 0 15 -17 21 -33 13 -37 55 -9 105 23 43 21 65 -5 44 -10 -8 -13 -9 -9 -1 4 6 3 14 -2 18 -6 3 -19 -12 -31 -35z"/>
 <path d="M1067 3010 c-15 -12 -24 -26 -21 -31 4 -6 13 -4 23 5 10 9 22 16 27 16 5 0 1 -5 -9 -11 -22 -13 -13 -29 13 -22 11 3 26 0 34 -6 9 -8 16 -8 20 -2 4 5 -3 16 -14 24 -12 8 -20 20 -18 28 5 22 -27 21 -55 -1z"/>
 <path d="M836 2981 c-10 -11 -13 -22 -8 -25 5 -3 17 3 26 13 10 11 13 22 8 25 -5 3 -17 -3 -26 -13z"/>
 <path d="M1165 2992 c-3 -3 0 -11 6 -18 8 -10 16 -11 31 -3 11 6 17 13 14 17 -8 7 -44 10 -51 4z"/>
 <path d="M1246 2993 c-4 -4 2 -14 14 -23 11 -8 22 -25 24 -37 4 -20 2 -21 -33 -14 -2 1 2 7 8 15 9 11 9 16 -1 22 -43 27 -81 -10 -55 -53 4 -6 3 -14 -2 -17 -5 -4 -12 -2 -15 3 -4 5 -24 -2 -45 -16 -42 -28 -56 -30 -56 -10 0 23 -28 12 -30 -11 -2 -28 19 -39 40 -22 8 7 15 10 15 6 0 -4 13 0 30 9 16 8 31 14 33 13 2 -2 11 3 19 9 12 11 19 8 37 -11 15 -16 19 -26 12 -31 -6 -3 -9 -11 -5 -16 3 -5 10 -7 15 -3 5 3 7 9 4 14 -3 5 0 12 6 15 7 5 0 18 -18 39 -30 32 -37 66 -16 73 8 3 11 -3 8 -16 -4 -20 8 -34 32 -37 13 -2 42 26 41 41 -1 30 -47 73 -62 58z"/>
 <path d="M1045 2951 c-4 -8 -1 -19 8 -28 19 -20 30 -1 13 22 -10 14 -15 15 -21 6z"/>
 <path d="M1140 2911 c-6 -12 -6 -22 -1 -26 6 -3 15 3 21 14 6 12 6 22 1 26 -6 3 -15 -3 -21 -14z"/>
 <path d="M1535 2910 c-4 -6 -3 -16 3 -22 6 -6 12 -6 17 2 4 6 3 16 -3 22 -6 6 -12 6 -17 -2z"/>
 <path d="M1336 2883 c-7 -16 -23 -37 -35 -47 -11 -10 -18 -23 -15 -28 3 -5 17 1 31 14 32 30 56 75 43 83 -5 3 -16 -7 -24 -22z"/>
 <path d="M770 2880 c-6 -11 -8 -20 -4 -20 3 0 1 -6 -5 -14 -8 -10 -9 -16 -1 -21 5 -3 11 -4 11 -1 1 3 2 9 3 14 1 4 7 17 14 29 7 13 8 24 3 28 -6 3 -15 -4 -21 -15z"/>
 <path d="M1291 2866 c-7 -8 -8 -17 -3 -20 6 -3 15 1 21 8 7 8 8 17 3 20 -6 3 -15 -1 -21 -8z"/>
 <path d="M745 2800 c-4 -6 -3 -16 3 -22 6 -6 12 -6 17 2 4 6 3 16 -3 22 -6 6 -12 6 -17 -2z"/>
 <path d="M1545 2800 c-4 -6 -3 -16 3 -22 6 -6 12 -6 17 2 4 6 3 16 -3 22 -6 6 -12 6 -17 -2z"/>
 <path d="M1545 2750 c-4 -6 -3 -16 3 -22 6 -6 12 -6 17 2 4 6 3 16 -3 22 -6 6 -12 6 -17 -2z"/>
 <path d="M734 2737 c-7 -20 -2 -47 11 -50 14 -3 19 43 6 56 -7 7 -12 6 -17 -6z"/>
 <path d="M1535 2700 c-4 -6 -4 -14 -1 -17 3 -3 1 -12 -5 -19 -6 -7 -8 -18 -4 -24 9 -14 28 -1 21 15 -2 7 1 18 7 24 8 8 8 14 0 22 -8 8 -13 8 -18 -1z"/>
 <path d="M1457 2510 c-39 -65 -33 -95 6 -33 39 63 48 81 38 87 -5 3 -25 -21 -44 -54z"/>
 <path d="M786 2532 c-3 -6 1 -15 8 -21 8 -7 17 -8 20 -3 3 6 -1 15 -8 21 -8 7 -17 8 -20 3z"/>
 <path d="M1401 2426 c-7 -8 -8 -17 -3 -20 6 -3 15 1 21 8 7 8 8 17 3 20 -6 3 -15 -1 -21 -8z"/>
 <path d="M935 2410 c-3 -5 8 -16 24 -25 18 -9 32 -11 36 -5 3 5 -8 16 -24 25 -18 9 -32 11 -36 5z"/>
 <path d="M1361 2396 c-7 -8 -8 -17 -3 -20 6 -3 15 1 21 8 7 8 8 17 3 20 -6 3 -15 -1 -21 -8z"/>
 <path d="M1055 2360 c-3 -5 -4 -11 -1 -11 13 -3 22 -6 39 -14 11 -4 23 -3 29 3 8 8 7 13 -6 18 -9 4 -20 4 -23 0 -3 -3 -12 -1 -19 5 -8 7 -14 7 -19 -1z"/>
 <path d="M1145 2351 c-7 -12 12 -24 25 -16 11 7 4 25 -10 25 -5 0 -11 -4 -15 -9z"/>
 </g>
<g id="layer4" fill="#3f3f3f" stroke="none">
 <path d="M1073 5870 c-39 -24 -49 -41 -57 -107 -10 -81 34 -145 99 -145 31 0 30 131 9 -1208 -8 -569 -13 -1045 -11 -1057 4 -19 -2 -25 -33 -33 -43 -12 -83 -51 -78 -77 3 -14 -13 -26 -67 -53 -93 -46 -192 -144 -233 -231 -40 -86 -56 -158 -56 -259 -1 -75 3 -93 30 -150 66 -138 164 -233 284 -276 l47 -17 -14 -28 c-20 -40 -13 -78 19 -102 24 -18 31 -19 54 -8 21 9 30 9 43 -2 26 -23 45 -26 79 -11 40 16 67 71 53 107 -9 23 -7 25 36 31 57 8 163 66 212 117 78 79 171 305 171 412 0 168 -101 328 -251 396 -60 27 -66 32 -62 55 7 33 -44 86 -83 86 l-27 0 7 88 c3 48 8 532 11 1077 3 545 8 1027 11 1073 l6 82 32 0 c57 0 116 93 94 150 -26 70 -112 110 -169 79 -15 -8 -25 -6 -46 10 -32 26 -69 27 -110 1z m112 -2776 c55 -30 113 -71 132 -94 7 -8 13 -34 13 -57 0 -33 -6 -50 -29 -75 -35 -39 -55 -33 -84 24 -19 39 -14 68 12 68 25 0 33 -11 19 -27 -17 -21 6 -41 30 -27 25 16 26 40 3 63 -22 22 -75 29 -86 11 -3 -5 -22 2 -42 15 -44 30 -51 31 -80 3 -26 -25 -30 -50 -8 -68 20 -16 40 -3 24 16 -19 23 4 40 38 28 63 -22 31 -86 -51 -105 -48 -10 -58 -10 -80 5 -46 30 -32 102 37 189 49 63 79 69 152 31z m-183 -21 c-38 -50 -59 -90 -67 -136 -6 -33 -4 -40 28 -72 26 -26 43 -35 69 -35 49 0 103 17 123 40 18 20 18 20 52 -20 45 -52 70 -52 117 0 31 35 36 47 36 91 0 59 -16 84 -87 136 -27 19 -39 32 -28 30 184 -46 244 -84 285 -178 19 -46 22 -66 18 -159 -3 -105 -4 -110 -50 -201 -59 -118 -94 -160 -160 -193 -45 -23 -64 -26 -152 -26 -84 0 -111 4 -166 26 -102 40 -199 111 -237 174 -30 49 -33 61 -33 136 0 107 27 194 84 271 24 32 54 68 67 80 21 19 115 73 126 73 3 0 -9 -17 -25 -37z"/>
 </g>
<g id="layer5" fill="#5b5b5b" stroke="none">
 <path d="M0 3000 l0 -3000 4500 0 4500 0 0 3000 0 3000 -4500 0 -4500 0 0 -3000z m1183 2849 c21 -16 31 -18 46 -10 74 40 173 -34 150 -112 -16 -57 -36 -76 -81 -79 l-43 -3 -7 -55 c-3 -30 -7 -280 -8 -555 -1 -275 -5 -774 -9 -1110 -5 -389 -4 -615 2 -623 6 -7 17 -12 26 -11 9 1 19 1 24 0 14 -2 17 -1 17 7 0 4 -3 7 -7 8 -30 3 -43 19 -43 50 0 29 3 34 24 34 42 0 195 -49 269 -86 231 -117 320 -234 352 -466 15 -109 -41 -337 -112 -457 -50 -84 -134 -161 -274 -249 -143 -91 -192 -107 -329 -106 -126 1 -199 18 -325 79 -189 90 -322 203 -423 358 -74 114 -94 173 -100 292 -7 166 43 311 145 425 112 124 330 212 559 224 48 3 88 7 90 9 5 4 36 2122 32 2177 -2 37 -7 45 -23 46 -77 2 -110 43 -100 122 10 71 14 81 43 97 38 20 75 18 105 -6z"/>
 <path d="M1115 3340 c-4 -6 -3 -16 3 -22 6 -6 12 -6 17 2 4 6 3 16 -3 22 -6 6 -12 6 -17 -2z"/>
 <path d="M1075 3320 c-3 -6 -11 -8 -16 -4 -13 7 -60 -36 -53 -47 3 -5 20 1 37 14 18 12 38 23 45 22 14 0 18 18 4 23 -6 2 -13 -2 -17 -8z"/>
 <path d="M937 3196 c-86 -45 -171 -112 -162 -127 4 -5 27 9 53 30 49 41 154 101 177 101 18 0 30 19 19 30 -5 4 -44 -11 -87 -34z"/>
 <path d="M1325 3212 c-13 -14 1 -25 73 -58 43 -19 95 -53 118 -75 23 -23 44 -37 47 -32 11 18 -78 92 -156 131 -42 21 -79 37 -82 34z"/>
 <path d="M1095 3131 c-3 -5 -20 -8 -37 -6 -17 3 -38 0 -45 -6 -7 -7 -13 -8 -13 -5 0 4 -9 2 -20 -4 -11 -6 -18 -16 -14 -21 4 -6 15 -4 29 5 15 10 26 12 30 6 8 -12 -4 -32 -14 -25 -5 2 -15 -3 -23 -13 -20 -22 -50 -82 -42 -82 4 0 1 -7 -6 -15 -15 -18 -5 -36 16 -28 15 6 45 65 48 96 0 9 4 16 8 15 4 -2 23 12 42 31 35 34 76 45 103 28 7 -4 14 -3 18 3 6 10 5 11 -14 14 -5 0 -13 4 -17 9 -10 10 -42 9 -49 -2z"/>
 <path d="M1189 3108 c-8 -14 -3 -21 23 -35 18 -9 39 -16 46 -15 7 2 11 -3 10 -10 -2 -8 5 -12 17 -10 11 2 17 1 13 -3 -4 -4 4 -25 18 -47 24 -38 25 -42 11 -71 -8 -16 -13 -36 -10 -44 3 -8 0 -13 -8 -11 -8 2 -13 -2 -12 -9 5 -23 -39 -8 -64 21 -29 35 -51 41 -74 20 -9 -8 -22 -14 -29 -12 -14 3 -23 -29 -10 -37 4 -3 19 4 32 15 l25 19 22 -29 c13 -19 27 -27 36 -23 10 3 15 0 13 -8 -2 -7 5 -15 15 -17 21 -4 102 72 93 87 -4 5 -2 12 4 16 16 10 12 75 -6 82 -8 3 -13 12 -10 19 7 18 -72 84 -91 77 -13 -5 -13 -3 -4 15 13 25 15 24 -22 26 -18 1 -32 -4 -38 -16z"/>
 <path d="M1265 3111 c-6 -11 13 -26 22 -17 3 3 12 1 20 -6 7 -6 16 -8 20 -5 3 4 12 2 20 -4 7 -6 13 -8 13 -4 0 4 7 2 15 -5 8 -7 15 -9 15 -5 0 4 6 2 14 -4 9 -8 16 -8 20 -2 4 5 2 12 -4 16 -5 3 -10 3 -10 -1 0 -3 -7 -1 -15 6 -8 7 -15 9 -15 5 0 -4 -7 -2 -15 5 -8 7 -15 9 -15 5 0 -4 -7 -2 -15 5 -8 6 -19 9 -24 6 -5 -4 -12 -2 -16 4 -8 13 -22 13 -30 1z"/>
 <path d="M737 3028 c-28 -38 -68 -114 -65 -125 0 -5 -4 -21 -11 -37 -6 -16 -10 -35 -7 -42 2 -6 0 -16 -4 -20 -5 -5 -12 -41 -16 -79 -5 -53 -3 -79 9 -108 9 -20 16 -40 16 -42 0 -14 65 -126 92 -158 44 -53 55 -35 13 20 -33 43 -82 129 -93 163 -8 26 -7 204 1 216 4 6 10 24 12 40 5 39 42 121 72 161 13 17 20 34 15 38 -5 3 -21 -9 -34 -27z"/>
 <path d="M1436 3052 c-3 -6 1 -15 8 -21 8 -7 17 -8 20 -3 3 6 -1 15 -8 21 -8 7 -17 8 -20 3z"/>
 <path d="M1567 3034 c-4 -4 2 -21 13 -39 32 -52 51 -115 58 -193 4 -40 12 -73 17 -75 17 -4 17 91 0 151 -25 85 -73 171 -88 156z"/>
 <path d="M846 3001 c-10 -11 -13 -22 -8 -25 5 -3 17 3 26 13 10 11 13 22 8 25 -5 3 -17 -3 -26 -13z"/>
 <path d="M1061 2994 c-15 -19 -18 -31 -11 -39 5 -6 8 -14 5 -17 -3 -3 1 -11 9 -17 18 -15 40 -5 29 12 -11 18 -12 51 -1 64 5 7 5 14 -1 17 -5 3 -19 -6 -30 -20z"/>
 <path d="M1119 3018 c-7 -27 -4 -40 11 -48 10 -6 20 -20 22 -32 4 -28 48 -33 56 -6 2 10 13 18 24 18 10 0 17 -4 13 -9 -11 -19 17 -23 36 -5 18 16 18 18 2 36 -9 10 -18 16 -21 13 -3 -3 -12 1 -20 7 -11 10 -17 8 -28 -7 -12 -17 -15 -17 -31 -3 -19 16 -62 41 -64 36z"/>
 <path d="M775 2901 c-9 -18 -11 -32 -5 -36 5 -3 16 8 25 24 9 18 11 32 5 36 -5 3 -16 -8 -25 -24z"/>
 <path d="M1537 2924 c-4 -4 -4 -11 0 -17 3 -6 7 -29 7 -51 1 -23 6 -43 11 -46 12 -6 19 55 9 78 -4 10 -8 20 -8 24 -2 11 -12 18 -19 12z"/>
 <path d="M934 2899 c-3 -5 8 -22 23 -38 25 -25 34 -28 67 -22 49 8 50 24 1 32 -20 3 -41 12 -45 19 -10 16 -38 22 -46 9z"/>
 <path d="M1081 2861 c-7 -13 -8 -22 -1 -26 14 -9 29 2 26 20 -4 25 -14 28 -25 6z"/>
 <path d="M734 2776 c-4 -10 -2 -22 4 -28 8 -8 13 -7 18 6 4 10 2 22 -4 28 -8 8 -13 7 -18 -6z"/>
 <path d="M1545 2710 c-4 -6 -4 -14 -1 -17 3 -3 1 -12 -4 -19 -6 -6 -10 -16 -8 -20 1 -5 -3 -19 -10 -31 -7 -13 -8 -24 -3 -28 6 -3 15 4 21 15 6 11 8 20 4 20 -3 0 -1 7 6 15 7 9 10 18 7 22 -4 3 -2 12 5 20 8 10 8 17 1 24 -8 8 -13 7 -18 -1z"/>
 <path d="M1630 2685 c-6 -15 -12 -35 -14 -44 -2 -9 -11 -34 -20 -56 -48 -109 -69 -152 -91 -181 -14 -18 -21 -35 -16 -39 5 -3 21 10 35 28 26 34 93 171 99 204 2 10 12 35 21 57 12 26 14 42 7 49 -7 7 -14 1 -21 -18z"/>
 <path d="M737 2614 c-9 -10 32 -86 43 -79 6 4 1 23 -10 46 -22 41 -23 43 -33 33z"/>
 <path d="M1480 2541 c-11 -23 -16 -42 -10 -46 5 -3 18 12 30 34 11 23 16 42 10 46 -5 3 -18 -12 -30 -34z"/>
 <path d="M786 2522 c-3 -5 8 -21 23 -36 16 -15 31 -23 35 -18 3 5 -8 21 -23 36 -16 15 -31 23 -35 18z"/>
 <path d="M946 2401 c-4 -5 3 -15 14 -21 11 -6 20 -8 20 -5 0 3 11 -2 25 -11 14 -9 25 -13 25 -10 0 4 11 -1 24 -9 15 -10 26 -12 30 -6 4 5 -3 15 -14 21 -11 6 -20 8 -20 5 0 -3 -11 2 -25 11 -14 9 -25 13 -25 10 0 -4 -11 1 -24 9 -15 10 -26 12 -30 6z"/>
 <path d="M806 2372 c-3 -5 2 -16 12 -24 20 -18 103 -66 117 -69 36 -6 56 -24 50 -43 -18 -65 -17 -75 9 -101 15 -15 31 -23 38 -19 8 5 5 12 -10 22 -26 17 -29 54 -8 94 11 20 11 29 3 36 -11 8 -53 25 -67 27 -9 1 -105 58 -122 72 -9 8 -19 10 -22 5z"/>
 <path d="M1175 2351 c-7 -13 17 -24 40 -19 9 1 16 8 16 13 0 14 -48 19 -56 6z"/>
 <path d="M1265 2351 c-7 -12 12 -24 25 -16 11 7 4 25 -10 25 -5 0 -11 -4 -15 -9z"/>
 <path d="M1455 2350 c-9 -15 -130 -80 -148 -80 -22 0 -32 -19 -14 -26 32 -12 205 94 179 109 -6 4 -13 3 -17 -3z"/>
 <path d="M1208 2255 c-3 -4 0 -19 8 -34 36 -72 -48 -137 -108 -84 -13 11 -21 12 -37 3 -25 -13 -18 -34 8 -25 10 3 24 -1 31 -10 25 -30 103 -9 124 35 18 35 14 114 -5 118 -8 1 -18 0 -21 -3z"/>
 </g>

</svg>