<!DOCTYPE svg PUBLIC "-//W3C//DTD SVG 20010904//EN" "http://www.w3.org/TR/2001/REC-SVG-20010904/DTD/svg10.dtd">
<svg version="1.0" xmlns="http://www.w3.org/2000/svg" viewBox="0 0 3000 3000" preserveAspectRatio="none">
<g id="layer3" fill="#8D8D85" fill-opacity=".1" stroke="none">
 <path d="M1185 2983 c-283 -47 -536 -183 -761 -407 -228 -229 -363 -485 -408 -776 -22 -143 -22 -457 0 -600 45 -291 180 -547 408 -776 230 -230 482 -362 776 -408 141 -22 447 -22 590 0 454 69 857 374 1070 809 55 111 110 268 110 311 0 16 7 65 15 109 9 50 14 146 14 255 0 109 -5 205 -14 255 -8 44 -15 93 -15 109 0 43 -55 200 -110 311 -213 435 -616 740 -1070 809 -135 21 -476 20 -605 -1z"/>
 </g>
<g id="layer1" fill="#E8FFE3" stroke="none">
 <path d="M1260 2575 c-300 -67 -537 -255 -664 -526 -69 -149 -81 -207 -81 -399 0 -192 12 -250 81 -399 118 -253 332 -433 610 -513 69 -20 101 -23 254 -23 153 0 185 3 254 23 278 80 492 260 610 513 69 149 81 207 81 399 0 192 -12 250 -81 399 -117 251 -331 432 -605 512 -97 28 -359 36 -459 14z"/>
 </g>
 <g id="layer2" fill="#AAC8A3" stroke="none">
 <path d="M2352 1000 c-29 -6 -80 -19 -114 -31 -35 -11 -105 -32 -157 -45 -188 -49 -313 -122 -358 -207 l-16 -31 -23 45 c-13 24 -23 57 -24 73 0 39 -45 131 -72 150 -44 31 -76 18 -108 -46 -11 -23 -11 -39 0 -100 26 -144 41 -171 174 -304 131 -132 134 -134 319 -195 99 -33 131 -39 202 -39 81 0 87 2 187 52 88 44 115 65 186 138 46 47 101 108 122 135 35 47 130 247 145 307 10 38 -28 73 -91 86 -71 15 -310 23 -372 12z"/>
 </g>

</svg>
