<!DOCTYPE svg PUBLIC "-//W3C//DTD SVG 20010904//EN" "http://www.w3.org/TR/2001/REC-SVG-20010904/DTD/svg10.dtd">
<svg version="1.0" xmlns="http://www.w3.org/2000/svg" width="412px" height="442px" viewBox="0 0 4120 4420" preserveAspectRatio="xMidYMid meet">
<g id="layer1" fill="#a4a5b2" stroke="none">
 <path d="M3800 4283 l240 -3 3 -683 2 -682 0 685 0 685 -243 0 -242 1 240 -3z"/>
 <path d="M85 4268 c-3 -7 -4 -317 -3 -688 l3 -675 3 683 2 682 645 0 644 0 4 -157 3 -158 2 163 2 162 -650 0 c-511 0 -652 -3 -655 -12z"/>
 <path d="M1593 4273 c104 -2 270 -2 370 0 100 1 16 2 -188 2 -203 0 -285 -1 -182 -2z"/>
 <path d="M2825 4267 c-3 -6 -4 -170 -3 -362 l3 -350 5 363 c3 199 4 362 2 362 -1 0 -5 -6 -7 -13z"/>
 <path d="M1405 3580 c0 -261 1 -368 2 -238 2 131 2 345 0 475 -1 131 -2 24 -2 -237z"/>
 <path d="M2795 3610 c0 -206 1 -291 2 -187 2 103 2 271 0 375 -1 103 -2 18 -2 -188z"/>
 <path d="M590 3630 c0 -6 27 -10 60 -10 33 0 60 4 60 10 0 6 -27 10 -60 10 -33 0 -60 -4 -60 -10z"/>
 <path d="M1375 3275 c0 -203 1 -285 2 -182 2 104 2 270 0 370 -1 100 -2 16 -2 -188z"/>
 <path d="M1990 3630 c0 -6 27 -10 60 -10 33 0 60 4 60 10 0 6 -27 10 -60 10 -33 0 -60 -4 -60 -10z"/>
 <path d="M3290 3630 c0 -6 27 -10 60 -10 33 0 60 4 60 10 0 6 -27 10 -60 10 -33 0 -60 -4 -60 -10z"/>
 <path d="M811 3472 c-7 -14 -6 -19 4 -19 7 0 11 7 7 15 -4 11 -1 13 8 7 9 -5 11 -4 6 3 -10 16 -14 15 -25 -6z"/>
 <path d="M2211 3472 c-7 -14 -6 -19 4 -19 7 0 11 7 7 15 -4 11 -1 13 8 7 9 -5 11 -4 6 3 -10 16 -14 15 -25 -6z"/>
 <path d="M3511 3472 c-7 -14 -6 -19 4 -19 7 0 11 7 7 15 -4 11 -1 13 8 7 9 -5 11 -4 6 3 -10 16 -14 15 -25 -6z"/>
 <path d="M507 3460 c-10 -12 -22 -18 -28 -14 -7 4 -7 -1 0 -15 13 -23 26 -27 36 -11 3 6 -1 7 -9 4 -9 -3 -16 -1 -16 5 0 10 13 15 32 12 4 0 4 7 1 16 -5 12 -3 14 7 8 9 -5 11 -4 6 3 -9 15 -9 16 -29 -8z"/>
 <path d="M1907 3460 c-10 -12 -22 -18 -28 -14 -7 4 -7 -1 0 -15 13 -23 26 -27 36 -11 3 6 -1 7 -9 4 -9 -3 -16 -1 -16 5 0 10 13 15 32 12 4 0 4 7 1 16 -5 12 -3 14 7 8 9 -5 11 -4 6 3 -9 15 -9 16 -29 -8z"/>
 <path d="M3207 3460 c-10 -12 -22 -18 -28 -14 -7 4 -7 -1 0 -15 13 -23 26 -27 36 -11 3 6 -1 7 -9 4 -9 -3 -16 -1 -16 5 0 10 13 15 32 12 4 0 4 7 1 16 -5 12 -3 14 7 8 9 -5 11 -4 6 3 -9 15 -9 16 -29 -8z"/>
 <path d="M781 3418 c5 -10 12 -18 14 -18 2 0 9 8 14 18 8 15 6 18 -14 18 -20 0 -22 -3 -14 -18z"/>
 <path d="M2181 3418 c5 -10 12 -18 14 -18 2 0 9 8 14 18 8 15 6 18 -14 18 -20 0 -22 -3 -14 -18z"/>
 <path d="M3481 3418 c5 -10 12 -18 14 -18 2 0 9 8 14 18 8 15 6 18 -14 18 -20 0 -22 -3 -14 -18z"/>
 <path d="M2814 3110 c0 -113 2 -159 3 -102 2 56 2 148 0 205 -1 56 -3 10 -3 -103z"/>
 <path d="M2783 2945 c0 -22 2 -30 4 -17 2 12 2 30 0 40 -3 9 -5 -1 -4 -23z"/>
 <path d="M87 2883 c-4 -3 -7 -314 -7 -690 l0 -683 643 2 642 3 0 435 0 435 -2 -432 -3 -433 -635 0 -635 0 0 680 0 680 640 0 639 0 4 -92 3 -93 0 95 -1 95 -641 3 c-352 1 -644 -1 -647 -5z"/>
 <path d="M2087 2883 l693 -3 3 -318 2 -317 3 323 2 322 -697 -2 -698 -3 692 -2z"/>
 <path d="M2814 2877 c-2 -7 -3 -80 -1 -162 l3 -150 2 158 2 157 610 0 610 0 3 -200 3 -200 -1 202 0 203 -613 3 c-496 2 -614 0 -618 -11z"/>
 <path d="M1395 2320 c0 -261 1 -368 2 -238 2 131 2 345 0 475 -1 131 -2 24 -2 -237z"/>
 <path d="M2805 1945 c0 -203 1 -285 2 -182 2 104 2 270 0 370 -1 100 -2 16 -2 -188z"/>
 <path d="M590 2230 c0 -6 27 -10 60 -10 33 0 60 4 60 10 0 6 -27 10 -60 10 -33 0 -60 -4 -60 -10z"/>
 <path d="M1990 2230 c0 -6 27 -10 60 -10 33 0 60 4 60 10 0 6 -27 10 -60 10 -33 0 -60 -4 -60 -10z"/>
 <path d="M3290 2230 c0 -6 27 -10 60 -10 33 0 60 4 60 10 0 6 -27 10 -60 10 -33 0 -60 -4 -60 -10z"/>
 <path d="M811 2072 c-7 -14 -6 -19 4 -19 7 0 11 7 7 15 -4 11 -1 13 8 7 9 -5 11 -4 6 3 -10 16 -14 15 -25 -6z"/>
 <path d="M2211 2072 c-7 -14 -6 -19 4 -19 7 0 11 7 7 15 -4 11 -1 13 8 7 9 -5 11 -4 6 3 -10 16 -14 15 -25 -6z"/>
 <path d="M3511 2072 c-7 -14 -6 -19 4 -19 7 0 11 7 7 15 -4 11 -1 13 8 7 9 -5 11 -4 6 3 -10 16 -14 15 -25 -6z"/>
 <path d="M507 2060 c-10 -12 -22 -18 -28 -14 -7 4 -7 -1 0 -15 13 -23 26 -27 36 -11 3 6 -1 7 -9 4 -9 -3 -16 -1 -16 5 0 10 13 15 32 12 4 0 4 7 1 16 -5 12 -3 14 7 8 9 -5 11 -4 6 3 -9 15 -9 16 -29 -8z"/>
 <path d="M1907 2060 c-10 -12 -22 -18 -28 -14 -7 4 -7 -1 0 -15 13 -23 26 -27 36 -11 3 6 -1 7 -9 4 -9 -3 -16 -1 -16 5 0 10 13 15 32 12 4 0 4 7 1 16 -5 12 -3 14 7 8 9 -5 11 -4 6 3 -9 15 -9 16 -29 -8z"/>
 <path d="M3207 2060 c-10 -12 -22 -18 -28 -14 -7 4 -7 -1 0 -15 13 -23 26 -27 36 -11 3 6 -1 7 -9 4 -9 -3 -16 -1 -16 5 0 10 13 15 32 12 4 0 4 7 1 16 -5 12 -3 14 7 8 9 -5 11 -4 6 3 -9 15 -9 16 -29 -8z"/>
 <path d="M781 2018 c5 -10 12 -18 14 -18 2 0 9 8 14 18 8 15 6 18 -14 18 -20 0 -22 -3 -14 -18z"/>
 <path d="M2181 2018 c5 -10 12 -18 14 -18 2 0 9 8 14 18 8 15 6 18 -14 18 -20 0 -22 -3 -14 -18z"/>
 <path d="M3481 2018 c5 -10 12 -18 14 -18 2 0 9 8 14 18 8 15 6 18 -14 18 -20 0 -22 -3 -14 -18z"/>
 <path d="M2770 1755 l0 -235 -692 -3 -693 -2 698 -3 697 -2 0 240 c0 132 -2 240 -5 240 -3 0 -5 -106 -5 -235z"/>
 <path d="M3108 1513 c171 -2 453 -2 625 0 171 1 31 2 -313 2 -344 0 -484 -1 -312 -2z"/>
 <path d="M81 1468 c1 -17 2 -19 6 -5 4 16 43 17 638 17 l634 0 4 -22 c5 -20 5 -20 4 2 l-2 25 -642 3 -643 2 1 -22z"/>
 <path d="M1385 1478 c-3 -7 -4 -213 -3 -458 l3 -445 3 453 2 452 690 0 689 0 4 -117 3 -118 2 123 2 122 -695 0 c-547 0 -697 -3 -700 -12z"/>
 <path d="M3108 1483 c171 -2 453 -2 625 0 171 1 31 2 -313 2 -344 0 -484 -1 -312 -2z"/>
 <path d="M2795 950 c0 -206 1 -291 2 -188 2 104 2 272 0 375 -1 104 -2 19 -2 -187z"/>
 <path d="M1355 645 c0 -259 1 -366 2 -238 2 127 2 339 0 470 -1 131 -2 27 -2 -232z"/>
 <path d="M4030 565 l0 -445 -620 0 -619 0 -4 105 -3 105 0 -107 1 -108 628 -3 627 -2 0 450 c0 247 -2 450 -5 450 -3 0 -5 -200 -5 -445z"/>
 <path d="M2765 630 c0 -206 1 -291 2 -188 2 104 2 272 0 375 -1 104 -2 19 -2 -187z"/>
 <path d="M590 930 c0 -6 27 -10 60 -10 33 0 60 4 60 10 0 6 -27 10 -60 10 -33 0 -60 -4 -60 -10z"/>
 <path d="M1990 930 c0 -6 27 -10 60 -10 33 0 60 4 60 10 0 6 -27 10 -60 10 -33 0 -60 -4 -60 -10z"/>
 <path d="M3290 930 c0 -6 27 -10 60 -10 33 0 60 4 60 10 0 6 -27 10 -60 10 -33 0 -60 -4 -60 -10z"/>
 <path d="M811 772 c-7 -14 -6 -19 4 -19 7 0 11 7 7 15 -4 11 -1 13 8 7 9 -5 11 -4 6 3 -10 16 -14 15 -25 -6z"/>
 <path d="M2211 772 c-7 -14 -6 -19 4 -19 7 0 11 7 7 15 -4 11 -1 13 8 7 9 -5 11 -4 6 3 -10 16 -14 15 -25 -6z"/>
 <path d="M3511 772 c-7 -14 -6 -19 4 -19 7 0 11 7 7 15 -4 11 -1 13 8 7 9 -5 11 -4 6 3 -10 16 -14 15 -25 -6z"/>
 <path d="M507 760 c-10 -12 -22 -18 -28 -14 -7 4 -7 -1 0 -15 13 -23 26 -27 36 -11 3 6 -1 7 -9 4 -9 -3 -16 -1 -16 5 0 10 13 15 32 12 4 0 4 7 1 16 -5 12 -3 14 7 8 9 -5 11 -4 6 3 -9 15 -9 16 -29 -8z"/>
 <path d="M1907 760 c-10 -12 -22 -18 -28 -14 -7 4 -7 -1 0 -15 13 -23 26 -27 36 -11 3 6 -1 7 -9 4 -9 -3 -16 -1 -16 5 0 10 13 15 32 12 4 0 4 7 1 16 -5 12 -3 14 7 8 9 -5 11 -4 6 3 -9 15 -9 16 -29 -8z"/>
 <path d="M3207 760 c-10 -12 -22 -18 -28 -14 -7 4 -7 -1 0 -15 13 -23 26 -27 36 -11 3 6 -1 7 -9 4 -9 -3 -16 -1 -16 5 0 10 13 15 32 12 4 0 4 7 1 16 -5 12 -3 14 7 8 9 -5 11 -4 6 3 -9 15 -9 16 -29 -8z"/>
 <path d="M781 718 c5 -10 12 -18 14 -18 2 0 9 8 14 18 8 15 6 18 -14 18 -20 0 -22 -3 -14 -18z"/>
 <path d="M2181 718 c5 -10 12 -18 14 -18 2 0 9 8 14 18 8 15 6 18 -14 18 -20 0 -22 -3 -14 -18z"/>
 <path d="M3481 718 c5 -10 12 -18 14 -18 2 0 9 8 14 18 8 15 6 18 -14 18 -20 0 -22 -3 -14 -18z"/>
 <path d="M1374 185 l1 -70 690 0 690 0 -687 2 -687 3 -4 68 -3 67 0 -70z"/>
 <path d="M398 113 c178 -2 466 -2 640 0 174 1 29 2 -323 2 -352 0 -495 -1 -317 -2z"/>
 </g>
<g id="layer2" fill="#454646" stroke="none">
 <path d="M0 2210 l0 -2210 2060 0 2060 0 0 2210 0 2210 -2060 0 -2060 0 0 -2210z m4048 1388 l2 -688 -620 0 -619 0 5 673 c3 369 7 678 9 684 4 13 335 19 980 18 l240 0 3 -687z m-2661 440 c-4 -133 -7 -441 -7 -685 l0 -443 -650 0 -650 0 0 678 c0 373 3 682 7 685 3 4 299 7 656 7 l650 0 -6 -242z m1414 -168 c0 -223 -4 -530 -7 -682 l-7 -278 -694 0 -693 0 0 513 c0 281 3 590 7 685 l6 172 695 -2 694 -3 -1 -405z m-1430 -1665 c-1 -374 -5 -683 -8 -687 -2 -5 -292 -8 -644 -8 l-639 0 0 683 c0 376 3 687 7 690 3 4 295 6 647 5 l641 -3 -4 -680z m1416 203 c-4 -265 -7 -575 -7 -690 l0 -208 -695 0 -695 0 0 613 c0 338 3 648 6 690 l7 77 695 0 695 0 -6 -482z m1257 474 c3 -5 2 -315 -1 -690 l-6 -682 -620 0 -620 0 7 682 c4 375 10 686 12 690 7 11 1221 10 1228 0z m-2684 -2032 c0 -349 -3 -659 -7 -687 l-6 -53 -633 0 -634 0 0 690 0 690 641 -2 640 -3 -1 -635z m1414 103 c-3 -296 -7 -607 -10 -691 l-6 -152 -691 2 -691 3 3 680 c1 374 5 683 7 687 3 5 317 8 698 8 l693 0 -3 -537z m1266 -153 l0 -690 -627 2 -628 3 3 530 c1 292 5 601 9 688 l6 157 618 0 619 0 0 -690z"/>
 <path d="M3150 3504 c0 -12 44 -84 52 -84 8 0 48 73 48 87 -1 4 -10 -9 -21 -29 -24 -46 -33 -47 -49 -8 -12 29 -30 49 -30 34z"/>
 <path d="M3466 3460 c30 -55 29 -55 66 15 24 47 14 41 -17 -11 l-21 -35 -19 40 c-10 23 -22 41 -27 41 -5 0 3 -23 18 -50z"/>
 <path d="M450 3504 c0 -12 44 -84 52 -84 8 0 48 73 48 87 -1 4 -10 -9 -21 -29 -24 -46 -33 -47 -49 -8 -12 29 -30 49 -30 34z"/>
 <path d="M766 3460 c30 -55 29 -55 66 15 24 47 14 41 -17 -11 l-21 -35 -19 40 c-10 23 -22 41 -27 41 -5 0 3 -23 18 -50z"/>
 <path d="M1850 3504 c0 -12 44 -84 52 -84 8 0 48 73 48 87 -1 4 -10 -9 -21 -29 -24 -46 -33 -47 -49 -8 -12 29 -30 49 -30 34z"/>
 <path d="M2166 3460 c30 -55 29 -55 66 15 24 47 14 41 -17 -11 l-21 -35 -19 40 c-10 23 -22 41 -27 41 -5 0 3 -23 18 -50z"/>
 <path d="M450 2104 c0 -12 44 -84 52 -84 8 0 48 73 48 87 -1 4 -10 -9 -21 -29 -24 -46 -33 -47 -49 -8 -12 29 -30 49 -30 34z"/>
 <path d="M766 2060 c30 -55 29 -55 66 15 24 47 14 41 -17 -11 l-21 -35 -19 40 c-10 23 -22 41 -27 41 -5 0 3 -23 18 -50z"/>
 <path d="M1850 2104 c0 -12 44 -84 52 -84 8 0 48 73 48 87 -1 4 -10 -9 -21 -29 -24 -46 -33 -47 -49 -8 -12 29 -30 49 -30 34z"/>
 <path d="M2166 2060 c30 -55 29 -55 66 15 24 47 14 41 -17 -11 l-21 -35 -19 40 c-10 23 -22 41 -27 41 -5 0 3 -23 18 -50z"/>
 <path d="M3150 2104 c0 -12 44 -84 52 -84 8 0 48 73 48 87 -1 4 -10 -9 -21 -29 -24 -46 -33 -47 -49 -8 -12 29 -30 49 -30 34z"/>
 <path d="M3466 2060 c30 -55 29 -55 66 15 24 47 14 41 -17 -11 l-21 -35 -19 40 c-10 23 -22 41 -27 41 -5 0 3 -23 18 -50z"/>
 <path d="M450 804 c0 -12 44 -84 52 -84 8 0 48 73 48 87 -1 4 -10 -9 -21 -29 -24 -46 -33 -47 -49 -8 -12 29 -30 49 -30 34z"/>
 <path d="M766 760 c30 -55 29 -55 66 15 24 47 14 41 -17 -11 l-21 -35 -19 40 c-10 23 -22 41 -27 41 -5 0 3 -23 18 -50z"/>
 <path d="M1850 804 c0 -12 44 -84 52 -84 8 0 48 73 48 87 -1 4 -10 -9 -21 -29 -24 -46 -33 -47 -49 -8 -12 29 -30 49 -30 34z"/>
 <path d="M2166 760 c30 -55 29 -55 66 15 24 47 14 41 -17 -11 l-21 -35 -19 40 c-10 23 -22 41 -27 41 -5 0 3 -23 18 -50z"/>
 <path d="M3150 804 c0 -12 44 -84 52 -84 8 0 48 73 48 87 -1 4 -10 -9 -21 -29 -24 -46 -33 -47 -49 -8 -12 29 -30 49 -30 34z"/>
 <path d="M3466 760 c30 -55 29 -55 66 15 24 47 14 41 -17 -11 l-21 -35 -19 40 c-10 23 -22 41 -27 41 -5 0 3 -23 18 -50z"/>
 </g>
<g id="layer3" fill="#e7eaff" stroke="none">
 <path d="M1779 4273 l-367 -3 -4 -673 c-2 -369 -3 -675 -1 -679 3 -5 312 -8 687 -8 l684 0 5 63 c3 34 7 341 9 682 l3 620 -325 0 c-179 0 -490 -1 -691 -2z m331 -643 c0 -6 -27 -10 -60 -10 -33 0 -60 4 -60 10 0 6 27 10 60 10 33 0 60 -4 60 -10z m-233 -145 c9 -19 20 -35 23 -35 4 0 15 16 26 35 16 30 34 46 34 30 0 -15 -52 -105 -60 -105 -8 0 -60 90 -60 105 0 18 23 -1 37 -30z m298 -5 l18 -40 24 40 c37 62 47 47 13 -20 -17 -33 -32 -60 -35 -60 -6 0 -55 97 -55 110 0 23 18 8 35 -30z"/>
 <path d="M2837 4273 c-3 -5 -8 -313 -12 -685 l-7 -678 611 0 611 0 0 685 0 685 -599 0 c-330 0 -602 -3 -604 -7z m573 -643 c0 -6 -27 -10 -60 -10 -33 0 -60 4 -60 10 0 6 27 10 60 10 33 0 60 -4 60 -10z m-233 -145 c9 -19 20 -35 23 -35 4 0 15 16 26 35 16 30 34 46 34 30 0 -15 -52 -105 -60 -105 -8 0 -60 90 -60 105 0 18 23 -1 37 -30z m298 -5 l18 -40 24 40 c37 62 47 47 13 -20 -17 -33 -32 -60 -35 -60 -6 0 -55 97 -55 110 0 23 18 8 35 -30z"/>
 <path d="M90 3590 l0 -680 640 0 640 0 0 208 c0 114 3 420 7 680 l6 472 -646 0 -647 0 0 -680z m620 40 c0 -6 -27 -10 -60 -10 -33 0 -60 4 -60 10 0 6 27 10 60 10 33 0 60 -4 60 -10z m-233 -145 c9 -19 20 -35 23 -35 4 0 15 16 26 35 16 30 34 46 34 30 0 -15 -52 -105 -60 -105 -8 0 -60 90 -60 105 0 18 23 -1 37 -30z m298 -5 l18 -40 24 40 c37 62 47 47 13 -20 -17 -33 -32 -60 -35 -60 -6 0 -55 97 -55 110 0 23 18 8 35 -30z"/>
 <path d="M90 2200 l0 -680 635 0 635 0 0 303 c0 167 3 473 7 680 l6 377 -641 0 -642 0 0 -680z m620 30 c0 -6 -27 -10 -60 -10 -33 0 -60 4 -60 10 0 6 27 10 60 10 33 0 60 -4 60 -10z m-233 -145 c9 -19 20 -35 23 -35 4 0 15 16 26 35 16 30 34 46 34 30 0 -15 -52 -105 -60 -105 -8 0 -60 90 -60 105 0 18 23 -1 37 -30z m298 -5 l18 -40 24 40 c37 62 47 47 13 -20 -17 -33 -32 -60 -35 -60 -6 0 -55 97 -55 110 0 23 18 8 35 -30z"/>
 <path d="M1400 2448 c0 -238 -3 -544 -7 -680 l-6 -248 690 0 690 0 6 353 c4 193 7 499 7 680 l0 327 -690 0 -690 0 0 -432z m710 -218 c0 -6 -27 -10 -60 -10 -33 0 -60 4 -60 10 0 6 27 10 60 10 33 0 60 -4 60 -10z m-233 -145 c9 -19 20 -35 23 -35 4 0 15 16 26 35 16 30 34 46 34 30 0 -15 -52 -105 -60 -105 -8 0 -60 90 -60 105 0 18 23 -1 37 -30z m298 -5 l18 -40 24 40 c37 62 47 47 13 -20 -17 -33 -32 -60 -35 -60 -6 0 -55 97 -55 110 0 23 18 8 35 -30z"/>
 <path d="M2816 2568 c-4 -172 -7 -478 -9 -681 l-2 -367 618 0 617 0 0 680 0 680 -609 0 -609 0 -6 -312z m594 -338 c0 -6 -27 -10 -60 -10 -33 0 -60 4 -60 10 0 6 27 10 60 10 33 0 60 -4 60 -10z m-233 -145 c9 -19 20 -35 23 -35 4 0 15 16 26 35 16 30 34 46 34 30 0 -15 -52 -105 -60 -105 -8 0 -60 90 -60 105 0 18 23 -1 37 -30z m298 -5 l18 -40 24 40 c37 62 47 47 13 -20 -17 -33 -32 -60 -35 -60 -6 0 -55 97 -55 110 0 23 18 8 35 -30z"/>
 <path d="M86 1458 c-3 -13 -6 -319 -6 -680 l0 -658 635 0 635 0 0 403 c0 221 3 527 7 680 l6 277 -635 0 -636 0 -6 -22z m624 -528 c0 -6 -27 -10 -60 -10 -33 0 -60 4 -60 10 0 6 27 10 60 10 33 0 60 -4 60 -10z m-233 -145 c9 -19 20 -35 23 -35 4 0 15 16 26 35 16 30 34 46 34 30 0 -15 -52 -105 -60 -105 -8 0 -60 90 -60 105 0 18 23 -1 37 -30z m298 -5 l18 -40 24 40 c37 62 47 47 13 -20 -17 -33 -32 -60 -35 -60 -6 0 -55 97 -55 110 0 23 18 8 35 -30z"/>
 <path d="M1390 1147 c0 -184 -3 -490 -7 -680 l-6 -347 691 0 692 0 0 318 c0 175 3 481 7 680 l6 362 -691 0 -692 0 0 -333z m720 -217 c0 -6 -27 -10 -60 -10 -33 0 -60 4 -60 10 0 6 27 10 60 10 33 0 60 -4 60 -10z m-233 -145 c9 -19 20 -35 23 -35 4 0 15 16 26 35 16 30 34 46 34 30 0 -15 -52 -105 -60 -105 -8 0 -60 90 -60 105 0 18 23 -1 37 -30z m298 -5 l18 -40 24 40 c37 62 47 47 13 -20 -17 -33 -32 -60 -35 -60 -6 0 -55 97 -55 110 0 23 18 8 35 -30z"/>
 <path d="M2800 1147 c0 -184 -3 -490 -7 -680 l-6 -347 621 0 622 0 0 328 c0 180 3 486 7 680 l6 352 -621 0 -622 0 0 -333z m610 -217 c0 -6 -27 -10 -60 -10 -33 0 -60 4 -60 10 0 6 27 10 60 10 33 0 60 -4 60 -10z m-233 -145 c9 -19 20 -35 23 -35 4 0 15 16 26 35 16 30 34 46 34 30 0 -15 -52 -105 -60 -105 -8 0 -60 90 -60 105 0 18 23 -1 37 -30z m298 -5 l18 -40 24 40 c37 62 47 47 13 -20 -17 -33 -32 -60 -35 -60 -6 0 -55 97 -55 110 0 23 18 8 35 -30z"/>
 </g>

</svg>