<!DOCTYPE svg PUBLIC "-//W3C//DTD SVG 20010904//EN" "http://www.w3.org/TR/2001/REC-SVG-20010904/DTD/svg10.dtd">
<svg version="1.0" xmlns="http://www.w3.org/2000/svg" viewBox="0 0 5000 5000" preserveAspectRatio="none">
<g id="layer1" fill="#454545" stroke="none">
 <path d="M2160 4555 c-751 -103 -1393 -554 -1710 -1200 -140 -286 -200 -550 -200 -880 0 -330 60 -594 200 -880 319 -650 963 -1100 1720 -1201 137 -18 473 -18 610 0 757 101 1401 551 1720 1201 140 286 200 550 200 880 0 330 -60 594 -200 880 -319 650 -963 1100 -1720 1201 -132 17 -490 17 -620 -1z m593 -777 c33 -38 22 -68 -59 -163 -120 -140 -146 -224 -147 -480 0 -173 13 -257 56 -365 53 -129 146 -251 236 -309 76 -49 259 -94 391 -95 172 -2 218 32 315 229 71 145 89 225 83 363 -7 140 -31 205 -98 265 -64 58 -126 77 -250 77 -199 0 -338 -52 -388 -145 -24 -44 -21 -167 5 -225 45 -100 161 -174 234 -148 22 8 28 15 23 27 -24 57 -11 105 33 122 38 14 74 -4 106 -53 52 -80 22 -170 -75 -223 -134 -75 -319 -9 -430 152 -43 63 -72 189 -65 282 18 234 218 363 562 364 98 0 132 -4 185 -22 131 -45 226 -133 270 -248 78 -205 58 -421 -62 -663 -76 -155 -156 -243 -253 -280 -126 -48 -322 -35 -543 35 -168 53 -305 189 -402 399 -69 148 -96 317 -86 531 11 234 57 367 174 500 94 106 140 125 185 73z m-462 -21 c9 -7 21 -22 27 -34 37 -68 -29 -156 -102 -137 -36 9 -66 -13 -99 -74 -40 -74 -67 -190 -67 -291 1 -160 31 -233 139 -335 127 -120 174 -174 233 -267 93 -147 134 -305 126 -490 -3 -87 -7 -103 -40 -170 -24 -47 -72 -114 -133 -184 -222 -255 -346 -319 -615 -319 -186 1 -296 25 -447 99 -95 46 -127 68 -185 126 -162 162 -192 362 -87 568 117 227 304 390 484 422 109 19 189 8 274 -36 125 -66 169 -139 178 -300 6 -104 -6 -196 -37 -279 -27 -72 -50 -96 -92 -96 -67 0 -86 58 -49 155 23 61 35 177 26 245 -9 68 -40 110 -105 143 -50 26 -61 28 -125 23 -134 -12 -259 -98 -360 -250 -82 -124 -98 -167 -99 -261 -1 -71 2 -86 28 -133 60 -108 204 -206 361 -247 187 -48 407 -34 514 33 106 66 307 290 342 380 18 50 20 70 15 159 -12 212 -78 337 -281 538 -181 179 -215 253 -215 476 0 253 94 449 252 528 47 23 114 27 139 8z"/>
 </g>
<g id="layer2" fill="#e0e2f6" stroke="none">
 <path d="M2667 3797 c-42 -18 -165 -163 -198 -235 -83 -178 -102 -500 -43 -739 46 -189 179 -388 324 -486 107 -72 353 -132 515 -124 141 6 201 31 286 116 54 54 76 88 127 191 120 242 140 458 62 663 -44 115 -139 203 -270 248 -53 18 -87 22 -185 22 -344 -1 -544 -130 -562 -364 -7 -93 22 -219 65 -282 111 -161 296 -227 430 -152 97 53 127 143 75 223 -32 49 -68 67 -106 53 -44 -17 -57 -65 -33 -122 5 -12 -1 -19 -23 -27 -73 -26 -189 48 -234 148 -26 58 -29 181 -5 225 50 93 189 145 388 145 124 0 186 -19 250 -77 67 -60 91 -125 98 -265 6 -138 -12 -218 -83 -363 -65 -132 -99 -175 -162 -207 -73 -35 -218 -31 -376 10 -136 36 -194 68 -265 147 -141 159 -195 322 -195 590 1 256 27 340 147 480 81 95 92 125 59 163 -24 27 -52 33 -86 19z"/>
 <path d="M2152 3749 c-158 -79 -252 -275 -252 -528 0 -223 34 -297 215 -476 203 -201 269 -326 281 -538 5 -89 3 -109 -15 -159 -35 -90 -236 -314 -342 -380 -107 -67 -327 -81 -514 -33 -157 41 -301 139 -361 247 -26 47 -29 62 -28 133 1 94 17 137 99 261 101 152 226 238 360 250 64 5 75 3 125 -23 65 -33 96 -75 105 -143 9 -68 -3 -184 -26 -245 -37 -97 -18 -155 49 -155 42 0 65 24 92 96 31 83 43 175 37 279 -9 161 -53 234 -178 300 -85 44 -165 55 -274 36 -180 -32 -367 -195 -484 -422 -105 -206 -75 -406 87 -568 58 -58 90 -80 185 -126 151 -74 261 -98 447 -99 269 0 393 64 615 319 61 70 109 137 133 184 33 67 37 83 40 170 8 185 -33 343 -126 490 -59 93 -106 147 -233 267 -108 102 -138 175 -139 335 0 101 27 217 67 291 33 61 63 83 99 74 73 -19 139 69 102 137 -6 12 -18 27 -27 34 -25 19 -92 15 -139 -8z"/>
 </g>

</svg>
