<?xml version="1.0" standalone="no"?>
<!DOCTYPE svg PUBLIC "-//W3C//DTD SVG 20010904//EN"
 "http://www.w3.org/TR/2001/REC-SVG-20010904/DTD/svg10.dtd">
<svg version="1.0" xmlns="http://www.w3.org/2000/svg"
 width="246.000000pt" height="211.000000pt" viewBox="0 0 246.000000 211.000000"
 preserveAspectRatio="xMidYMid meet">
<metadata>
Created by potrace 1.12, written by Peter Selinger 2001-2015
</metadata>
<!-- <svg width="246" height="211"> -->
<path style="fill:#ffffff; stroke:none;" d="M211 13C216.758 10.4832 223.928 6.64505 225 0C216.895 0.370361 212.9 4.83868 205.999 8.16667C202.14 10.028 197.617 10.2063 194.113 12.8542C191.524 14.8105 188.67 20.2105 191.103 23.3565C192.665 25.3752 196.039 23.9509 198 23.473C203.858 22.0455 212.242 20.4059 211 13z"/>
<path style="fill:#fdfdfd; stroke:none;" d="M76 103C78.7487 117.727 78.1512 132.633 78.1512 147.576C78.1512 154.846 77.0443 163.09 80.0054 169.985C82.6415 176.122 89.8583 178.46 96 179C95.0593 172.014 91.4006 162.798 94.4213 156C95.5471 153.466 97.2795 151.092 99.1852 149.093C110.317 137.416 124.317 143.936 131.004 157C134.656 164.135 134.173 172.214 133.985 180C133.869 184.847 132.244 188.971 138.019 190.556C163.052 197.427 188.555 188.088 213 183.2C220.405 181.719 234.054 181.557 239.347 175.606C243.317 171.142 242 163.496 242 158C242 143.25 244.276 126.855 239 113C220.305 113.155 200.471 117.683 182 120.59C170.416 122.414 159.502 125.468 149.314 118.031C144.773 114.716 142.136 107.788 139.424 103L120.719 70C119.035 67.0443 110.668 56.8309 116.102 54.287C123.442 50.8503 129.195 61.3471 131.85 66C138.093 76.9423 144.241 87.958 150.306 99C152.403 102.819 154.877 109.636 159.185 111.393C161.631 112.39 164.503 111.626 167 111.271C172.673 110.465 178.344 109.678 184 108.754C203.603 105.551 224.161 100.852 244 100C243.162 83.8407 228.905 70.3896 220.076 58C216.7 53.2629 213.025 46.1178 206.985 44.4336C200.072 42.5057 191.036 44.1475 183.999 44.8318C171.336 46.0632 158.647 46.6268 146 47.8302C133.76 48.9951 117.867 46.1478 107 52.966C93.9438 61.1581 83.4759 74.6733 74.5756 87C71.6024 91.1178 66.9711 95.7004 66.3989 100.995C65.639 108.028 73.1031 107.457 76 103z"/>
<path style="fill:#d1d1d1; stroke:none;" d="M191 44L192 45L191 44z"/>
<path style="fill:#ffffff; stroke:none;" d="M239 116C239.685 114.752 239.749 114.452 240 113C248.355 112.038 246.177 103.341 245 97C244.315 98.2484 244.251 98.5484 244 100C223.931 100.414 202.813 105.517 183 108.754C177.677 109.624 172.344 110.399 167 111.13C164.45 111.479 161.594 112.266 159.185 110.958C154.987 108.676 152.508 102.01 150.306 98C144.612 87.6334 138.868 77.2686 132.999 67C129.481 60.8434 125.538 52.6512 116.89 53.5772C114 53.8866 113.34 56.5815 114.052 59.0046C115.389 63.5502 118.949 67.9006 121.281 72L140.001 105C144.194 112.337 147.705 119.366 156.17 122.416C162.566 124.721 171.52 122.451 178 121.41C190.96 119.329 204.004 117.602 217 115.729C222.722 114.905 235.39 110.453 239 116M40 87C35.0628 82.5712 28.9482 78.8433 22 80.3951C14.2826 82.1186 8.27373 89.7146 13.5139 96.9846C17.0272 101.859 22.9377 104.874 28.9846 103.771C32.2371 103.177 37.8797 98.3786 34.3542 94.8735C30.6255 91.1664 28.2157 95.6354 29 99C21.8276 98.5187 11.4667 89.7276 23.0015 86.0988C27.6598 84.6333 32.3966 87.7909 35.3812 91.1049C41.3957 97.7832 43.825 107.274 45 116C35.1786 116.203 26.9731 120.274 18 123.797C11.9492 126.173 5.67548 127.773 0 131C1.40516 135.503 0.732531 145.532 5.14815 147.954C9.21257 150.183 16.9261 145.93 21 144.659C25.3047 143.315 34.0345 143.486 37.3966 140.821C41.9205 137.235 38.1404 125.906 36 122C38.486 121.895 42.3192 120.784 44.5664 122.117C47.2756 123.724 47.2793 128.267 47.8032 131C49.3911 139.28 49.9602 147.584 50.0008 156C50.0142 158.779 49.557 170.361 53.1698 171.079C54.9912 171.44 55.6264 169.275 55.8519 167.941C56.5794 163.635 55.3821 159.273 55.0895 155C54.2973 143.431 53.646 132.479 51.5756 121C50.6378 115.801 47.2285 107.49 48.2693 102.34C48.8152 99.6376 51.998 98.6013 53.9861 97.1613C57.4673 94.6396 59.912 91.4436 59.912 87C59.912 73.1325 43.3802 77.0856 40 87z"/>
<path style="fill:#e7eaff; stroke:none;" d="M105 100.742C84.2215 108.692 95.5386 145.661 118 136.852C138.967 128.629 127.023 92.3167 105 100.742M193 126.425C186.689 127.284 177.021 126.702 172.148 131.279C170.2 133.108 169.201 135.343 169.099 138C168.98 141.082 170.103 144.024 170.715 147C171.994 153.223 170.737 163.02 177.108 166.682C183.49 170.35 193.293 166.389 200 165.428C203.323 164.952 206.686 165.189 210 164.699C214.317 164.061 219.331 162.355 221.991 158.671C227.063 151.646 223.582 135.001 217.772 129.228C212.406 123.896 199.92 125.483 193 126.425z"/>
<path style="fill:#f4f4f4; stroke:none;" d="M96 180C108.436 182.947 120.043 187.969 133 189C135.348 176.351 135.933 160.14 126.815 150.015C116.385 138.436 96.8129 141.013 93.4082 158C92.0162 164.945 95.0747 173.129 96 180z"/>
<path style="fill:#ffffff; stroke:none;" d="M103 166L104 162C99.5319 161.311 98.6947 164.569 103 166M68 190C62.6454 189.006 57.4296 189 52 189C52.4971 192.066 53.0359 193.032 56 194C56.4264 196.806 57.0351 197.948 59 200C56.8412 200.541 54.2118 200.8 52.304 202.013C43.7203 207.47 54.3624 210.857 59.4198 210.827C65.1335 210.794 69.368 205.15 75 203.708C79.6032 202.53 86.6686 204.589 86 198C90.7937 198.206 95.324 199.341 100 200.339C104.541 201.307 119.897 203.009 111.847 194.328C111.042 193.46 109.968 192.765 108.995 192.105C100.516 186.349 89.0508 182.748 79.0039 180.943C72.9535 179.856 64.5961 183.289 68 190z"/>
<path style="fill:#aaaaaa; stroke:none;" d="M123 187L124 188L123 187M133 189L134 190L133 189z"/>
<path style="fill:#b6b6b6; stroke:none;" d="M178 190L179 191L178 190z"/>
</svg>