<!DOCTYPE svg PUBLIC "-//W3C//DTD SVG 20010904//EN" "http://www.w3.org/TR/2001/REC-SVG-20010904/DTD/svg10.dtd">
<svg version="1.0" xmlns="http://www.w3.org/2000/svg" width="149px" height="146px" viewBox="0 0 1490 1460" preserveAspectRatio="xMidYMid meet">
<g id="layer1" fill="#e4e7fb" stroke="none">
 <path d="M569 1445 c-107 -18 -309 -123 -309 -161 0 -26 77 -168 117 -217 80 -96 185 -156 316 -179 115 -20 267 31 357 122 55 54 115 158 141 242 18 58 18 62 2 80 -33 37 -175 98 -263 113 -101 17 -256 17 -361 0z"/>
 <path d="M640 791 c-74 -24 -148 -88 -175 -153 -20 -50 -19 -134 4 -183 10 -22 42 -62 70 -88 112 -100 267 -102 369 -4 127 121 100 313 -55 404 -35 20 -61 27 -117 29 -39 2 -82 0 -96 -5z"/>
 </g>
<g id="layer2" fill="#404040" stroke="none">
 <path d="M1189 1338 c0 -1 -2 -17 -4 -33 -11 -81 -84 -224 -145 -285 -76 -76 -229 -129 -333 -115 -182 25 -301 114 -389 292 l-51 102 -40 -31 c-70 -56 -151 -170 -182 -258 -22 -62 -45 -194 -45 -260 0 -184 77 -384 198 -511 190 -203 392 -269 685 -225 223 34 424 191 542 424 61 121 83 335 50 491 -21 99 -85 222 -154 294 -52 55 -130 123 -132 115z m-376 -572 c101 -36 164 -132 154 -235 -8 -98 -52 -162 -137 -200 -85 -39 -203 -20 -279 46 -142 121 -93 338 89 394 40 12 132 9 173 -5z"/>
 </g>

</svg>