<!DOCTYPE svg PUBLIC "-//W3C//DTD SVG 20010904//EN" "http://www.w3.org/TR/2001/REC-SVG-20010904/DTD/svg10.dtd">
<svg version="1.0" xmlns="http://www.w3.org/2000/svg" width="104px" height="380px" viewBox="0 0 1040 3800" preserveAspectRatio="xMidYMid meet">
<g id="layer1" fill="#3f3f3f" stroke="none">
 <path d="M433 3779 c-36 -23 -39 -30 -48 -117 l-7 -62 41 -41 c32 -32 47 -40 66 -37 30 6 29 144 10 -1067 -8 -511 -15 -993 -15 -1071 l0 -141 -40 -12 c-49 -15 -70 -35 -71 -69 0 -23 -10 -32 -70 -60 -154 -74 -250 -208 -284 -396 -10 -53 -15 -114 -12 -136 8 -61 93 -223 145 -279 33 -34 72 -61 130 -87 48 -23 80 -44 78 -51 -29 -77 -1 -136 63 -132 20 2 46 -3 58 -9 27 -15 68 -15 94 -2 29 16 52 68 46 105 -5 33 -5 33 43 37 98 10 224 108 274 213 96 202 121 318 91 421 -41 141 -129 252 -239 298 -58 25 -66 32 -66 55 0 37 -25 69 -63 79 l-32 8 3 915 c1 503 5 1024 8 1157 6 239 7 244 27 238 51 -13 109 53 111 127 1 33 -5 44 -43 79 -42 40 -44 40 -100 35 -38 -3 -65 0 -82 9 -35 19 -79 17 -116 -7z m85 -2796 c35 -70 46 -192 22 -248 l-13 -30 -7 39 c-9 49 -32 66 -89 66 -55 0 -103 -27 -131 -72 -26 -43 -25 -68 3 -108 34 -50 65 -64 123 -56 42 7 57 15 105 65 36 37 58 69 62 91 l7 34 33 -31 c40 -37 60 -45 91 -34 46 18 72 124 43 180 -29 57 -112 45 -133 -19 l-12 -35 -7 40 c-3 22 -11 53 -16 69 -10 33 -12 76 -3 76 18 0 172 -44 194 -55 39 -20 96 -87 108 -126 17 -57 24 -172 12 -225 -23 -104 -116 -256 -184 -301 -41 -27 -55 -31 -151 -35 -97 -5 -111 -4 -178 21 -163 61 -277 179 -277 287 0 120 38 223 116 318 64 78 149 124 231 125 28 1 35 -4 51 -36z m206 -171 c-1 -49 -15 -68 -41 -57 -16 8 -16 9 5 12 25 5 31 40 7 49 -8 4 -15 15 -15 26 0 14 6 19 23 16 19 -3 22 -9 21 -46z m-256 -80 c3 -18 -1 -22 -20 -20 -19 3 -23 -2 -23 -27 0 -23 5 -30 25 -35 23 -6 21 -8 -18 -20 -42 -13 -44 -13 -73 16 -26 26 -29 34 -20 57 21 54 122 77 129 29z"/>
 </g>

</svg>