
<!DOCTYPE svg PUBLIC "-//W3C//DTD SVG 20010904//EN" "http://www.w3.org/TR/2001/REC-SVG-20010904/DTD/svg10.dtd">
<svg version="1.0" xmlns="http://www.w3.org/2000/svg" viewBox="0 0 9340 9180" preserveAspectRatio="none">
<g id="layer1" fill="#e7eaff" stroke="none">
 <path d="M4664 9073 c-96 -145 -185 -302 -249 -438 -54 -115 -149 -356 -181 -457 -14 -46 -22 -58 -38 -58 -41 0 -66 -12 -66 -32 0 -16 5 -18 35 -12 21 4 35 2 35 -4 0 -6 -11 -52 -24 -104 -51 -191 -116 -588 -116 -706 0 -52 -10 -82 -26 -82 -8 0 -14 -9 -14 -20 0 -11 6 -20 14 -20 11 0 13 -40 9 -237 -3 -131 0 -326 5 -433 6 -107 10 -196 8 -197 -1 -2 -50 50 -109 114 -129 144 -270 288 -399 410 -54 51 -93 95 -88 98 18 11 -2 37 -25 31 -17 -4 -45 13 -127 82 -150 124 -353 270 -495 354 -68 40 -123 78 -123 84 0 18 -25 35 -36 25 -5 -5 -63 17 -139 55 -229 112 -441 190 -690 254 -178 45 -287 65 -309 57 -23 -9 -20 -41 19 -218 183 -816 638 -1531 1423 -2231 l133 -119 -68 8 c-37 4 -255 8 -483 7 -366 0 -437 -3 -599 -23 -241 -29 -492 -75 -633 -117 -14 -4 -16 0 -11 30 5 31 3 36 -14 36 -14 0 -22 -10 -29 -41 l-9 -41 -145 -48 c-144 -47 -359 -134 -471 -190 -196 -99 -469 -275 -469 -302 0 -13 41 -45 128 -102 371 -244 779 -415 1222 -510 146 -32 434 -73 568 -82 97 -7 103 -8 108 -30 4 -15 13 -24 26 -24 15 0 19 5 15 20 -5 20 0 20 326 21 183 1 376 4 429 8 l96 6 -56 -50 c-854 -753 -1323 -1488 -1499 -2350 -15 -72 -24 -139 -20 -149 8 -21 23 -19 221 25 271 60 520 148 785 275 132 63 133 64 162 47 24 -14 31 -15 41 -4 11 10 9 16 -10 28 -23 16 -22 17 65 67 190 112 381 249 598 430 128 106 530 504 630 623 33 39 61 70 62 69 2 -1 -2 -90 -8 -197 -6 -107 -9 -303 -6 -436 l5 -242 -23 9 c-13 5 -26 6 -29 3 -14 -14 -4 -32 24 -41 34 -13 35 -13 50 -187 15 -172 53 -396 99 -577 33 -132 35 -147 19 -142 -13 4 -18 0 -18 -15 0 -14 8 -23 24 -27 21 -5 30 -22 62 -117 100 -300 256 -616 427 -864 69 -101 76 -100 164 35 345 525 546 1128 599 1800 6 76 9 83 30 88 30 8 33 44 5 44 -19 0 -20 9 -19 288 1 158 -2 352 -6 432 l-7 145 77 -85 c42 -47 178 -186 300 -309 123 -123 226 -232 230 -243 3 -11 12 -17 20 -14 7 3 35 -13 61 -36 304 -264 688 -505 1043 -656 202 -86 502 -176 719 -217 121 -22 120 -23 86 146 -58 290 -170 617 -298 869 -61 121 -62 126 -48 152 13 22 13 30 3 40 -11 11 -16 10 -27 -6 -14 -18 -15 -17 -32 13 -40 73 -216 336 -286 428 -221 291 -403 483 -827 872 l-35 33 115 -6 c63 -3 254 -6 424 -6 l308 0 -6 -24 c-4 -17 -1 -26 10 -30 23 -9 23 -9 29 28 l7 33 99 7 c301 19 678 93 959 186 311 104 577 232 853 413 144 95 144 93 -20 201 -271 176 -640 350 -900 421 -59 16 -63 20 -63 46 0 34 -29 41 -37 9 -3 -11 -7 -20 -8 -20 -2 0 -58 13 -126 29 -214 51 -435 85 -681 106 -58 5 -78 10 -78 21 0 8 -9 14 -20 14 -11 0 -20 -6 -20 -12 0 -10 -72 -13 -328 -13 -180 0 -371 -3 -425 -8 l-97 -7 147 133 c82 74 223 211 315 306 92 94 172 171 178 171 5 0 10 7 10 15 0 8 35 57 78 107 144 173 293 381 401 565 23 39 49 74 57 77 9 3 14 12 11 19 -2 6 22 65 55 130 113 228 205 474 267 722 40 160 64 292 55 306 -10 16 -100 4 -267 -37 -592 -145 -1086 -404 -1607 -843 -137 -115 -481 -456 -600 -593 -41 -48 -76 -86 -78 -84 -2 2 1 116 7 252 6 137 7 332 4 433 l-6 183 24 -7 c38 -12 43 -11 47 7 2 12 -6 21 -24 29 -24 8 -31 7 -41 -7 -11 -15 -13 -10 -13 37 0 140 -57 512 -114 742 l-34 139 49 -7 c44 -6 49 -5 49 13 0 15 -9 21 -42 26 -29 5 -44 3 -49 -6 -11 -18 -14 -13 -43 85 -71 233 -221 559 -363 786 -96 152 -133 201 -152 201 -10 0 -44 -42 -87 -107z"/>
 <path d="M3510 8138 c-33 -17 -34 -18 -9 -18 15 0 32 7 39 15 19 22 10 23 -30 3z"/>
 <path d="M3983 8083 c-24 -5 -31 -31 -10 -38 24 -8 82 11 85 28 4 17 -20 21 -75 10z"/>
 <path d="M5470 8071 c0 -27 81 -46 91 -22 8 19 -4 26 -53 35 -34 6 -38 5 -38 -13z"/>
 <path d="M3843 8046 c-33 -7 -43 -13 -43 -29 0 -17 4 -18 38 -12 49 9 61 17 53 35 -5 13 -14 14 -48 6z"/>
 <path d="M5636 8034 c-4 -9 -5 -18 -4 -19 9 -8 82 -23 90 -19 19 12 5 32 -31 42 -49 15 -48 15 -55 -4z"/>
 <path d="M3673 7998 c-33 -11 -48 -48 -19 -48 33 0 76 23 76 41 0 21 -9 22 -57 7z"/>
 <path d="M5796 7985 c-6 -16 26 -34 68 -38 35 -3 31 29 -5 42 -43 15 -56 14 -63 -4z"/>
 <path d="M3518 7943 c-25 -10 -38 -22 -38 -34 0 -23 7 -23 54 -4 24 10 36 22 36 35 0 24 -3 24 -52 3z"/>
 <path d="M5956 7934 c-4 -9 -5 -18 -4 -19 12 -11 82 -34 89 -29 20 12 7 33 -31 48 -49 20 -46 20 -54 0z"/>
 <path d="M3348 7874 c-54 -29 -24 -54 35 -29 25 10 35 20 31 30 -8 19 -31 19 -66 -1z"/>
 <path d="M6116 7873 c-9 -21 -1 -30 40 -43 30 -10 38 -10 45 1 10 17 4 23 -43 42 -32 14 -37 14 -42 0z"/>
 <path d="M3208 7809 c-35 -18 -47 -37 -32 -52 10 -10 84 32 84 48 0 23 -13 24 -52 4z"/>
 <path d="M6266 7804 c-9 -23 -10 -22 35 -45 34 -17 43 -18 50 -7 14 22 11 27 -31 48 -47 24 -46 24 -54 4z"/>
 <path d="M3053 7729 c-31 -20 -41 -38 -27 -52 12 -12 85 33 82 50 -5 24 -20 25 -55 2z"/>
 <path d="M6416 7724 c-4 -9 -5 -18 -4 -19 57 -38 81 -47 89 -34 13 21 12 24 -30 47 -46 26 -47 26 -55 6z"/>
 <path d="M2908 7644 c-25 -16 -35 -29 -32 -39 8 -20 16 -19 58 6 39 23 43 31 24 47 -9 7 -24 3 -50 -14z"/>
 <path d="M6564 7638 c-9 -14 43 -58 69 -58 26 0 20 26 -12 49 -33 24 -47 26 -57 9z"/>
 <path d="M2763 7549 c-36 -23 -39 -29 -22 -46 16 -16 90 33 82 53 -7 19 -22 17 -60 -7z"/>
 <path d="M6704 7548 c-4 -7 6 -23 26 -40 39 -32 48 -34 57 -12 4 10 -4 24 -23 40 -32 26 -49 30 -60 12z"/>
 <path d="M3945 7152 c-28 -5 -39 -18 -32 -36 5 -12 12 -13 37 -5 16 6 30 14 30 17 -1 17 -17 28 -35 24z"/>
 <path d="M5570 7121 c0 -23 49 -39 61 -19 13 20 11 25 -13 32 -38 10 -48 7 -48 -13z"/>
 <path d="M3823 7110 c-41 -17 -22 -47 23 -36 15 4 24 14 24 26 0 22 -12 24 -47 10z"/>
 <path d="M5676 7093 c-7 -18 -8 -17 21 -32 31 -16 43 -14 43 8 0 26 -56 47 -64 24z"/>
 <path d="M3723 7070 c-22 -9 -30 -30 -17 -43 5 -5 64 11 64 18 0 11 -13 35 -19 34 -3 0 -16 -4 -28 -9z"/>
 <path d="M5780 7041 c0 -12 10 -21 27 -25 33 -9 51 13 26 32 -25 18 -53 15 -53 -7z"/>
 <path d="M3608 7019 c-17 -9 -15 -39 2 -39 27 0 59 21 54 35 -7 17 -31 19 -56 4z"/>
 <path d="M5883 7004 c-7 -19 23 -46 46 -42 27 5 22 27 -9 43 -28 14 -31 14 -37 -1z"/>
 <path d="M3517 6974 c-23 -12 -26 -18 -17 -35 11 -19 12 -19 40 -2 23 13 27 20 19 35 -5 10 -11 18 -12 18 -1 -1 -14 -8 -30 -16z"/>
 <path d="M5986 6954 c-9 -22 -9 -22 23 -38 26 -14 30 -14 35 0 9 22 9 22 -23 38 -26 14 -30 14 -35 0z"/>
 <path d="M1812 6584 c-22 -34 -22 -54 1 -54 16 0 59 68 52 80 -12 19 -30 10 -53 -26z"/>
 <path d="M7655 6590 c-7 -11 31 -80 43 -80 4 0 13 4 20 9 11 7 9 16 -10 45 -23 36 -41 45 -53 26z"/>
 <path d="M1722 6441 c-19 -34 -20 -40 -7 -51 9 -7 17 -11 18 -9 2 2 13 22 26 43 17 31 19 41 9 47 -20 13 -23 12 -46 -30z"/>
 <path d="M7745 6450 c-3 -6 4 -28 16 -50 19 -33 25 -37 41 -29 17 9 17 11 -4 49 -23 39 -41 50 -53 30z"/>
 <path d="M1637 6294 c-18 -36 -15 -54 7 -54 15 0 49 67 41 81 -12 19 -32 8 -48 -27z"/>
 <path d="M7827 6304 c-9 -10 32 -84 47 -84 24 0 25 12 5 51 -18 36 -37 48 -52 33z"/>
 <path d="M1560 6140 c-24 -48 -24 -47 -1 -53 15 -3 23 4 36 33 17 37 14 60 -5 60 -5 0 -19 -18 -30 -40z"/>
 <path d="M7905 6150 c-10 -17 33 -90 50 -84 19 8 19 15 -2 59 -16 34 -36 45 -48 25z"/>
 <path d="M1491 5987 c-10 -23 -17 -45 -14 -49 11 -19 34 -5 48 28 19 45 19 50 0 58 -12 4 -21 -6 -34 -37z"/>
 <path d="M7982 6001 c-11 -6 -10 -16 4 -49 15 -39 36 -53 48 -33 6 9 -24 91 -33 91 -3 0 -12 -4 -19 -9z"/>
 <path d="M2405 5860 c-9 -16 -14 -30 -11 -30 2 0 11 -3 20 -6 10 -4 20 4 30 24 14 27 14 31 0 36 -22 9 -22 9 -39 -24z"/>
 <path d="M1427 5826 c-14 -40 -14 -45 1 -51 19 -7 26 0 41 44 9 27 8 36 -1 43 -22 13 -26 10 -41 -36z"/>
 <path d="M7075 5841 c-6 -10 14 -61 24 -61 24 1 31 18 20 43 -12 27 -33 35 -44 18z"/>
 <path d="M8043 5844 c-16 -7 14 -94 32 -94 22 0 26 15 12 56 -14 38 -23 46 -44 38z"/>
 <path d="M2355 5760 c-14 -28 -14 -31 1 -37 19 -7 46 23 42 46 -5 27 -27 22 -43 -9z"/>
 <path d="M7125 5741 c-8 -14 16 -61 31 -61 20 0 25 17 13 44 -12 26 -33 34 -44 17z"/>
 <path d="M1379 5683 c-16 -43 -15 -67 2 -71 16 -3 39 41 39 73 0 27 -31 25 -41 -2z"/>
 <path d="M2311 5663 c-15 -32 -14 -40 4 -47 10 -3 20 5 30 24 19 37 19 37 -4 43 -13 3 -22 -3 -30 -20z"/>
 <path d="M8102 5681 c-21 -13 5 -91 30 -91 21 0 21 -1 7 56 -12 46 -15 49 -37 35z"/>
 <path d="M7182 5641 c-20 -12 -4 -61 19 -61 22 0 25 28 7 53 -8 10 -18 14 -26 8z"/>
 <path d="M2266 5554 c-10 -37 10 -56 30 -29 18 24 14 49 -7 53 -11 2 -19 -6 -23 -24z"/>
 <path d="M1330 5514 c-16 -40 -12 -64 9 -64 17 0 31 33 31 76 0 24 -30 15 -40 -12z"/>
 <path d="M7216 5531 c-4 -5 -2 -21 4 -35 16 -44 46 -28 34 19 -6 25 -27 34 -38 16z"/>
 <path d="M8140 5508 c0 -26 21 -88 30 -88 17 0 22 21 15 60 -5 30 -11 40 -26 40 -10 0 -19 -6 -19 -12z"/>
 <path d="M2226 5443 c-7 -24 5 -42 25 -43 7 0 19 36 19 58 0 25 -38 13 -44 -15z"/>
 <path d="M7254 5398 c8 -39 9 -40 30 -32 10 4 15 13 12 21 -3 8 -6 21 -6 29 0 8 -10 14 -21 14 -19 0 -21 -4 -15 -32z"/>
 <path d="M1297 5373 c-3 -5 -8 -27 -12 -50 -6 -39 -5 -43 13 -43 16 0 22 9 27 40 7 39 2 60 -15 60 -5 0 -11 -3 -13 -7z"/>
 <path d="M2195 5339 c-5 -22 -3 -34 6 -40 17 -10 24 -2 33 32 4 19 1 29 -10 33 -22 9 -22 9 -29 -25z"/>
 <path d="M8191 5351 c-9 -6 -11 -20 -6 -50 5 -32 11 -41 27 -41 18 0 19 4 13 43 -8 49 -15 59 -34 48z"/>
 <path d="M1260 3991 c0 -42 10 -61 31 -61 15 0 18 5 13 33 -9 50 -12 57 -29 57 -10 0 -15 -10 -15 -29z"/>
 <path d="M8194 3915 c-7 -49 -3 -61 19 -52 19 7 30 79 14 89 -21 14 -26 9 -33 -37z"/>
 <path d="M1301 3851 c-9 -6 -11 -20 -6 -50 5 -32 11 -41 27 -41 19 0 20 4 14 43 -8 49 -16 59 -35 48z"/>
 <path d="M2216 3791 c-10 -15 12 -61 29 -61 16 0 18 12 9 48 -6 22 -28 30 -38 13z"/>
 <path d="M7245 3759 c-7 -30 8 -55 26 -43 15 9 20 57 7 65 -21 14 -26 11 -33 -22z"/>
 <path d="M8166 3782 c-2 -4 -7 -24 -11 -44 -6 -30 -4 -39 9 -44 22 -8 23 -7 31 49 6 39 5 47 -8 47 -9 0 -18 -3 -21 -8z"/>
 <path d="M1334 3649 c8 -51 16 -62 35 -50 20 13 1 85 -23 89 -17 4 -18 -1 -12 -39z"/>
 <path d="M2250 3678 c0 -29 13 -58 26 -58 19 0 25 16 18 45 -6 26 -44 37 -44 13z"/>
 <path d="M7210 3654 c-14 -36 -13 -44 9 -44 12 0 21 9 25 25 12 47 -18 63 -34 19z"/>
 <path d="M8120 3604 c-23 -59 -23 -74 -2 -74 33 0 56 82 27 94 -11 4 -19 -3 -25 -20z"/>
 <path d="M2302 3581 c-20 -12 -4 -61 19 -61 22 0 25 28 7 53 -8 10 -18 14 -26 8z"/>
 <path d="M7166 3544 c-10 -37 10 -56 30 -30 20 28 18 56 -5 56 -12 0 -21 -10 -25 -26z"/>
 <path d="M1382 3522 c-9 -7 -10 -16 -1 -43 15 -45 26 -56 41 -41 9 9 8 21 -1 52 -12 41 -17 45 -39 32z"/>
 <path d="M2337 3474 c-7 -7 12 -64 21 -64 23 1 32 18 23 43 -10 25 -30 35 -44 21z"/>
 <path d="M7121 3444 c-6 -14 -9 -30 -6 -35 11 -17 32 -9 44 18 10 21 9 28 -1 34 -20 13 -24 11 -37 -17z"/>
 <path d="M8062 3421 c-15 -48 -15 -48 3 -55 10 -4 20 6 30 31 20 47 19 63 -3 63 -13 0 -22 -12 -30 -39z"/>
 <path d="M2385 3371 c-8 -14 16 -61 31 -61 21 0 27 20 13 46 -13 24 -33 31 -44 15z"/>
 <path d="M1434 3356 c-7 -18 22 -86 36 -86 19 0 22 27 6 64 -15 37 -33 46 -42 22z"/>
 <path d="M7071 3344 c-6 -14 -9 -30 -6 -35 11 -17 32 -9 44 18 10 21 9 28 -1 34 -20 13 -24 11 -37 -17z"/>
 <path d="M8004 3265 c-18 -45 -18 -55 4 -55 17 0 42 47 42 78 0 26 -32 10 -46 -23z"/>
 <path d="M1495 3201 c-6 -11 23 -91 34 -91 26 1 30 18 14 58 -15 40 -35 53 -48 33z"/>
 <path d="M1437 3149 c4 -13 9 -17 15 -11 11 11 3 32 -12 32 -4 0 -6 -9 -3 -21z"/>
 <path d="M7936 3109 c-17 -42 -14 -59 8 -59 20 0 49 82 33 92 -20 13 -24 10 -41 -33z"/>
 <path d="M8090 3102 c0 -12 7 -25 15 -29 24 -9 25 0 5 27 l-20 25 0 -23z"/>
 <path d="M1571 3051 c-13 -8 -12 -15 4 -50 17 -39 37 -52 50 -31 5 8 -30 90 -38 90 -1 0 -8 -4 -16 -9z"/>
 <path d="M7861 2951 c-20 -39 -19 -51 5 -51 15 0 56 74 47 84 -15 15 -34 3 -52 -33z"/>
 <path d="M1640 2890 c0 -20 34 -80 46 -80 22 0 25 18 7 54 -15 33 -53 51 -53 26z"/>
 <path d="M7780 2808 c-22 -36 -21 -51 1 -56 16 -3 63 71 52 82 -14 14 -34 4 -53 -26z"/>
 <path d="M1731 2751 c-11 -7 -9 -16 10 -50 24 -44 27 -45 48 -32 10 7 9 16 -10 50 -26 44 -27 45 -48 32z"/>
 <path d="M7692 2664 c-21 -32 -22 -38 -9 -51 13 -14 18 -11 43 27 23 34 25 43 13 51 -21 13 -22 12 -47 -27z"/>
 <path d="M1815 2600 c-7 -11 42 -80 57 -80 20 0 18 30 -3 59 -23 31 -43 39 -54 21z"/>
 <path d="M3474 2248 c-4 -6 3 -19 16 -30 28 -22 36 -23 44 -1 12 30 -44 58 -60 31z"/>
 <path d="M5978 2244 c-26 -13 -30 -44 -6 -44 19 0 48 21 48 35 0 22 -13 24 -42 9z"/>
 <path d="M3577 2203 c-14 -13 -6 -30 20 -42 21 -10 28 -9 34 1 13 20 11 24 -16 36 -30 14 -30 14 -38 5z"/>
 <path d="M5867 2188 c-11 -9 -14 -18 -8 -27 8 -12 14 -13 35 -3 14 6 26 18 26 27 0 18 -30 20 -53 3z"/>
 <path d="M3674 2148 c-8 -13 22 -38 48 -38 24 0 23 27 -1 40 -25 13 -38 13 -47 -2z"/>
 <path d="M5773 2148 c-24 -11 -30 -32 -14 -43 15 -9 62 17 59 33 -4 20 -18 23 -45 10z"/>
 <path d="M3777 2101 c-3 -14 3 -21 28 -29 29 -8 34 -7 38 8 3 12 -4 22 -20 29 -33 15 -40 14 -46 -8z"/>
 <path d="M5663 2103 c-15 -5 -18 -43 -4 -43 28 0 60 21 55 35 -6 15 -27 18 -51 8z"/>
 <path d="M3883 2065 c-7 -20 -3 -23 35 -31 27 -6 32 -4 32 14 0 12 -9 22 -22 26 -33 9 -38 8 -45 -9z"/>
 <path d="M5568 2068 c-27 -9 -37 -31 -19 -42 15 -10 61 12 61 28 0 21 -11 25 -42 14z"/>
 <path d="M6767 1693 c-40 -28 -45 -40 -23 -49 14 -5 86 34 86 47 0 4 -6 11 -13 17 -10 9 -22 5 -50 -15z"/>
 <path d="M2770 1645 c-14 -17 -4 -28 48 -56 19 -11 25 -11 32 1 11 17 2 29 -38 52 -27 16 -31 16 -42 3z"/>
 <path d="M6623 1597 c-36 -24 -37 -26 -24 -46 8 -12 16 -10 51 13 34 22 39 30 29 42 -15 18 -17 17 -56 -9z"/>
 <path d="M2911 1552 c-8 -16 -4 -22 29 -41 22 -12 44 -19 50 -16 20 12 9 32 -29 53 -39 22 -40 22 -50 4z"/>
 <path d="M6483 1510 c-34 -20 -45 -50 -19 -50 25 0 76 34 74 49 -4 22 -20 23 -55 1z"/>
 <path d="M3056 1465 c-6 -15 45 -55 70 -55 28 0 21 30 -10 49 -40 25 -52 26 -60 6z"/>
 <path d="M6333 1432 c-35 -18 -42 -39 -19 -48 20 -8 77 27 74 45 -4 21 -19 22 -55 3z"/>
 <path d="M3207 1393 c-14 -13 -6 -23 34 -44 34 -17 43 -18 50 -7 13 20 11 23 -26 41 -39 19 -48 20 -58 10z"/>
 <path d="M6173 1354 c-33 -14 -37 -44 -6 -44 25 0 73 30 73 45 0 18 -24 18 -67 -1z"/>
 <path d="M3360 1312 c0 -17 47 -42 78 -42 23 0 12 30 -18 45 -39 20 -60 19 -60 -3z"/>
 <path d="M6028 1293 c-36 -15 -48 -35 -29 -48 9 -5 91 22 91 30 0 11 -13 35 -19 34 -3 -1 -23 -8 -43 -16z"/>
 <path d="M3516 1254 c-3 -9 -6 -17 -6 -18 0 -7 82 -26 90 -21 19 12 10 25 -26 40 -46 19 -50 19 -58 -1z"/>
 <path d="M5870 1235 c-32 -12 -36 -17 -31 -44 1 -9 91 16 91 24 0 11 -13 35 -19 34 -3 -1 -22 -7 -41 -14z"/>
 <path d="M3675 1200 c-10 -15 -1 -23 46 -36 34 -10 41 -10 46 3 8 20 -5 30 -48 38 -24 4 -39 3 -44 -5z"/>
 <path d="M5700 1181 c-14 -4 -26 -15 -28 -25 -4 -17 1 -18 39 -12 48 8 65 18 55 35 -8 12 -28 13 -66 2z"/>
 <path d="M3840 1151 c0 -15 10 -23 38 -30 50 -14 52 -14 52 8 0 12 -10 21 -27 25 -16 4 -36 9 -45 12 -13 4 -18 0 -18 -15z"/>
 <path d="M5545 1141 c-21 -4 -31 -13 -33 -28 -3 -20 -1 -21 35 -12 21 5 41 9 46 9 4 0 7 9 7 20 0 21 -5 22 -55 11z"/>
 <path d="M4004 1116 c-8 -22 -6 -23 43 -34 34 -8 43 -7 48 6 6 17 -11 32 -37 32 -9 0 -23 3 -32 6 -10 4 -18 0 -22 -10z"/>
 <path d="M5363 1103 c-24 -5 -31 -31 -10 -38 24 -8 82 11 85 28 4 17 -20 21 -75 10z"/>
 <path d="M6167 1000 c3 -11 9 -20 14 -20 5 0 9 9 9 20 0 11 -6 20 -14 20 -9 0 -12 -7 -9 -20z"/>
 </g>
 
 <g id="layer2" fill="#ffffff" stroke="none">
 <path d="M4474 5346 c-3 -7 -4 -33 -2 -57 l3 -44 320 0 320 0 0 55 0 55 -318 3 c-265 2 -318 0 -323 -12z"/>
 <path d="M3557 4683 c-6 -6 292 -601 315 -630 6 -8 35 -13 73 -13 38 0 67 5 73 13 28 34 333 618 327 627 -3 6 -47 10 -101 10 l-95 0 -101 -206 c-55 -113 -101 -204 -103 -202 -1 2 -42 89 -90 193 -48 105 -91 196 -97 203 -11 13 -189 18 -201 5z"/>
 <path d="M5246 4682 c-3 -4 67 -151 155 -325 l160 -318 72 3 72 3 168 314 c96 180 164 318 159 323 -5 5 -51 7 -103 6 l-94 -3 -100 -204 -100 -204 -90 194 c-49 107 -93 200 -98 207 -11 14 -192 18 -201 4z"/>
 </g>
 
 <g id="layer3" fill="#ffffff" fill-opacity="0.5" stroke="none">
<path d="M4646 9068 c-157 -239 -275 -472 -374 -738 -27 -74 -52 -147 -56 -162 -5 -22 -14 -28 -48 -35 -48 -10 -69 -33 -49 -57 8 -9 24 -16 37 -16 13 0 24 -2 24 -4 0 -3 -14 -60 -30 -128 -42 -170 -75 -363 -96 -558 -14 -135 -21 -169 -37 -187 -19 -22 -20 -24 -3 -42 16 -18 17 -36 11 -215 -6 -152 -5 -199 5 -211 11 -13 26 -8 119 41 187 99 342 209 514 366 l88 80 25 -23 c20 -19 28 -21 43 -12 15 10 24 3 62 -45 129 -166 292 -322 475 -456 79 -57 97 -66 110 -55 13 10 15 48 12 260 l-3 248 21 -5 c15 -4 27 1 38 17 19 27 8 45 -34 54 -27 6 -29 10 -35 73 -24 254 -77 566 -124 736 l-19 68 34 -5 c27 -5 37 -1 49 16 14 19 13 23 -3 39 -9 9 -36 19 -59 20 l-42 3 -31 95 c-100 300 -286 673 -444 888 -38 52 -51 62 -76 62 -26 0 -37 -11 -104 -112z"/>
 <path d="M4000 8103 c-33 -6 -50 -21 -50 -43 0 -31 22 -41 66 -29 56 15 68 29 48 57 -15 22 -19 23 -64 15z"/>
 <path d="M5464 8089 c-16 -18 -16 -20 0 -38 25 -27 85 -37 105 -17 22 23 4 48 -47 62 -36 11 -42 10 -58 -7z"/>
 <path d="M3834 8063 c-12 -2 -30 -13 -40 -24 -17 -19 -17 -20 2 -40 18 -18 23 -18 59 -6 48 17 64 39 46 61 -13 16 -25 17 -67 9z"/>
 <path d="M5631 8057 c-15 -15 -14 -42 2 -55 6 -6 28 -13 47 -17 28 -5 39 -2 53 13 16 18 16 20 0 34 -26 23 -89 38 -102 25z"/>
 <path d="M3683 8016 c-18 -6 -40 -19 -50 -28 -16 -16 -16 -18 1 -37 14 -16 23 -18 49 -10 17 5 40 18 51 29 20 20 20 20 1 39 -17 16 -25 17 -52 7z"/>
 <path d="M5792 8008 c-17 -17 -15 -32 6 -51 29 -26 70 -32 92 -12 24 22 12 41 -37 62 -40 16 -46 16 -61 1z"/>
 <path d="M3513 7957 c-47 -17 -57 -30 -44 -56 14 -25 29 -26 75 -7 42 17 50 30 36 56 -12 23 -21 23 -67 7z"/>
 <path d="M5949 7944 c-18 -22 -1 -45 45 -63 33 -12 38 -12 56 4 24 22 13 41 -37 62 -41 17 -48 16 -64 -3z"/>
 <path d="M3348 7890 c-48 -26 -52 -33 -30 -59 16 -21 19 -21 53 -7 48 20 66 43 52 64 -14 24 -33 24 -75 2z"/>
 <path d="M6106 7878 c-19 -27 -10 -39 45 -62 34 -14 38 -14 54 4 15 17 16 22 4 36 -12 15 -68 44 -83 44 -3 0 -12 -10 -20 -22z"/>
 <path d="M1495 7840 c-17 -19 -17 -24 -1 -107 122 -628 405 -1206 845 -1726 l81 -96 -21 -35 c-22 -37 -20 -50 12 -66 16 -9 22 -6 37 20 l19 30 107 -116 c131 -139 136 -139 157 14 15 106 19 493 6 602 -7 62 -6 66 15 75 15 7 24 20 26 41 l3 30 77 -9 c107 -12 438 -2 549 17 165 28 310 66 327 85 16 18 10 26 -124 152 -88 84 -138 139 -135 148 8 21 -24 52 -44 42 -12 -7 -45 15 -136 91 -143 118 -324 248 -477 342 -62 38 -121 79 -131 93 -12 15 -25 22 -35 18 -8 -3 -49 12 -91 34 -264 136 -575 247 -878 311 -169 36 -165 35 -188 10z"/>
 <path d="M7842 7835 c-756 -160 -1393 -529 -2042 -1179 -181 -183 -181 -165 -11 -241 187 -84 390 -143 586 -170 198 -28 190 -26 187 -62 -2 -23 3 -36 21 -50 23 -18 24 -24 30 -188 5 -176 38 -410 60 -432 13 -13 77 46 280 255 54 55 105 103 113 106 8 3 18 16 24 28 5 13 57 82 117 154 121 148 252 331 338 474 32 52 68 107 81 121 14 14 22 28 19 31 -3 3 30 79 74 169 130 270 223 543 281 829 l28 135 -21 23 c-25 27 -24 27 -165 -3z"/>
 <path d="M3198 7820 c-48 -26 -54 -38 -31 -62 20 -20 20 -20 61 1 52 26 58 38 36 62 -21 23 -20 23 -66 -1z"/>
 <path d="M6259 7814 c-17 -21 -3 -43 44 -69 34 -19 38 -19 53 -3 22 21 13 43 -28 68 -40 24 -52 25 -69 4z"/>
 <path d="M3038 7734 c-43 -28 -45 -34 -19 -58 22 -20 45 -12 88 27 22 19 22 22 6 39 -21 23 -30 22 -75 -8z"/>
 <path d="M6412 7738 c-21 -21 -13 -37 29 -65 31 -21 45 -24 57 -16 27 16 20 45 -17 70 -38 26 -52 28 -69 11z"/>
 <path d="M2915 7661 c-17 -10 -36 -25 -44 -35 -13 -15 -12 -20 5 -37 20 -20 20 -19 62 11 47 34 50 40 24 63 -16 15 -20 15 -47 -2z"/>
 <path d="M6556 7648 c-18 -26 -15 -32 36 -64 38 -24 41 -25 59 -8 10 9 19 21 19 25 0 8 -83 69 -94 69 -3 0 -12 -10 -20 -22z"/>
 <path d="M2758 7559 c-41 -33 -46 -50 -23 -69 12 -10 21 -8 49 9 54 34 62 48 41 71 -23 25 -23 25 -67 -11z"/>
 <path d="M6701 7556 l-23 -24 42 -31 c50 -36 52 -37 73 -13 16 17 15 20 -11 43 -55 50 -57 51 -81 25z"/>
 <path d="M3924 7160 c-34 -13 -38 -30 -16 -53 18 -18 25 -19 47 -9 31 14 41 37 25 57 -14 17 -25 18 -56 5z"/>
 <path d="M5564 7139 c-19 -21 -19 -21 5 -40 28 -23 59 -21 75 3 8 13 7 21 -4 32 -27 26 -55 28 -76 5z"/>
 <path d="M3831 7127 c-35 -18 -48 -42 -32 -61 19 -22 35 -20 68 8 l28 25 -20 20 c-17 17 -23 19 -44 8z"/>
 <path d="M5670 7105 c-17 -20 -7 -41 28 -59 28 -14 31 -14 48 5 18 21 18 21 -9 45 -32 28 -50 30 -67 9z"/>
 <path d="M3699 7071 l-24 -20 21 -21 c17 -17 25 -19 47 -11 33 13 44 36 27 56 -17 20 -43 19 -71 -4z"/>
 <path d="M5775 7060 c-18 -20 -18 -21 1 -40 26 -26 63 -30 78 -7 9 15 6 22 -17 43 -34 29 -39 30 -62 4z"/>
 <path d="M3603 7026 c-27 -23 -27 -25 -10 -44 21 -23 47 -19 73 9 16 18 16 20 -1 39 -23 25 -28 25 -62 -4z"/>
 <path d="M5876 7011 c-21 -23 -15 -36 25 -56 32 -17 43 -14 59 16 9 16 6 22 -22 39 -40 24 -41 24 -62 1z"/>
 <path d="M3503 6976 c-27 -24 -28 -24 -9 -45 24 -26 24 -26 61 3 30 24 30 24 11 45 -24 27 -29 26 -63 -3z"/>
 <path d="M5976 6958 c-18 -25 -14 -33 25 -54 24 -12 34 -13 45 -3 21 17 17 35 -12 58 -33 26 -39 26 -58 -1z"/>
 <path d="M1811 6603 c-36 -44 -38 -54 -12 -77 18 -16 20 -15 50 21 36 44 38 54 12 77 -18 16 -20 15 -50 -21z"/>
 <path d="M7652 6604 c-22 -15 -22 -16 -5 -45 10 -17 27 -39 39 -50 20 -19 21 -19 38 0 16 17 16 22 3 48 -8 15 -24 36 -34 45 -17 16 -21 16 -41 2z"/>
 <path d="M1722 6465 c-29 -36 -36 -63 -22 -80 20 -25 38 -17 66 27 20 31 24 46 17 57 -16 26 -39 24 -61 -4z"/>
 <path d="M7744 6459 c-17 -19 -17 -21 1 -55 29 -53 42 -61 66 -37 l21 20 -26 41 c-33 52 -40 56 -62 31z"/>
 <path d="M1648 6332 c-9 -9 -23 -31 -32 -49 -15 -31 -15 -33 6 -47 26 -19 41 -9 68 45 20 37 18 43 -16 62 -6 4 -18 -1 -26 -11z"/>
 <path d="M7826 6311 c-17 -18 -16 -21 3 -59 27 -53 39 -59 63 -34 l21 20 -24 43 c-28 51 -40 56 -63 30z"/>
 <path d="M1566 6178 c-35 -54 -41 -78 -24 -95 23 -22 44 -11 68 37 22 43 20 54 -10 70 -16 8 -22 6 -34 -12z"/>
 <path d="M7905 6160 c-15 -17 -16 -24 -5 -49 6 -16 20 -37 31 -47 18 -16 20 -16 39 1 19 17 19 18 0 54 -28 56 -43 65 -65 41z"/>
 <path d="M1497 6022 c-8 -9 -21 -30 -27 -47 -10 -26 -9 -32 11 -48 27 -21 39 -13 62 45 14 33 14 38 -2 52 -22 20 -24 20 -44 -2z"/>
 <path d="M7971 6006 c-16 -19 0 -75 28 -100 17 -15 20 -15 39 1 l21 18 -22 45 c-23 48 -46 60 -66 36z"/>
 <path d="M1426 5858 c-24 -38 -29 -73 -12 -87 22 -19 43 -7 63 34 13 27 15 40 7 53 -17 26 -41 26 -58 0z"/>
 <path d="M7076 5851 c-16 -18 -17 -25 -8 -46 14 -31 37 -41 57 -25 21 17 19 35 -8 65 l-22 27 -19 -21z"/>
 <path d="M8030 5845 c-14 -17 -1 -67 27 -97 15 -17 17 -17 35 -2 23 22 23 41 -2 82 -21 35 -41 40 -60 17z"/>
 <path d="M2350 5778 c-24 -40 -24 -41 -1 -62 23 -21 36 -15 56 25 17 32 14 43 -16 59 -16 9 -22 6 -39 -22z"/>
 <path d="M7127 5753 c-22 -25 -22 -35 4 -67 20 -26 22 -26 40 -10 25 22 24 37 -4 69 -22 26 -23 26 -40 8z"/>
 <path d="M1377 5702 c-27 -30 -32 -75 -9 -95 18 -16 20 -16 34 0 25 29 40 84 27 99 -16 19 -33 17 -52 -4z"/>
 <path d="M2300 5668 c-20 -32 -20 -33 0 -52 19 -19 20 -19 39 -2 27 25 35 54 21 71 -19 23 -39 18 -60 -17z"/>
 <path d="M8088 5684 c-13 -13 -14 -22 -5 -50 6 -19 19 -41 29 -51 17 -15 19 -15 37 1 16 15 18 23 9 54 -17 62 -39 77 -70 46z"/>
 <path d="M7168 5643 c-18 -20 -11 -50 16 -73 15 -12 20 -10 39 8 l21 22 -20 27 c-26 34 -37 38 -56 16z"/>
 <path d="M2267 5582 c-25 -28 -25 -62 0 -79 21 -14 23 -13 43 19 23 38 22 46 -6 65 -18 11 -23 11 -37 -5z"/>
 <path d="M1326 5537 c-36 -54 -13 -132 28 -98 24 20 40 89 25 107 -17 20 -36 17 -53 -9z"/>
 <path d="M7212 5545 c-18 -13 -19 -19 -11 -45 16 -44 32 -54 58 -33 18 15 21 23 13 44 -16 40 -35 51 -60 34z"/>
 <path d="M8136 5521 c-14 -16 -15 -23 -4 -56 16 -47 40 -64 63 -45 18 15 13 59 -11 98 -18 27 -26 28 -48 3z"/>
 <path d="M2228 5473 c-25 -30 -28 -50 -8 -68 24 -22 47 -13 60 21 8 21 7 31 -6 45 -21 23 -27 24 -46 2z"/>
 <path d="M7246 5431 c-16 -17 -16 -23 -4 -48 15 -32 45 -37 62 -10 8 13 7 24 -4 44 -20 34 -33 38 -54 14z"/>
 <path d="M1286 5368 c-27 -44 -28 -75 -4 -92 20 -14 24 -14 39 0 9 8 19 31 22 51 10 59 -28 86 -57 41z"/>
 <path d="M2192 5367 c-6 -6 -13 -24 -17 -39 -8 -30 -3 -29 -210 -48 -183 -17 -561 -86 -639 -116 -15 -6 -17 -3 -12 13 4 13 -1 26 -14 38 -19 17 -21 17 -40 0 -11 -10 -20 -31 -20 -46 0 -26 -5 -29 -87 -54 -108 -33 -327 -118 -446 -173 -204 -95 -548 -309 -555 -345 -5 -27 21 -51 143 -132 265 -174 600 -332 875 -414 l75 -23 2 -46 c3 -54 24 -82 51 -66 12 8 17 24 16 51 l-1 40 71 -18 c169 -44 471 -93 705 -115 63 -5 77 -10 97 -33 22 -25 22 -25 43 -7 11 10 19 21 17 25 -2 3 76 5 173 3 222 -4 217 -6 165 110 -71 159 -192 367 -271 466 -28 35 -33 48 -28 72 5 22 1 37 -14 56 -12 15 -21 33 -21 40 0 8 20 42 45 76 104 140 222 354 291 523 25 62 30 83 21 94 -9 11 -46 13 -189 9 l-178 -5 6 24 c10 40 -30 70 -54 40z"/>
 <path d="M8172 5357 c-16 -18 -3 -83 19 -103 18 -16 20 -16 39 1 21 19 19 51 -6 93 -16 25 -36 28 -52 9z"/>
 <path d="M7281 5328 c-9 -10 -76 -13 -266 -13 -218 0 -256 -2 -270 -16 -14 -14 -12 -26 30 -130 122 -304 324 -601 569 -836 69 -67 126 -125 126 -131 0 -5 -9 -17 -20 -27 -12 -11 -18 -25 -15 -36 4 -13 -22 -51 -87 -129 -80 -97 -93 -116 -90 -143 6 -60 52 -75 71 -24 9 22 17 24 177 41 194 20 402 55 559 92 61 15 126 29 145 31 19 3 40 9 45 13 6 4 55 22 110 40 306 98 624 254 898 438 73 50 77 55 77 90 0 36 -3 39 -98 101 -274 182 -573 327 -868 422 -88 29 -103 37 -112 61 -11 31 -36 36 -62 13 -15 -13 -27 -12 -116 9 -192 48 -453 89 -634 101 -69 5 -102 12 -122 26 -32 23 -31 22 -47 7z"/>
 <path d="M8193 3958 c-6 -7 -13 -29 -17 -49 -5 -28 -2 -39 14 -54 18 -17 22 -17 36 -4 21 21 30 85 14 104 -15 18 -34 19 -47 3z"/>
 <path d="M1281 3856 c-15 -18 1 -87 24 -106 23 -19 57 14 49 49 -14 61 -48 87 -73 57z"/>
 <path d="M2212 3798 c-17 -17 -15 -42 7 -69 l20 -24 21 21 c20 20 21 24 9 50 -16 32 -38 41 -57 22z"/>
 <path d="M8162 3797 c-5 -6 -15 -30 -21 -52 -10 -36 -9 -42 10 -58 28 -22 45 -9 59 44 12 43 9 54 -20 69 -12 7 -21 6 -28 -3z"/>
 <path d="M7248 3783 c-25 -29 -30 -59 -12 -74 19 -16 43 -3 61 32 10 19 9 27 -4 41 -20 22 -26 22 -45 1z"/>
 <path d="M1325 3690 c-16 -18 -16 -23 -4 -56 18 -47 41 -63 64 -44 18 15 13 59 -11 98 -18 27 -26 28 -49 2z"/>
 <path d="M2246 3691 c-16 -18 -16 -22 -2 -49 21 -41 30 -45 57 -23 l23 18 -20 33 c-24 41 -36 46 -58 21z"/>
 <path d="M7208 3673 c-25 -30 -28 -50 -8 -68 17 -15 22 -16 36 -4 25 20 36 59 23 75 -15 19 -33 18 -51 -3z"/>
 <path d="M8116 3621 c-25 -28 -32 -84 -11 -101 24 -20 47 -2 61 46 9 32 9 42 -4 57 -19 22 -25 21 -46 -2z"/>
 <path d="M2288 3583 c-18 -20 -11 -50 16 -73 15 -12 20 -10 39 8 l21 22 -20 27 c-26 34 -37 38 -56 16z"/>
 <path d="M7168 3573 c-25 -28 -30 -59 -13 -73 19 -16 40 -8 61 25 16 24 16 27 -1 45 -22 24 -28 25 -47 3z"/>
 <path d="M2589 3443 c-251 -259 -437 -493 -610 -769 l-77 -123 -26 39 c-30 46 -36 48 -61 20 -18 -20 -18 -21 13 -63 17 -23 35 -41 41 -40 5 2 -30 -79 -79 -180 -137 -282 -225 -541 -286 -836 l-27 -132 22 -23 c22 -23 23 -23 99 -9 310 58 657 175 942 318 l105 53 24 -20 c24 -19 25 -19 44 1 17 17 18 22 7 36 -7 8 -11 17 -9 19 2 2 54 34 114 71 177 110 328 220 548 400 20 17 85 76 144 131 126 120 126 122 -5 153 -202 46 -332 60 -578 61 l-190 1 12 72 c45 256 38 630 -15 866 -19 86 -25 84 -152 -46z"/>
 <path d="M1370 3525 c-10 -12 -10 -24 -1 -54 15 -53 31 -65 60 -45 25 18 23 48 -5 92 -17 26 -36 28 -54 7z"/>
 <path d="M2335 3480 c-15 -17 -16 -24 -7 -45 16 -35 40 -42 63 -19 18 19 18 20 -1 52 -23 37 -30 39 -55 12z"/>
 <path d="M7110 3448 l-20 -33 21 -18 c20 -16 23 -16 40 -1 25 23 33 52 19 69 -19 23 -39 18 -60 -17z"/>
 <path d="M8068 3463 c-8 -10 -20 -32 -26 -50 -9 -27 -7 -34 9 -49 18 -16 20 -16 37 -1 10 10 23 33 29 51 9 29 8 37 -6 50 -22 20 -25 20 -43 -1z"/>
 <path d="M2386 3381 c-20 -22 -15 -50 13 -75 17 -15 20 -15 41 2 25 20 20 41 -17 75 -19 16 -21 16 -37 -2z"/>
 <path d="M1420 3366 c-9 -12 -7 -24 8 -59 25 -55 34 -61 62 -39 19 16 20 20 9 47 -26 61 -55 79 -79 51z"/>
 <path d="M6962 3367 c-18 -21 -100 -275 -122 -374 -26 -119 -50 -309 -50 -394 l0 -69 -44 0 c-25 0 -47 -4 -50 -8 -3 -5 -70 -12 -149 -15 -222 -10 -546 -69 -594 -109 -12 -9 -6 -20 33 -59 25 -25 51 -57 58 -70 6 -13 21 -26 33 -29 13 -3 55 -32 95 -66 167 -140 434 -330 578 -411 l50 -28 -43 -36 c-42 -36 -42 -37 -23 -58 20 -22 29 -20 81 23 29 23 29 25 13 43 -10 10 51 -16 135 -58 270 -136 523 -227 822 -295 171 -39 205 -41 228 -16 14 16 14 25 -3 112 -62 319 -195 706 -327 949 -44 81 -45 85 -30 111 16 26 15 28 -3 45 -15 14 -23 15 -33 6 -11 -9 -27 10 -80 97 -92 151 -220 328 -347 482 l-110 132 26 30 c28 34 28 55 1 72 -15 9 -22 7 -37 -12 -10 -12 -20 -28 -23 -35 -3 -8 -17 0 -39 21 -29 27 -37 30 -46 19z"/>
 <path d="M8011 3307 c-6 -8 -17 -30 -25 -49 -14 -33 -14 -37 4 -53 24 -22 44 -9 66 43 13 32 13 37 -2 54 -20 21 -28 22 -43 5z"/>
 <path d="M1492 3213 l-22 -18 20 -43 c22 -48 45 -62 67 -39 13 12 13 21 4 50 -7 19 -20 42 -30 51 -17 15 -20 15 -39 -1z"/>
 <path d="M7941 3147 c-6 -8 -17 -30 -26 -50 -14 -34 -14 -37 7 -51 20 -14 24 -14 40 0 27 25 43 81 28 99 -15 19 -34 19 -49 2z"/>
 <path d="M1558 3053 c-16 -15 -16 -19 2 -53 27 -53 42 -63 68 -44 21 14 21 16 6 47 -18 35 -43 67 -53 67 -4 0 -14 -7 -23 -17z"/>
 <path d="M7872 2998 c-5 -7 -17 -28 -27 -47 -16 -32 -16 -34 3 -54 24 -24 36 -17 63 35 19 38 19 41 3 59 -20 22 -28 24 -42 7z"/>
 <path d="M1638 2903 c-16 -15 -16 -19 2 -53 27 -53 42 -63 68 -44 21 14 21 16 6 47 -18 35 -43 67 -53 67 -4 0 -14 -7 -23 -17z"/>
 <path d="M7775 2823 c-30 -45 -31 -55 -6 -77 18 -17 20 -16 44 16 39 53 40 58 21 79 -24 26 -30 24 -59 -18z"/>
 <path d="M1720 2755 c-14 -17 -8 -41 23 -79 16 -20 29 -27 41 -23 28 11 29 33 2 76 -28 43 -46 50 -66 26z"/>
 <path d="M7681 2666 c-30 -43 -30 -44 -11 -61 19 -18 21 -17 44 4 38 35 51 67 36 86 -20 25 -37 18 -69 -29z"/>
 <path d="M4033 2278 c-4 -7 -6 -59 -4 -115 2 -85 0 -103 -11 -103 -8 0 -23 -9 -33 -20 -21 -23 -9 -44 29 -54 21 -5 24 -13 30 -93 16 -202 69 -516 117 -696 21 -75 21 -78 3 -98 -21 -24 -10 -52 23 -57 15 -2 26 -23 47 -90 93 -288 281 -665 453 -907 28 -39 37 -45 67 -45 33 0 39 6 84 73 347 514 547 1082 617 1750 14 140 17 149 43 173 l27 24 -25 23 c-22 19 -25 29 -22 75 7 94 -2 93 -155 -10 -159 -107 -237 -169 -355 -284 l-87 -84 -29 25 c-37 31 -40 31 -74 -2 l-28 -27 -100 102 c-164 167 -329 296 -527 410 -80 47 -79 47 -90 30z"/>
 <path d="M3465 2258 c-15 -22 -14 -24 12 -46 32 -25 51 -25 67 1 9 15 6 23 -17 43 -35 30 -42 30 -62 2z"/>
 <path d="M5963 2246 c-27 -24 -27 -24 -9 -45 17 -19 21 -19 47 -6 38 20 44 33 23 56 -22 24 -27 24 -61 -5z"/>
 <path d="M3565 2207 c-15 -21 -14 -23 10 -44 30 -27 48 -29 65 -8 17 20 7 41 -29 59 -28 15 -31 15 -46 -7z"/>
 <path d="M5866 2199 c-29 -23 -33 -41 -12 -58 11 -10 21 -9 45 3 40 21 46 34 25 57 -21 24 -25 24 -58 -2z"/>
 <path d="M3670 2165 c-16 -19 -8 -40 25 -61 24 -16 27 -16 45 1 27 25 25 32 -12 55 -40 24 -42 24 -58 5z"/>
 <path d="M5756 2149 c-26 -20 -26 -22 -9 -41 19 -21 57 -18 82 7 13 13 12 17 -4 35 -23 25 -36 25 -69 -1z"/>
 <path d="M3774 2119 c-22 -25 -11 -48 30 -62 21 -7 32 -6 43 6 20 20 11 42 -25 61 -28 14 -31 14 -48 -5z"/>
 <path d="M5653 2106 l-28 -25 20 -20 c17 -17 23 -19 44 -8 35 18 48 42 32 61 -19 22 -35 20 -68 -8z"/>
 <path d="M3879 2084 c-17 -21 -6 -48 25 -63 26 -12 30 -11 49 8 20 19 20 21 3 40 -22 24 -63 32 -77 15z"/>
 <path d="M5554 2080 c-33 -13 -38 -29 -18 -51 20 -22 57 -19 83 6 13 13 12 17 -4 35 -20 22 -29 23 -61 10z"/>
 <path d="M2762 1658 c-21 -21 -13 -36 32 -67 l44 -30 18 20 c19 21 19 22 -20 55 -42 37 -55 41 -74 22z"/>
 <path d="M6627 1614 c-44 -29 -54 -48 -37 -69 18 -22 33 -19 76 19 39 34 39 35 19 54 -20 20 -20 20 -58 -4z"/>
 <path d="M2904 1559 c-19 -21 -19 -21 11 -45 44 -35 64 -39 87 -16 l21 20 -43 31 c-51 37 -52 37 -76 10z"/>
 <path d="M6489 1530 c-19 -10 -41 -26 -49 -35 -11 -14 -10 -19 7 -36 l20 -21 41 26 c52 32 56 40 34 64 -17 21 -17 21 -53 2z"/>
 <path d="M3055 1480 c-17 -19 -17 -21 1 -41 10 -12 31 -27 45 -35 24 -12 28 -11 44 6 17 18 17 21 2 38 -9 9 -29 25 -45 34 -28 17 -30 17 -47 -2z"/>
 <path d="M6329 1444 c-45 -23 -52 -38 -31 -64 16 -20 21 -21 43 -10 13 7 34 22 46 33 22 19 22 22 6 39 -19 21 -28 21 -64 2z"/>
 <path d="M3199 1404 c-17 -21 -3 -43 44 -69 34 -19 38 -19 53 -3 23 23 12 43 -35 68 -48 24 -45 24 -62 4z"/>
 <path d="M6178 1370 c-48 -26 -54 -38 -31 -62 20 -20 20 -20 61 1 51 26 55 33 36 59 -18 26 -19 26 -66 2z"/>
 <path d="M3355 1330 c-22 -24 -9 -44 44 -66 32 -13 36 -13 54 5 24 23 17 35 -33 61 -48 24 -43 24 -65 0z"/>
 <path d="M6025 1306 c-48 -21 -59 -39 -38 -64 18 -20 18 -20 61 -1 47 20 61 41 42 64 -15 18 -26 18 -65 1z"/>
 <path d="M3509 1264 c-18 -22 -2 -44 47 -61 36 -13 40 -12 56 8 22 26 16 37 -28 55 -43 18 -59 18 -75 -2z"/>
 <path d="M5862 1245 c-39 -17 -50 -41 -29 -62 12 -13 21 -13 50 -4 46 16 64 37 50 59 -14 23 -31 24 -71 7z"/>
 <path d="M3670 1215 c-19 -23 -3 -46 44 -64 35 -13 39 -13 58 6 23 24 17 40 -18 54 -53 19 -70 20 -84 4z"/>
 <path d="M5704 1199 c-47 -14 -58 -32 -36 -59 17 -21 22 -22 54 -11 47 16 65 37 51 59 -12 21 -29 23 -69 11z"/>
 <path d="M3830 1165 c-20 -24 -2 -47 48 -61 36 -11 42 -10 58 7 17 19 17 21 -2 39 -28 27 -87 36 -104 15z"/>
 <path d="M5546 1156 c-49 -14 -67 -39 -45 -62 21 -20 80 -10 105 17 17 19 17 21 -2 38 -16 16 -24 17 -58 7z"/>
 <path d="M3997 1123 c-16 -19 -16 -21 3 -38 26 -24 89 -26 103 -3 26 40 -72 78 -106 41z"/>
 <path d="M5371 1121 c-34 -9 -48 -35 -32 -55 18 -22 64 -20 92 3 20 16 22 23 13 38 -12 20 -37 25 -73 14z"/>
 </g>
 
 

</svg>
