<!DOCTYPE svg PUBLIC "-//W3C//DTD SVG 20010904//EN" "http://www.w3.org/TR/2001/REC-SVG-20010904/DTD/svg10.dtd">
<svg version="1.0" xmlns="http://www.w3.org/2000/svg" width="900px" height="600px" viewBox="0 0 9000 6000" preserveAspectRatio="xMidYMid meet">
<g id="layer1" fill="#e7eaff" stroke="none">
 <path d="M0 3000 l0 -3000 4500 0 4500 0 0 3000 0 3000 -4500 0 -4500 0 0 -3000z m1183 2859 c21 -16 31 -18 46 -10 51 28 133 -6 157 -64 10 -24 9 -38 -1 -68 -19 -57 -42 -77 -85 -77 l-38 0 -6 -87 c-3 -49 -8 -573 -12 -1165 l-6 -1077 28 -7 c44 -10 74 -43 74 -79 0 -28 5 -33 68 -60 153 -66 267 -261 247 -421 -7 -60 -77 -247 -119 -318 -49 -84 -188 -176 -267 -176 -38 0 -58 -13 -39 -25 21 -13 10 -66 -19 -96 -33 -32 -65 -37 -98 -14 -14 10 -32 13 -47 9 -61 -15 -95 30 -72 97 14 39 13 40 -10 50 -139 52 -227 129 -286 250 -61 123 -65 150 -41 274 26 128 64 212 130 279 56 57 151 122 193 131 26 6 30 11 30 40 0 39 25 61 77 71 l33 6 0 102 c0 55 7 520 15 1031 8 512 15 985 15 1052 l0 122 -28 -1 c-66 -2 -107 53 -97 130 10 73 15 82 48 103 41 25 78 24 110 -2z"/>
 <path d="M1030 3111 c-90 -28 -187 -117 -240 -221 -31 -60 -50 -147 -50 -219 1 -107 82 -202 239 -279 l96 -47 115 3 c100 3 120 6 156 27 54 32 93 77 142 166 61 111 74 167 66 274 -12 168 -63 227 -235 275 -95 26 -109 26 -109 -2 0 -42 31 -173 46 -196 43 -65 83 -79 102 -37 27 60 2 127 -39 105 -23 -13 -24 -37 -3 -62 16 -16 15 -18 -1 -24 -39 -16 -62 68 -27 99 10 10 33 17 50 17 44 0 66 -36 60 -95 -12 -100 -71 -126 -135 -59 -19 20 -35 35 -37 33 -1 -2 -8 -22 -14 -44 -22 -74 -119 -155 -186 -155 -31 0 -92 52 -100 85 -16 64 59 135 143 135 46 0 71 -26 71 -72 0 -51 -69 -92 -78 -46 -2 11 5 18 20 20 18 2 23 9 23 33 0 29 -1 30 -49 29 -42 0 -53 -5 -77 -32 -37 -41 -36 -56 1 -94 27 -26 36 -30 68 -25 76 13 163 140 149 216 -3 14 -10 52 -15 83 -6 31 -18 70 -27 87 -14 28 -20 31 -58 30 -23 0 -53 -4 -67 -8z"/>
 </g>
<g id="layer2" fill="#444445" stroke="none">
 <path d="M1073 5861 c-33 -21 -38 -30 -48 -103 -10 -77 31 -132 97 -130 l28 1 0 -122 c0 -67 -7 -540 -15 -1052 -8 -511 -15 -976 -15 -1031 l0 -102 -33 -6 c-52 -10 -77 -32 -77 -71 0 -29 -4 -34 -30 -40 -42 -9 -137 -74 -193 -131 -66 -67 -104 -151 -130 -279 -24 -124 -20 -151 41 -274 59 -121 147 -198 286 -250 23 -10 24 -11 10 -50 -23 -67 11 -112 72 -97 15 4 33 1 47 -9 33 -23 65 -18 98 14 29 30 40 83 19 96 -19 12 1 25 39 25 79 0 218 92 267 176 42 71 112 258 119 318 20 160 -94 355 -247 421 -63 27 -68 32 -68 60 0 36 -30 69 -74 79 l-28 7 6 1077 c4 592 9 1116 12 1165 l6 87 38 0 c43 0 66 20 85 77 10 30 11 44 1 68 -24 58 -106 92 -157 64 -15 -8 -25 -6 -46 10 -32 26 -69 27 -110 2z m82 -2772 c9 -17 21 -56 27 -87 5 -31 12 -69 15 -83 14 -76 -73 -203 -149 -216 -32 -5 -41 -1 -68 25 -37 38 -38 53 -1 94 24 27 35 32 77 32 48 1 49 0 49 -29 0 -24 -5 -31 -23 -33 -15 -2 -22 -9 -20 -20 9 -46 78 -5 78 46 0 46 -25 72 -71 72 -84 0 -159 -71 -143 -135 8 -33 69 -85 100 -85 67 0 164 81 186 155 6 22 13 42 14 44 2 2 18 -13 37 -33 64 -67 123 -41 135 59 6 59 -16 95 -60 95 -17 0 -40 -7 -50 -17 -35 -31 -12 -115 27 -99 16 6 17 8 1 24 -21 25 -20 49 3 62 41 22 66 -45 39 -105 -19 -42 -59 -28 -102 37 -15 23 -46 154 -46 196 0 28 14 28 109 2 172 -48 223 -107 235 -275 8 -107 -5 -163 -66 -274 -49 -89 -88 -134 -142 -166 -36 -21 -56 -24 -156 -27 l-115 -3 -96 47 c-157 77 -238 172 -239 279 0 124 43 234 130 332 70 78 142 114 227 116 38 1 44 -2 58 -30z"/>
 </g>

</svg>