<!DOCTYPE svg PUBLIC "-//W3C//DTD SVG 20010904//EN" "http://www.w3.org/TR/2001/REC-SVG-20010904/DTD/svg10.dtd">
<svg version="1.0" xmlns="http://www.w3.org/2000/svg" viewBox="0 0 1960 1840" preserveAspectRatio="none">
<g id="layer1" fill="#cedecb" stroke="none">
 <path d="M1355 1141 c-49 -30 -320 -312 -348 -361 -14 -25 -32 -69 -41 -98 -8 -29 -18 -57 -21 -62 -3 -5 -46 6 -98 24 -278 101 -652 124 -723 45 -35 -39 -21 -136 22 -153 10 -4 61 -4 114 0 102 7 170 0 170 -17 0 -6 -9 -29 -19 -52 -10 -23 -27 -68 -37 -100 -15 -50 -16 -64 -5 -107 7 -27 21 -66 32 -87 10 -20 19 -43 19 -51 0 -24 61 -89 100 -107 31 -14 45 -15 67 -7 15 5 62 20 103 32 41 12 84 26 95 31 11 4 45 18 75 29 30 12 84 43 120 69 92 67 87 66 128 34 151 -115 301 -168 477 -167 104 0 146 15 187 66 46 58 50 133 14 252 -41 134 -126 286 -160 286 -10 0 -27 11 -140 86 -55 36 -65 39 -128 39 -37 0 -68 1 -68 2 0 13 130 189 164 223 42 40 46 48 46 92 0 37 -5 50 -22 62 -30 22 -87 20 -123 -3z"/>
 </g>
<g id="layer2" fill="#bad7b3" stroke="none">
 <path d="M310 1400 c-155 -9 -289 -25 -298 -35 -4 -4 -7 -75 -6 -158 0 -173 14 -239 64 -312 32 -46 168 -157 215 -175 15 -6 69 -10 121 -10 112 0 266 -31 425 -87 58 -20 112 -34 121 -31 9 4 25 37 37 75 29 96 61 138 228 305 160 160 190 180 232 157 47 -26 41 -64 -22 -128 -66 -68 -180 -238 -173 -258 4 -11 15 -12 43 -6 71 15 111 7 171 -33 115 -76 128 -84 143 -84 47 0 178 127 243 235 47 76 95 246 99 345 l2 45 -46 11 c-150 38 -578 105 -825 130 -182 18 -591 25 -774 14z"/>
 <path d="M104 636 c-4 -10 -2 -22 4 -28 8 -8 13 -7 18 6 4 10 2 22 -4 28 -8 8 -13 7 -18 -6z"/>
 <path d="M1676 545 c4 -8 12 -15 20 -15 8 0 11 6 8 15 -4 8 -12 15 -20 15 -8 0 -11 -6 -8 -15z"/>
 <path d="M420 542 c0 -4 9 -8 20 -9 11 -1 20 2 20 5 0 4 -9 8 -20 9 -11 1 -20 -2 -20 -5z"/>
 <path d="M1753 400 c1 -11 5 -20 9 -20 3 0 6 9 5 20 -1 11 -5 20 -9 20 -3 0 -6 -9 -5 -20z"/>
 <path d="M383 380 c-1 -11 2 -20 5 -20 4 0 8 9 9 20 1 11 -2 20 -5 20 -4 0 -8 -9 -9 -20z"/>
 <path d="M1055 251 c-3 -6 3 -15 14 -21 12 -6 22 -6 26 -1 3 6 -3 15 -14 21 -12 6 -22 6 -26 1z"/>
 <path d="M446 92 c-3 -6 1 -15 8 -21 8 -7 17 -8 20 -3 3 6 -1 15 -8 21 -8 7 -17 8 -20 3z"/>
 <path d="M715 71 c-7 -12 12 -24 25 -16 11 7 4 25 -10 25 -5 0 -11 -4 -15 -9z"/>
 </g>

</svg>
