<!DOCTYPE svg PUBLIC "-//W3C//DTD SVG 20010904//EN" "http://www.w3.org/TR/2001/REC-SVG-20010904/DTD/svg10.dtd">
<svg version="1.0" xmlns="http://www.w3.org/2000/svg" width="251px" height="271px" viewBox="0 0 2510 2710" preserveAspectRatio="xMidYMid meet">
<g id="layer1" fill="#9caa9f" stroke="none">
 <path d="M2375 2637 c-309 -196 -772 -501 -782 -515 -9 -11 -13 -65 -13 -184 0 -139 2 -168 14 -168 8 0 17 8 20 18 9 27 107 119 236 221 97 78 146 107 316 191 263 130 328 145 337 77 2 -18 4 69 3 193 -1 194 -3 225 -16 228 -9 1 -61 -26 -115 -61z"/>
 <path d="M2310 1668 c-29 -48 -33 -71 -21 -128 6 -28 8 -68 5 -88 -10 -69 35 -94 70 -39 18 27 30 240 14 270 -14 27 -46 20 -68 -15z"/>
 <path d="M2502 1072 c-2 -48 -8 -60 -56 -120 -118 -148 -277 -307 -371 -372 -76 -52 -228 -122 -299 -137 -39 -8 -98 -13 -131 -11 l-60 3 -3 -217 c-3 -236 -2 -237 51 -205 168 103 852 556 863 572 12 18 14 69 11 281 -1 142 -3 235 -5 206z"/>
 </g>
<g id="layer2" fill="#c4d2c7" stroke="none">
 <path d="M2406 2329 c-21 -5 -129 -54 -240 -109 -170 -84 -219 -113 -316 -191 -131 -104 -235 -202 -256 -241 -12 -23 -14 -136 -14 -692 0 -648 1 -666 19 -676 76 -40 316 30 476 140 97 67 287 257 386 386 l40 52 0 662 c0 529 -3 665 -13 672 -16 9 -31 9 -82 -3z m-43 -772 c-3 -116 -13 -162 -36 -154 -7 2 -11 19 -10 38 1 19 -3 62 -9 97 -9 54 -8 69 7 103 12 26 24 39 34 37 14 -3 16 -21 14 -121z"/>
 <path d="M2495 600 c-4 -12 -5 -24 -2 -27 3 -2 8 5 12 17 4 12 5 24 2 27 -3 2 -8 -5 -12 -17z"/>
 </g>

</svg>