<!DOCTYPE svg PUBLIC "-//W3C//DTD SVG 20010904//EN" "http://www.w3.org/TR/2001/REC-SVG-20010904/DTD/svg10.dtd">
<svg version="1.0" xmlns="http://www.w3.org/2000/svg" viewBox="0 0 1960 1840" preserveAspectRatio="none">
<g id="layer1" fill="#8db185" stroke="none">
 <path d="M335 1290 c-165 -11 -308 -29 -318 -40 -4 -6 -4 -8 0 -5 3 3 14 -2 23 -10 26 -23 282 -72 438 -84 592 -44 1081 -54 1392 -26 14 1 39 3 55 4 l30 3 -30 8 c-112 33 -656 116 -910 140 -150 14 -534 20 -680 10z"/>
 </g>
<g id="layer2" fill="#e8ffe3" stroke="none">
 <path d="M445 1820 c-226 -48 -344 -173 -403 -425 -26 -112 -31 -146 -22 -140 5 3 70 12 147 21 175 21 653 24 838 6 272 -27 795 -107 923 -142 41 -11 41 -2 7 122 -40 141 -107 274 -165 329 -90 84 -344 192 -515 217 -89 14 -757 24 -810 12z"/>
 <path d="M1188 1103 c29 -2 74 -2 100 0 26 2 2 3 -53 3 -55 0 -76 -1 -47 -3z"/>
 <path d="M1358 1103 c12 -2 30 -2 40 0 9 3 -1 5 -23 4 -22 0 -30 -2 -17 -4z"/>
 <path d="M1458 1103 c23 -2 61 -2 85 0 23 2 4 4 -43 4 -47 0 -66 -2 -42 -4z"/>
 </g>

</svg>
