<!DOCTYPE svg PUBLIC "-//W3C//DTD SVG 20010904//EN" "http://www.w3.org/TR/2001/REC-SVG-20010904/DTD/svg10.dtd">
<svg version="1.0" xmlns="http://www.w3.org/2000/svg" width="149px" height="146px" viewBox="0 0 1490 1460" preserveAspectRatio="xMidYMid meet">
<g id="layer1" fill="#8d8779" stroke="none">
 <path d="M734 1078 c-6 -9 -4 -10 26 -11 11 -1 19 3 18 8 -4 12 -37 14 -44 3z"/>
 <path d="M817 1043 c-8 -15 -2 -63 8 -63 12 0 16 58 5 65 -5 3 -10 2 -13 -2z"/>
 <path d="M686 981 c-4 -5 -2 -12 4 -16 6 -4 8 -11 4 -16 -3 -5 -10 -7 -15 -4 -5 4 -26 -7 -46 -24 -21 -17 -43 -31 -49 -31 -6 0 -19 -9 -29 -20 -16 -18 -16 -20 -1 -26 20 -8 49 3 41 15 -6 11 30 25 43 17 5 -3 26 12 46 33 24 25 34 41 27 46 -6 3 -9 10 -6 15 3 5 1 11 -4 14 -5 4 -12 2 -15 -3z"/>
 <path d="M735 949 c-4 -5 1 -11 9 -14 9 -3 24 -8 34 -12 9 -3 21 -5 25 -4 5 1 6 -3 3 -8 -3 -5 1 -14 9 -21 12 -10 12 -15 1 -33 -17 -29 -13 -63 9 -87 26 -29 38 -13 14 19 -17 23 -19 32 -10 50 7 11 9 21 5 21 -3 0 -1 7 6 15 7 8 16 13 20 10 5 -3 11 -1 15 4 6 10 -34 37 -48 33 -5 -1 -6 2 -3 7 4 5 1 13 -5 17 -19 11 -78 14 -84 3z"/>
 <path d="M454 870 c-30 -12 -66 -61 -60 -82 3 -13 -5 -23 -25 -33 -35 -18 -48 -41 -44 -77 4 -34 14 -50 26 -43 5 4 5 14 -1 26 -14 26 0 51 45 79 20 12 34 25 31 28 -8 8 34 62 48 62 17 0 48 35 39 43 -8 9 -33 8 -59 -3z"/>
 <path d="M916 872 c-3 -5 3 -17 13 -26 11 -10 22 -13 25 -8 3 5 -3 17 -13 26 -11 10 -22 13 -25 8z"/>
 <path d="M709 855 c-9 -9 5 -80 16 -80 16 0 17 48 3 68 -8 10 -16 16 -19 12z"/>
 <path d="M931 806 c-7 -8 -8 -17 -3 -20 6 -3 15 1 21 8 7 8 8 17 3 20 -6 3 -15 -1 -21 -8z"/>
 <path d="M556 788 c-21 -29 -20 -41 2 -61 25 -23 69 -22 81 2 8 14 5 23 -14 41 -23 21 -30 20 -26 -3 1 -5 -3 -5 -9 -2 -6 4 -9 13 -6 21 9 24 -12 25 -28 2z"/>
 <path d="M971 791 c-11 -19 -3 -33 22 -37 4 -1 10 -2 13 -3 4 0 1 -8 -6 -16 -7 -8 -11 -15 -9 -16 39 -7 59 -4 79 11 22 17 23 19 7 25 -9 4 -24 2 -31 -4 -11 -10 -16 -8 -20 7 -4 11 -15 27 -25 37 -18 16 -20 16 -30 -4z"/>
 <path d="M676 761 c-4 -5 -2 -12 3 -15 5 -4 12 -2 15 3 4 5 2 12 -3 15 -5 4 -12 2 -15 -3z"/>
 <path d="M707 754 c-13 -13 -7 -33 12 -44 11 -5 22 -7 25 -2 6 11 -28 54 -37 46z"/>
 <path d="M1106 751 c-3 -5 5 -16 19 -25 27 -18 35 -66 13 -84 -20 -16 -53 -18 -69 -5 -8 6 -23 13 -34 15 -16 2 -20 -3 -20 -27 0 -33 19 -40 47 -17 11 9 18 10 23 3 11 -19 36 -12 66 18 36 36 37 60 3 100 -27 32 -39 37 -48 22z"/>
 <path d="M448 715 c-4 -4 -3 -18 3 -32 5 -13 9 -26 9 -28 0 -9 -57 -33 -72 -32 -9 1 -16 -2 -15 -8 3 -13 59 -16 74 -3 13 10 96 -5 118 -21 5 -4 24 -7 40 -7 22 1 29 6 27 17 -1 11 7 18 22 21 14 3 24 2 23 -1 -2 -6 11 -13 15 -8 1 1 -6 14 -16 29 -15 23 -21 25 -49 17 -60 -17 -147 -8 -147 15 0 18 -24 48 -32 41z m162 -105 c0 -5 -5 -10 -11 -10 -5 0 -7 5 -4 10 3 6 8 10 11 10 2 0 4 -4 4 -10z"/>
 <path d="M767 713 c-6 -10 49 -64 56 -56 9 9 -11 41 -33 53 -10 5 -21 7 -23 3z"/>
 <path d="M1005 700 c-4 -6 -3 -16 3 -22 6 -6 12 -6 17 2 4 6 3 16 -3 22 -6 6 -12 6 -17 -2z"/>
 <path d="M819 638 c-1 -5 -2 -12 -3 -18 0 -5 -5 -10 -11 -11 -21 -2 -45 -20 -40 -30 4 -6 13 -5 25 1 26 14 43 -9 24 -34 -8 -11 -14 -30 -14 -42 0 -13 -5 -26 -12 -30 -6 -4 -8 -3 -4 4 10 17 -9 23 -28 9 -15 -11 -16 -15 -4 -25 20 -16 62 -20 63 -5 0 6 3 15 8 19 4 4 7 18 7 31 0 13 12 35 26 48 24 22 24 30 2 26 -5 0 -8 5 -8 12 0 15 -29 56 -31 45z"/>
 <path d="M523 577 c-19 -24 -23 -36 -14 -41 5 -3 16 5 25 19 16 24 6 45 -11 22z"/>
 <path d="M691 572 c-5 -10 -12 -16 -15 -14 -3 1 -6 -1 -6 -5 0 -5 5 -9 10 -9 6 -1 13 -3 18 -4 4 -1 11 -2 16 -1 5 1 4 -5 -4 -13 -7 -9 -10 -17 -6 -17 3 -1 9 -2 14 -3 4 -1 13 -5 20 -9 12 -8 17 -1 12 18 -2 6 -6 23 -9 39 -7 33 -36 43 -50 18z"/>
 <path d="M926 581 c-4 -5 -2 -12 3 -15 5 -4 12 -2 15 3 4 5 2 12 -3 15 -5 4 -12 2 -15 -3z"/>
 <path d="M1005 570 c-4 -6 -1 -18 7 -27 9 -12 10 -15 0 -9 -7 4 -15 1 -18 -8 -3 -9 -10 -14 -14 -11 -18 11 -21 -17 -4 -36 14 -15 20 -17 32 -6 13 10 42 67 42 81 0 13 -39 26 -45 16z"/>
 <path d="M956 551 c-4 -5 -2 -12 3 -15 5 -4 12 -2 15 3 4 5 2 12 -3 15 -5 4 -12 2 -15 -3z"/>
 <path d="M506 501 c-10 -15 50 -75 65 -65 8 5 5 12 -9 23 -12 9 -28 25 -35 35 -10 13 -16 16 -21 7z"/>
 <path d="M660 491 c-6 -12 -6 -22 -1 -26 6 -3 15 3 21 14 6 12 6 22 1 26 -6 3 -15 -3 -21 -14z"/>
 <path d="M836 451 c-4 -5 -2 -12 3 -15 5 -4 12 -2 15 3 4 5 2 12 -3 15 -5 4 -12 2 -15 -3z"/>
 </g>
<g id="layer2" fill="#46443d" stroke="none">
 <path d="M696 1061 c-20 -20 -27 -37 -25 -57 2 -16 0 -35 -5 -42 -5 -8 -4 -18 2 -24 14 -14 24 6 29 56 3 28 12 48 29 62 13 11 21 23 18 27 -12 12 -19 8 -48 -22z"/>
 <path d="M776 1081 c-3 -5 5 -16 19 -25 29 -19 34 -66 10 -86 -12 -10 -13 -16 -4 -27 7 -7 14 -11 16 -9 3 2 3 6 2 8 -2 2 4 14 14 28 23 34 21 53 -9 89 -27 32 -39 37 -48 22z"/>
 <path d="M675 920 l-39 -40 32 -11 c18 -6 37 -20 43 -31 8 -15 14 -17 22 -8 9 9 4 18 -20 40 -29 26 -30 29 -15 43 9 8 25 17 35 20 19 7 14 27 -7 27 -6 0 -29 -18 -51 -40z"/>
 <path d="M767 942 c-4 -5 7 -22 23 -37 23 -22 27 -31 18 -42 -7 -9 -8 -17 -1 -24 7 -7 15 -2 26 14 15 23 14 26 -23 62 -21 20 -40 33 -43 27z"/>
 <path d="M611 914 c-23 -17 -47 -24 -78 -24 -54 0 -105 -21 -126 -51 -23 -32 -8 -47 15 -16 11 15 24 27 30 27 7 0 7 -5 -1 -13 -6 -8 -7 -18 -3 -22 4 -5 1 -5 -6 -1 -7 4 -15 1 -18 -9 -4 -9 -13 -14 -21 -11 -9 4 -17 -1 -20 -14 -3 -11 -11 -20 -18 -20 -23 0 -49 -41 -49 -77 0 -27 7 -42 32 -64 35 -32 68 -37 97 -15 14 10 26 11 44 5 25 -10 59 -4 48 8 -4 3 -2 12 4 19 9 11 7 15 -7 20 -46 14 -65 25 -60 33 3 5 -3 20 -14 34 -44 56 -12 107 67 107 47 0 51 -5 27 -31 -15 -17 -11 -45 6 -34 4 3 10 -1 13 -8 4 -11 26 -14 56 -8 2 1 -4 10 -14 21 -11 12 -25 18 -34 15 -11 -4 -10 -1 3 14 18 19 18 22 2 46 -9 14 -12 25 -6 25 18 0 90 52 84 61 -7 13 -15 10 -53 -17z m-146 -243 c-3 -2 0 -10 6 -18 6 -7 9 -14 5 -14 -12 -3 -21 -6 -38 -13 -78 -35 -136 73 -61 115 28 15 28 14 60 -25 18 -22 30 -42 28 -45z"/>
 <path d="M835 920 c-6 -9 9 -22 52 -44 31 -15 57 -6 31 11 -39 24 -79 40 -83 33z"/>
 <path d="M966 821 c-4 -5 -2 -13 4 -16 6 -4 22 -25 36 -47 19 -30 29 -37 37 -29 6 6 23 11 38 11 15 0 31 5 34 10 10 16 -25 24 -56 13 -24 -9 -29 -8 -34 6 -8 26 -52 64 -59 52z"/>
 <path d="M806 802 c-11 -19 29 -54 65 -57 25 -2 43 4 67 25 21 17 29 30 23 35 -6 3 -25 -5 -42 -20 -35 -29 -63 -26 -90 7 -10 13 -19 17 -23 10z"/>
 <path d="M725 779 c-3 -8 -22 -15 -42 -17 -38 -2 -66 -18 -58 -32 3 -5 19 -5 35 0 25 7 30 6 30 -9 0 -25 -28 -47 -70 -56 -46 -10 -53 -14 -41 -28 5 -7 11 -16 13 -22 1 -5 11 -10 20 -9 9 0 15 -3 13 -7 -3 -4 6 -14 19 -22 30 -20 38 -68 16 -97 -18 -24 -83 -43 -98 -28 -6 6 -12 6 -16 -1 -4 -6 -5 -12 -2 -12 3 -1 9 -2 14 -3 4 -1 13 -5 20 -9 31 -20 99 17 107 60 2 10 4 20 4 22 1 2 18 -12 40 -32 38 -34 91 -55 110 -43 5 4 12 2 16 -4 11 -18 64 -11 116 16 41 20 55 34 71 70 19 44 18 82 -2 69 -6 -4 -10 13 -10 44 0 27 -4 52 -10 56 -5 3 -7 11 -5 18 6 16 -33 80 -44 73 -5 -3 0 -24 12 -46 13 -27 20 -63 21 -103 1 -44 5 -61 14 -60 6 2 12 -4 12 -13 0 -13 -3 -14 -14 -5 -10 8 -16 9 -21 2 -3 -7 -16 0 -30 16 -18 22 -32 28 -66 29 -39 1 -45 4 -53 30 -19 63 -27 76 -64 92 -27 12 -36 22 -34 36 5 23 -15 45 -23 25z m47 -83 c19 -4 30 -15 34 -34 4 -15 13 -39 20 -53 12 -23 11 -29 -5 -44 -11 -9 -22 -27 -25 -41 -5 -20 -10 -23 -25 -15 -10 6 -21 19 -24 30 -5 20 18 32 77 40 5 0 3 7 -3 15 -9 11 -19 12 -44 3 -18 -5 -38 -11 -44 -13 -7 -2 -10 -10 -7 -18 3 -8 1 -17 -5 -21 -6 -3 -12 3 -12 14 -2 29 -3 33 -17 58 -7 13 -16 22 -20 22 -19 -3 -16 4 17 40 20 21 41 35 46 31 6 -4 22 -10 37 -14z m-87 -115 c-2 -1 -13 4 -25 12 -15 10 -18 16 -8 19 12 4 41 -22 33 -31z m263 -24 c6 -5 12 -17 12 -27 0 -10 6 -23 14 -29 11 -10 17 -7 30 11 17 23 20 21 10 -7 -12 -29 -156 -75 -170 -53 -3 4 -17 8 -32 8 -23 1 -25 2 -9 11 9 5 17 20 17 33 0 58 79 91 128 53z m-175 -86 c-1 -2 -9 1 -16 7 -8 7 -18 8 -22 4 -5 -4 -5 -2 -1 5 3 6 2 14 -4 18 -5 3 -10 10 -10 15 0 5 13 -3 28 -18 15 -15 26 -29 25 -31z"/>
 <path d="M546 742 c-3 -5 1 -15 9 -22 8 -7 15 -9 15 -5 0 4 7 2 15 -5 8 -6 19 -9 25 -5 13 8 2 27 -13 22 -7 -2 -19 2 -29 10 -9 8 -18 10 -22 5z"/>
 <path d="M1137 744 c-3 -5 3 -21 13 -34 16 -21 17 -27 5 -51 -8 -15 -22 -30 -31 -33 -13 -5 -15 -9 -6 -18 9 -9 18 -6 36 11 27 25 39 58 25 67 -5 3 -7 9 -4 14 3 4 -3 18 -13 31 -11 12 -21 18 -25 13z"/>
 <path d="M1045 630 c-7 -12 32 -33 45 -25 6 4 8 10 5 14 -7 13 -44 20 -50 11z"/>
 <path d="M541 597 c-6 -8 -8 -17 -5 -20 10 -9 45 13 39 24 -9 13 -21 11 -34 -4z"/>
 <path d="M509 566 c-1 -3 -2 -9 -3 -13 -1 -5 -5 -14 -10 -21 -4 -7 -3 -19 4 -27 7 -8 9 -15 6 -15 -4 0 -2 -9 4 -20 6 -11 15 -18 21 -15 5 4 4 15 -3 28 -14 26 -16 48 -5 64 4 6 3 14 -3 18 -5 3 -11 4 -11 1z"/>
 </g>
<g id="layer3" fill="#9c9f9e" stroke="none">
 <path d="M745 1080 c-6 -10 -2 -12 25 -14 8 -1 21 -13 29 -27 12 -22 12 -31 2 -57 -7 -17 -16 -31 -20 -30 -24 3 -21 -6 12 -36 38 -34 38 -34 23 -65 -20 -38 -6 -75 37 -97 26 -14 31 -14 53 1 14 9 27 22 30 30 7 18 34 -8 57 -58 16 -33 20 -36 38 -26 13 7 17 14 11 22 -4 7 -25 38 -46 70 -21 32 -43 56 -49 54 -7 -3 -11 -10 -10 -16 4 -17 -5 -14 -43 15 -19 15 -33 32 -32 39 2 7 -9 24 -24 38 -26 24 -27 27 -13 54 8 15 12 37 9 48 -8 26 -35 56 -45 50 -4 -3 -10 -1 -14 5 -8 13 -22 13 -30 0z"/>
 <path d="M690 1050 c-6 -11 -11 -33 -10 -48 3 -44 -9 -67 -50 -94 -27 -17 -60 -27 -102 -32 -75 -7 -107 -28 -128 -82 -8 -21 -25 -47 -37 -57 -33 -26 -48 -56 -34 -70 7 -7 13 -3 20 15 5 14 25 35 43 46 23 15 34 29 36 49 3 41 30 60 95 66 64 6 71 -2 40 -54 -13 -22 -15 -34 -7 -47 15 -24 52 -27 75 -6 18 16 17 40 -2 28 -5 -3 -7 -9 -4 -13 2 -5 -7 -6 -20 -3 -26 5 -33 18 -14 24 7 2 13 19 14 37 3 37 10 46 42 56 17 5 29 0 47 -20 14 -15 27 -22 31 -16 10 17 -41 62 -62 54 -28 -10 26 47 55 58 23 9 22 29 -2 29 -10 0 -11 10 -5 43 9 48 -3 70 -21 37z"/>
 <path d="M875 891 c-3 -6 3 -15 14 -21 12 -6 22 -6 26 -1 3 6 -3 15 -14 21 -12 6 -22 6 -26 1z"/>
 <path d="M692 774 c-35 -14 -36 -36 -2 -27 22 6 28 -15 9 -34 -7 -7 -8 -13 0 -17 18 -12 49 29 44 58 -7 35 -12 37 -51 20z"/>
 <path d="M1075 750 c-8 -12 20 -24 35 -15 6 3 8 11 5 16 -8 12 -32 12 -40 -1z"/>
 <path d="M1136 731 c-4 -5 -2 -12 3 -15 5 -4 12 -2 15 3 4 5 2 12 -3 15 -5 4 -12 2 -15 -3z"/>
 <path d="M657 667 c-38 -29 -145 -31 -175 -4 -13 12 -22 15 -27 8 -3 -6 -3 -11 2 -12 4 0 -10 -9 -32 -19 -36 -17 -42 -17 -56 -4 -10 9 -20 11 -23 6 -3 -5 1 -15 9 -22 8 -7 15 -9 15 -5 0 4 6 2 14 -4 11 -10 21 -9 46 4 24 13 38 14 68 5 20 -5 49 -10 65 -10 16 0 26 -5 25 -12 -2 -7 4 -13 12 -13 9 0 14 7 12 18 -2 9 1 17 5 17 4 0 18 3 30 6 17 5 25 -1 37 -25 9 -16 16 -39 16 -50 0 -53 49 -97 115 -105 12 -1 26 -5 32 -9 6 -4 14 -3 18 3 6 10 5 11 -17 14 -16 2 -12 76 5 93 12 11 36 16 70 14 10 0 22 -13 28 -28 7 -18 13 -23 20 -16 15 15 -5 49 -39 67 -48 25 -108 -12 -121 -74 -6 -28 -8 -29 -31 -17 -13 7 -31 26 -39 42 -8 17 -23 47 -34 68 -10 21 -17 47 -14 58 7 28 -4 30 -36 6z"/>
 <path d="M798 684 c-9 -14 11 -56 22 -49 13 8 13 18 -3 40 -8 10 -16 14 -19 9z"/>
 <path d="M1016 672 c-3 -6 -3 -17 0 -25 10 -28 -16 -124 -42 -152 -26 -29 -24 -51 4 -36 48 25 84 111 72 167 -9 41 -24 61 -34 46z"/>
 <path d="M1133 646 c-23 -24 -21 -39 3 -29 18 7 37 40 26 47 -4 2 -17 -6 -29 -18z"/>
 <path d="M805 616 c-18 -13 -18 -14 3 -25 18 -10 23 -9 28 4 10 25 -9 37 -31 21z"/>
 <path d="M546 591 c-4 -5 -2 -12 3 -15 5 -4 12 -2 15 3 4 5 2 12 -3 15 -5 4 -12 2 -15 -3z"/>
 <path d="M638 594 c-4 -5 4 -22 17 -38 13 -16 25 -24 29 -18 3 6 -4 23 -17 38 -13 15 -26 23 -29 18z"/>
 <path d="M509 546 c-5 -23 -2 -46 5 -48 12 -4 15 41 4 48 -4 3 -8 3 -9 0z"/>
 <path d="M631 461 c-14 -11 -19 -21 -13 -25 5 -3 20 2 33 12 29 24 11 36 -20 13z"/>
 <path d="M566 451 c-4 -5 -2 -12 3 -15 5 -4 12 -2 15 3 4 5 2 12 -3 15 -5 4 -12 2 -15 -3z"/>
 <path d="M916 451 c-4 -5 -2 -12 3 -15 5 -4 12 -2 15 3 4 5 2 12 -3 15 -5 4 -12 2 -15 -3z"/>
 </g>
<g id="layer4" fill="#d4c3b3" stroke="none">
 <path d="M705 1056 c-17 -25 -16 -96 1 -97 5 0 15 -5 21 -11 7 -6 20 -7 29 -4 15 6 15 8 -1 26 -15 16 -21 18 -33 7 -13 -10 -15 -9 -9 6 4 10 7 30 7 43 0 13 3 24 8 24 12 0 55 -88 48 -99 -4 -5 -2 -12 4 -16 11 -7 50 52 50 76 0 9 -9 28 -21 43 -28 35 -82 36 -104 2z"/>
 <path d="M847 894 c-15 -15 -5 -31 39 -63 36 -25 49 -29 60 -20 10 8 11 16 3 30 -5 11 -14 17 -20 14 -5 -4 -6 -11 -3 -17 4 -6 -5 -3 -19 8 -14 10 -25 26 -24 34 2 15 -24 25 -36 14z"/>
 <path d="M635 880 c-28 -11 -43 -30 -49 -63 -3 -21 2 -32 25 -52 36 -29 36 -29 82 -10 33 13 35 18 32 52 -2 25 -11 44 -29 60 -30 25 -32 26 -61 13z m64 -54 c12 -26 12 -31 -5 -43 -25 -18 -58 -16 -78 5 -15 18 -15 21 5 46 27 34 59 31 78 -8z"/>
 <path d="M367 729 c-43 -36 -48 -66 -14 -97 29 -27 53 -28 94 -2 29 18 31 22 23 51 -9 30 -46 79 -59 79 -4 0 -23 -14 -44 -31z m72 -54 c0 -5 -6 -1 -14 9 -8 11 -15 24 -15 30 0 5 7 1 15 -10 8 -10 14 -23 14 -29z"/>
 <path d="M1038 727 c-36 -29 -35 -52 3 -88 38 -35 72 -37 104 -4 31 30 32 65 2 93 -30 28 -74 28 -109 -1z"/>
 <path d="M694 699 c-9 -10 -11 -20 -6 -23 5 -3 15 0 21 8 20 24 71 6 86 -30 12 -29 11 -32 -8 -42 -47 -22 -68 -22 -77 3 -5 13 -13 26 -19 29 -19 12 -20 -11 -2 -40 22 -37 61 -42 107 -14 34 22 38 46 13 91 -21 40 -86 50 -115 18z"/>
 <path d="M536 579 c-15 -12 -25 -24 -22 -27 3 -3 1 -11 -5 -18 -6 -7 -7 -19 -3 -26 5 -7 9 -16 9 -20 0 -5 3 -8 8 -8 6 0 9 5 6 13 -9 28 -2 51 24 71 16 13 25 26 19 30 -5 3 -22 -4 -36 -15z"/>
 <path d="M626 591 c-4 -5 -2 -12 3 -15 5 -4 12 -2 15 3 4 5 2 12 -3 15 -5 4 -12 2 -15 -3z"/>
 <path d="M884 582 c-49 -7 -91 -105 -58 -133 12 -10 18 -6 16 12 -2 11 102 18 113 7 7 -6 7 -9 0 -8 -5 2 -14 1 -20 0 -5 -1 -23 -2 -40 -3 -16 -1 -32 -6 -35 -12 -6 -12 35 -19 58 -10 9 3 19 6 22 6 20 1 38 35 35 65 -5 55 -40 84 -91 76z"/>
 <path d="M660 568 c-1 -5 -2 -26 -2 -48 0 -22 1 -43 2 -47 2 -14 30 30 30 47 0 17 -28 61 -30 48z"/>
 <path d="M546 461 c-4 -5 -2 -12 4 -16 5 -3 10 -3 10 1 0 3 6 2 13 -3 16 -12 47 -11 47 2 0 6 -10 10 -23 10 -12 0 -27 4 -34 8 -6 4 -14 3 -17 -2z"/>
 </g>
<g id="layer5" fill="#dfe6d7" stroke="none">
 <path d="M713 1058 c-17 -22 -23 -86 -9 -97 8 -7 16 -7 23 0 7 7 14 5 23 -6 14 -17 36 -20 45 -5 9 14 -44 120 -60 120 -7 0 -17 -6 -22 -12z"/>
 <path d="M856 881 c-8 -12 71 -74 84 -66 16 10 12 24 -15 50 -24 25 -59 33 -69 16z"/>
 <path d="M610 844 l-31 -36 27 -29 c33 -34 62 -37 98 -8 30 24 28 48 -7 87 -29 31 -50 28 -87 -14z"/>
 <path d="M397 744 c-14 -14 -6 -43 19 -74 21 -24 29 -28 40 -19 12 9 10 18 -11 53 -25 42 -36 51 -48 40z"/>
 <path d="M693 688 c-25 -26 -26 -30 -13 -55 33 -65 63 -73 122 -31 25 17 26 21 16 46 -30 69 -81 86 -125 40z"/>
 <path d="M1024 696 c-8 -20 7 -52 22 -49 15 3 15 27 0 48 -14 19 -15 19 -22 1z"/>
 <path d="M541 574 c-39 -33 -41 -74 -6 -109 37 -38 88 -37 123 1 29 33 29 78 -3 109 -32 33 -75 32 -114 -1z"/>
 <path d="M885 493 c-84 -9 -79 -53 6 -53 36 0 54 5 69 20 12 12 18 25 15 30 -6 10 -15 10 -90 3z"/>
 </g>
<g id="layer6" fill="#010101" stroke="none">
 <path d="M568 1445 c-205 -35 -447 -233 -519 -424 -26 -69 -49 -197 -49 -271 0 -184 77 -384 198 -511 190 -203 392 -269 685 -225 223 34 424 191 542 424 42 84 65 199 65 334 0 121 -22 215 -76 319 -91 176 -288 320 -484 354 -102 18 -256 17 -362 0z m252 -408 c14 -25 13 -30 -2 -58 -17 -30 -17 -31 7 -55 14 -14 40 -31 58 -39 33 -14 101 -80 130 -127 15 -24 19 -25 45 -16 63 24 126 -37 98 -93 -10 -20 -19 -24 -61 -24 -48 0 -50 -1 -53 -30 -1 -16 -9 -48 -18 -71 -12 -33 -23 -45 -63 -64 -40 -18 -57 -21 -102 -15 -102 14 -148 48 -154 114 -1 17 -9 41 -18 55 -15 22 -20 24 -49 15 -39 -11 -125 -11 -153 0 -12 5 -29 2 -46 -8 -21 -12 -34 -13 -56 -5 -56 19 -66 101 -15 126 17 9 31 28 40 56 17 51 53 72 125 72 32 0 56 8 91 31 54 36 71 62 67 102 -4 43 24 69 73 65 32 -2 44 -9 56 -31z m-160 -467 c24 -24 25 -39 6 -84 -31 -75 -149 -47 -149 34 0 17 8 39 18 50 25 28 97 28 125 0z"/>
 <path d="M685 920 c-30 -31 -29 -36 7 -54 19 -9 25 -24 32 -79 8 -67 9 -68 47 -84 28 -11 41 -23 45 -42 3 -14 10 -37 15 -50 9 -21 7 -23 -10 -18 -11 3 -37 -1 -58 -8 -31 -11 -38 -18 -35 -37 2 -25 48 -71 65 -65 6 2 16 18 22 36 17 51 78 76 125 51 10 -5 23 -24 29 -42 11 -30 12 -31 28 -15 13 12 19 39 21 91 5 83 -6 126 -42 171 l-24 30 -24 -22 c-28 -27 -70 -30 -92 -7 -18 18 -22 79 -5 90 7 4 -4 21 -27 45 -47 48 -79 51 -119 9z"/>
 <path d="M545 852 c-61 -4 -84 -11 -105 -32 -25 -25 -26 -62 -2 -98 10 -15 23 -36 28 -47 41 -78 254 -28 242 56 -2 20 -8 23 -32 21 -16 -2 -38 -9 -50 -17 -12 -8 -31 -12 -44 -8 -29 7 -29 44 0 83 26 36 17 46 -37 42z"/>
 <path d="M585 770 c-10 -17 12 -37 25 -24 8 8 6 15 -4 23 -10 9 -16 9 -21 1z"/>
 </g>

</svg>