<!DOCTYPE svg PUBLIC "-//W3C//DTD SVG 20010904//EN" "http://www.w3.org/TR/2001/REC-SVG-20010904/DTD/svg10.dtd">
<svg version="1.0" xmlns="http://www.w3.org/2000/svg" viewBox="0 0 3210 2660" preserveAspectRatio="none">

<g id="layer1" fill="#5d5d5d" stroke="none">
 <path d="M1435 2203 c-55 -8 -114 -21 -132 -28 -46 -20 -75 -82 -81 -175 -4 -70 -2 -81 28 -140 39 -79 54 -97 102 -121 43 -22 75 -24 130 -7 124 37 233 244 214 407 -4 30 -12 61 -18 68 -14 17 -113 16 -243 -4z"/>
 <path d="M2154 637 c-112 -102 20 -272 157 -202 35 19 69 70 69 105 0 63 -80 130 -155 130 -26 0 -45 -9 -71 -33z"/>
 </g>
<g id="layer2" fill="#1e1e1e" stroke="none">
 <path d="M1980 1501 c-54 -17 -108 -51 -138 -86 -18 -20 -32 -39 -32 -44 0 -4 -32 -48 -70 -97 -39 -49 -96 -138 -127 -199 -31 -60 -76 -142 -100 -182 -23 -39 -48 -84 -54 -100 l-11 -28 -140 145 c-77 80 -167 183 -201 230 -33 47 -84 113 -113 146 -30 34 -58 73 -64 88 -20 53 -91 56 -134 5 -68 -80 -37 -175 129 -394 95 -125 141 -175 239 -261 199 -174 274 -218 506 -295 339 -111 709 -135 918 -59 182 67 335 183 471 354 90 114 128 202 137 315 l7 89 -49 31 c-27 17 -55 29 -62 26 -18 -7 -127 22 -173 46 -21 10 -88 32 -149 49 -62 17 -153 48 -204 69 -50 21 -122 49 -161 61 -38 12 -113 38 -165 57 -98 36 -210 51 -260 34z m318 -870 c105 -54 67 -191 -52 -191 -77 0 -123 50 -113 124 11 79 84 108 165 67z"/>
 </g>
<g id="layer3" fill="#8f8f8f" stroke="none">
 <path d="M1674 2218 c-3 -5 -3 -37 1 -71 18 -167 -76 -360 -192 -395 -57 -17 -88 -15 -133 8 -32 16 -47 34 -75 90 -29 58 -35 80 -35 132 1 35 8 81 16 103 36 92 33 96 -49 71 -60 -18 -122 -70 -152 -127 -13 -25 -30 -51 -39 -58 -23 -19 -43 -93 -61 -221 -9 -63 -21 -144 -26 -180 -18 -125 -22 -168 -15 -194 3 -14 30 -51 60 -83 29 -32 80 -96 113 -143 92 -129 329 -380 360 -380 10 0 127 201 202 345 22 44 59 102 80 128 22 27 53 69 68 95 71 117 166 169 288 157 39 -4 110 -21 160 -40 50 -18 128 -45 175 -60 47 -16 124 -45 172 -66 47 -21 125 -47 173 -58 48 -12 117 -34 153 -50 82 -36 149 -54 169 -46 14 5 15 32 10 203 -3 108 -8 212 -11 231 -17 107 -69 221 -101 221 -8 0 -15 5 -15 10 0 6 -10 15 -22 20 -13 6 -43 23 -68 38 -25 15 -65 34 -90 42 -25 7 -50 17 -56 22 -6 4 -55 24 -110 43 -54 20 -108 42 -119 49 -11 7 -37 16 -59 20 -21 4 -46 11 -55 16 -35 18 -90 40 -100 40 -6 0 -19 4 -29 9 -9 5 -37 14 -62 21 -25 7 -53 16 -63 21 -46 25 -451 57 -463 37z"/>
 </g>
 
 <g id="layer4" fill="#5e5e5e" stroke="none">
 <path d="M841 2647 c-18 -23 9 -66 59 -93 120 -65 131 -74 144 -116 3 -11 15 -18 29 -18 26 0 30 -28 9 -66 -18 -34 3 -43 109 -46 l94 -3 -75 -10 c-67 -9 -75 -13 -78 -32 -3 -22 0 -23 55 -23 32 0 78 5 103 11 25 6 83 17 129 25 101 18 123 28 119 57 -3 19 -10 22 -58 25 -30 2 -59 7 -64 13 -6 5 -18 9 -27 9 -12 0 -19 9 -21 28 -2 19 -9 28 -26 30 -13 2 -26 10 -29 18 -3 8 -19 14 -38 14 -27 0 -34 4 -37 23 -3 20 -9 22 -61 23 -53 1 -60 4 -90 37 -25 28 -40 37 -65 37 -17 0 -32 5 -32 10 0 6 -7 10 -15 10 -8 0 -12 6 -9 14 12 31 -101 52 -125 23z"/>
 <path d="M766 2218 c-3 -13 -7 -53 -10 -91 -10 -127 -70 -318 -152 -485 -72 -146 -80 -157 -190 -275 -120 -128 -144 -171 -144 -256 1 -52 48 -132 91 -156 36 -19 38 -19 78 0 42 18 111 85 111 107 0 6 7 4 18 -5 24 -22 31 -21 95 7 70 31 85 63 68 142 -15 65 -50 110 -103 131 -83 33 -80 79 22 280 69 137 85 179 119 313 33 130 48 235 42 298 -2 22 -40 14 -45 -10z m-212 -886 c9 -9 35 -25 58 -37 23 -11 48 -30 56 -42 l14 -23 -31 16 c-41 21 -75 12 -97 -25 -14 -24 -21 -28 -35 -20 -31 16 -60 10 -90 -20 -38 -39 -40 -81 -3 -81 20 0 24 4 19 19 -8 25 32 56 52 39 18 -14 17 -79 -2 -105 -25 -35 -82 -66 -111 -59 -35 9 -75 94 -67 145 9 58 31 91 122 184 l86 88 6 -31 c4 -18 14 -39 23 -48z m89 -134 c9 -13 5 -25 -17 -57 -17 -24 -25 -45 -20 -53 6 -10 4 -10 -9 1 -19 15 -23 81 -6 112 12 23 37 22 52 -3z m57 -38 c0 -21 -33 -60 -50 -60 -8 0 39 78 48 80 1 0 2 -9 2 -20z"/>
 </g>
 
 <g id="layer5" fill="#5e5e5e" fill-opacity="0.4" stroke="none">
 <path d="M2310 428 c-70 -37 -58 -146 19 -163 37 -8 55 -55 35 -93 -21 -41 -17 -71 15 -103 31 -31 67 -37 102 -18 17 8 24 6 40 -15 28 -36 70 -42 122 -17 24 12 53 21 66 21 12 0 33 11 46 25 34 34 34 87 -1 122 -23 23 -31 25 -75 20 l-49 -6 0 40 c0 43 -33 88 -67 90 -24 2 -62 5 -95 7 -20 1 -28 7 -28 21 0 29 -41 70 -75 76 -16 3 -41 0 -55 -7z"/>
 </g>
 
<g id="layer6" fill="#feffe3" fill-opacity="0.2" stroke="none">
 <path d="M527 1714 c-79 -11 -112 -21 -177 -55 -161 -83 -245 -203 -274 -391 -33 -207 28 -309 250 -421 165 -83 249 -94 430 -57 185 38 268 74 349 151 61 57 102 127 111 190 3 24 13 68 21 98 35 126 -4 259 -107 360 -108 106 -206 142 -390 140 -63 -1 -159 -7 -213 -15z"/>
 </g>


</svg>