<!DOCTYPE svg PUBLIC "-//W3C//DTD SVG 20010904//EN" "http://www.w3.org/TR/2001/REC-SVG-20010904/DTD/svg10.dtd">

<!-- ++++++++++ Light Blue = Pensiveness ++++++++++ -->
<svg version="1.0" xmlns="http://www.w3.org/2000/svg" width="371px" height="285px" viewBox="0 0 3710 2850" preserveAspectRatio="xMidYMid meet">
<g id="layerPensiveness" fill="#d2e8e2" stroke="none">
 <path d="M2385 2041 c-88 -23 -190 -103 -226 -178 -31 -64 -31 -156 1 -237 31 -80 89 -135 187 -178 68 -29 89 -33 163 -33 97 0 157 23 216 82 50 49 67 90 72 169 9 147 -68 278 -201 344 -66 32 -157 46 -212 31z"/>
 </g>
 <!-- ++++++++++ (end) Light Blue = Pensiveness ++++++++++ -->
 
 <!-- ++++++++++ Purple = Boredom ++++++++++ -->
<g id="layerBoredom" fill="#D1BBD1" stroke="none">
 <path d="M1763 2813 c-57 -20 -133 -89 -163 -149 -21 -42 -25 -63 -25 -144 0 -86 3 -100 27 -141 41 -70 120 -136 186 -155 78 -23 219 -16 287 15 110 49 170 144 169 271 0 64 -4 83 -29 129 -36 65 -137 153 -203 176 -58 19 -193 19 -249 -2z"/>
 </g>
<!-- ++++++++++ (end) Purple = Boredom ++++++++++ -->
 
<!-- ++++++++++ Gray-blue = Apprehension  ++++++++++ -->
<g id="layerApprehension" fill="#C4D2C7" stroke="none">
 <path d="M2414 741 c-92 -24 -201 -108 -239 -185 -32 -66 -45 -200 -25 -272 16 -56 95 -179 139 -216 81 -69 281 -75 381 -13 62 39 135 112 163 163 27 50 46 146 47 233 0 77 -42 145 -124 201 -38 27 -95 57 -125 69 -61 23 -169 33 -217 20z"/>
 </g>
<!-- ++++++++++ (end) Gray-blue = Apprehension  ++++++++++ -->

<!-- ++++++++++ Orange = Interest  ++++++++++ -->
<g id="layerInterest" fill="#FFEBB8" stroke="none">
 <path d="M3218 1437 c-99 -28 -182 -104 -216 -197 -9 -25 13 -188 37 -278 16 -56 99 -140 178 -178 52 -26 68 -29 158 -29 91 0 104 3 146 27 65 39 124 101 156 166 23 49 27 70 28 147 0 79 -3 97 -28 147 -40 82 -120 152 -205 179 -84 26 -192 33 -254 16z"/>
 </g>
<!-- ++++++++++ (end) Orange = Interest  ++++++++++ -->

<!-- ++++++++++ Pink = Annoyance  ++++++++++ -->
<g id="layerAnnoyance" fill="#FFD3D0" stroke="none">
 <path d="M155 1406 c-28 -12 -65 -40 -84 -61 -57 -66 -65 -95 -66 -240 0 -122 2 -133 28 -187 52 -105 153 -173 299 -201 72 -13 166 10 234 58 56 40 121 129 140 192 24 80 18 109 -49 237 -58 111 -65 120 -114 148 -63 34 -225 78 -291 78 -28 0 -67 -10 -97 -24z"/>
 </g>
<!-- ++++++++++ (end) Pink = Annoyance  ++++++++++ -->

<!-- ++++++++++ Sea-green = Distraction ++++++++++ -->
<g id="layerDistraction" fill="#D5EFD7" stroke="none">
 <path d="M1342 1929 c-77 -27 -144 -84 -179 -153 -36 -69 -38 -168 -4 -243 29 -66 122 -155 198 -191 50 -23 71 -27 148 -27 78 0 97 4 147 28 62 31 115 84 149 149 17 32 23 60 23 113 0 129 -79 248 -204 311 -76 38 -189 43 -278 13z"/>
 </g>
<!-- ++++++++++ (end) Sea-green = Distraction ++++++++++ -->
 
<!-- ++++++++++ Light-green = Acceptance ++++++++++ -->
 <g id="layerAcceptance" fill="#E8FFE3" stroke="none">
 <path d="M1719 1267 c-80 -30 -135 -86 -181 -182 -30 -64 -33 -78 -33 -165 0 -87 3 -100 30 -148 36 -66 111 -136 168 -155 176 -62 281 -42 402 78 76 75 110 155 109 255 -1 84 -32 146 -108 218 -81 77 -149 105 -261 109 -58 2 -103 -1 -126 -10z"/>
 </g>
<!-- ++++++++++ (end) Light-green = Acceptance ++++++++++ -->

<!-- ++++++++++ White = Puzzle ++++++++++ -->
<g id="layerPuzzle" fill="#ffffff" stroke="none">
 <path d="M2050 2647 c0 -108 -20 -212 -56 -285 -31 -64 -35 -80 -30 -120 10 -72 60 -165 114 -212 62 -55 120 -94 178 -119 75 -34 197 -127 266 -205 279 -313 335 -409 378 -647 39 -212 27 -293 -64 -446 -63 -108 -128 -185 -206 -247 -70 -55 -105 -70 -232 -97 -81 -17 -120 -20 -189 -16 -143 11 -352 87 -444 163 -77 63 -127 190 -129 325 -1 91 115 237 236 298 64 32 72 33 150 29 67 -3 91 -9 123 -30 85 -54 155 -162 170 -260 9 -58 -19 -124 -64 -151 -29 -17 -33 -17 -115 3 -106 26 -143 24 -169 -12 l-21 -28 21 -27 c27 -37 145 -76 234 -77 56 -1 72 3 115 29 30 19 64 53 89 89 36 52 40 64 43 131 5 88 -13 150 -68 245 -79 133 -167 191 -336 216 -128 19 -341 -87 -428 -212 -89 -130 -95 -142 -105 -219 -15 -106 -1 -189 49 -291 73 -149 199 -241 435 -317 92 -30 110 -32 235 -32 142 0 198 9 315 52 145 54 251 148 389 346 68 97 105 182 118 276 11 76 10 95 -16 249 -44 258 -90 361 -246 539 -249 285 -292 325 -523 466 -141 86 -183 165 -181 342 0 70 6 112 17 139 25 57 23 121 -5 140 -37 26 -48 20 -48 -27z"/>
 </g>
<!-- ++++++++++ (end) White = Puzzle ++++++++++ -->
 
<!-- ++++++++++ Yellow = Serenity ++++++++++ -->
 <g id="layerSerenity" fill="#FEFFE3" stroke="none">
 <path d="M982 685 c-29 -15 -84 -57 -121 -94 -58 -56 -72 -75 -86 -124 -49 -170 13 -324 157 -390 155 -72 363 -24 440 102 56 89 60 154 18 284 -53 160 -139 234 -284 244 -63 4 -77 2 -124 -22z"/>
 </g>
<!-- ++++++++++ (end) Yellow = Serenity ++++++++++ -->

<!-- ++++++++++ Gray = About ++++++++++ -->
<g id="layerAbout" fill="#EEEEEE" stroke="none">
 <path d="M1962 2714 c-20 -14 -22 -24 -22 -99 0 -102 -14 -174 -43 -216 -32 -48 -173 -158 -264 -206 -91 -48 -204 -81 -413 -118 -193 -35 -266 -57 -385 -118 -157 -81 -259 -195 -284 -315 -26 -124 -6 -225 80 -414 57 -126 69 -144 152 -233 95 -102 142 -133 237 -154 86 -19 199 -28 252 -20 58 9 236 92 244 113 3 9 12 16 19 16 19 0 101 97 127 149 11 24 28 45 37 49 20 7 37 29 55 67 7 17 27 45 44 63 16 18 32 43 35 55 3 12 17 53 31 92 22 60 24 76 15 115 -20 91 -130 214 -222 248 -83 31 -209 30 -303 -2 -167 -58 -237 -106 -275 -190 -22 -49 -24 -117 -5 -154 20 -38 115 -126 163 -150 48 -25 143 -41 198 -34 75 9 207 116 239 194 18 42 11 71 -29 124 -42 55 -78 65 -186 53 -112 -12 -136 -21 -151 -54 -8 -19 -8 -28 3 -41 24 -30 59 -36 130 -23 119 21 150 -5 81 -70 -39 -37 -96 -61 -146 -61 -35 0 -103 34 -144 73 -38 37 -44 90 -13 129 29 36 128 85 201 99 162 31 251 -2 314 -118 39 -71 33 -94 -67 -252 -117 -188 -173 -247 -289 -305 -146 -74 -269 -78 -391 -13 -109 57 -222 220 -283 404 -23 70 -26 94 -22 167 4 69 9 91 30 123 40 60 82 96 167 141 109 58 171 78 340 108 367 64 536 138 703 306 100 101 121 152 139 336 9 103 9 116 -7 133 -21 23 -62 25 -92 3z"/>
 </g>
<!-- ++++++++++ (end) Gray = About ++++++++++ -->

</svg>
