<!DOCTYPE svg PUBLIC "-//W3C//DTD SVG 20010904//EN" "http://www.w3.org/TR/2001/REC-SVG-20010904/DTD/svg10.dtd">
<svg version="1.0" xmlns="http://www.w3.org/2000/svg" viewBox="0 0 4450 4190" preserveAspectRatio="none">
<g id="layer1" fill="#9b9c91" stroke="none">
 <path d="M1964 3766 c-17 -8 -39 -24 -48 -37 -20 -29 -21 -95 -1 -142 18 -43 20 -196 5 -278 -14 -72 -59 -166 -114 -238 -87 -113 -183 -186 -489 -372 -239 -145 -388 -277 -537 -474 -122 -162 -170 -291 -170 -456 0 -108 15 -164 77 -281 64 -123 198 -237 380 -323 158 -76 352 -106 551 -87 149 15 385 63 489 100 230 81 361 211 394 387 15 80 5 250 -20 350 -58 225 -186 377 -374 442 -60 21 -84 24 -171 21 -81 -2 -110 -8 -148 -26 -67 -33 -139 -101 -173 -164 -26 -46 -30 -63 -30 -133 0 -64 5 -89 23 -123 46 -87 142 -152 224 -152 45 0 78 40 78 93 0 48 -9 63 -58 96 -18 13 -39 36 -48 52 -13 27 -13 32 3 60 85 144 302 93 408 -95 62 -111 92 -299 64 -401 -24 -89 -168 -184 -349 -229 -414 -104 -640 -84 -884 78 -102 68 -139 108 -183 202 -71 150 -37 276 136 493 117 149 260 267 475 393 403 237 580 416 658 668 21 67 23 94 23 260 0 179 -1 187 -27 242 -14 31 -34 61 -45 66 -34 19 -87 22 -119 8z m115 -110 c6 -8 19 -47 27 -87 27 -125 4 -302 -56 -436 -91 -202 -234 -337 -575 -543 -223 -134 -330 -216 -453 -345 -208 -218 -277 -377 -243 -560 31 -168 182 -320 402 -407 193 -77 437 -76 747 2 220 56 353 147 400 273 44 115 23 317 -46 453 -18 35 -56 84 -94 121 -53 50 -76 65 -132 82 -38 12 -80 21 -94 21 -48 0 -143 -33 -172 -60 -27 -25 -50 -83 -50 -127 0 -30 -20 -40 -37 -18 -29 41 -6 125 50 183 77 80 201 110 313 74 129 -41 228 -130 294 -267 121 -251 98 -495 -58 -635 -101 -91 -251 -150 -512 -201 -164 -32 -399 -33 -519 -1 -112 29 -269 108 -356 177 -218 174 -285 390 -195 624 48 123 155 277 280 401 117 116 191 172 420 315 207 130 274 180 367 279 87 92 142 185 168 285 19 73 23 271 6 314 -13 33 -3 57 31 81 28 20 72 21 87 2z"/>
 <path d="M2530 3578 c-142 -96 -100 -395 86 -612 43 -50 127 -113 181 -137 23 -10 102 -34 175 -55 168 -46 213 -69 277 -141 66 -74 97 -139 116 -237 49 -258 -30 -498 -188 -566 -244 -106 -486 95 -487 406 0 36 6 68 14 80 14 19 15 19 43 -2 44 -31 73 -101 79 -185 8 -106 11 -117 44 -134 46 -24 87 -19 120 13 35 36 47 123 30 227 -30 189 -148 305 -312 305 -78 0 -112 -11 -151 -48 -112 -105 -112 -384 -1 -609 100 -205 336 -329 562 -296 255 37 414 201 468 481 29 151 12 397 -36 525 -26 69 -104 181 -175 250 -69 69 -147 106 -315 152 -74 21 -151 45 -170 55 -126 65 -242 290 -196 378 9 17 16 51 16 75 0 34 -6 49 -28 70 -37 35 -104 37 -152 5z m97 -110 c17 -18 22 -40 26 -108 5 -98 27 -157 89 -238 57 -77 134 -123 270 -161 224 -65 343 -146 433 -296 116 -194 127 -495 25 -712 -127 -272 -422 -362 -666 -205 -78 51 -133 115 -178 208 -88 179 -86 378 3 456 29 26 40 29 73 25 36 -5 108 -44 108 -58 0 -3 -18 -2 -39 4 -36 10 -43 8 -83 -18 -65 -44 -68 -50 -68 -144 1 -212 91 -376 248 -453 62 -30 74 -33 172 -33 94 0 111 3 160 27 164 80 234 221 233 468 0 199 -45 331 -152 439 -70 72 -124 100 -282 146 -163 48 -248 93 -330 176 -108 110 -190 293 -174 395 13 88 85 132 132 82z"/>
 </g>
<g id="layer2" fill="#80817a" stroke="none">
 <path d="M1958 3660 c-26 -27 -29 -35 -23 -68 3 -20 9 -84 12 -142 8 -183 -41 -310 -180 -456 -93 -99 -160 -149 -367 -279 -229 -143 -303 -199 -420 -315 -125 -124 -232 -277 -280 -401 -38 -97 -51 -236 -31 -329 38 -175 181 -334 397 -440 160 -79 234 -95 449 -94 192 0 302 16 500 70 318 88 460 259 442 531 -25 354 -238 596 -512 580 -164 -9 -275 -109 -275 -244 0 -54 21 -93 49 -93 26 0 37 18 45 69 13 87 43 118 140 146 55 16 59 16 128 -5 61 -18 81 -31 136 -83 74 -71 114 -144 143 -255 74 -289 -53 -463 -403 -552 -373 -94 -601 -76 -843 64 -87 51 -191 155 -227 227 -99 195 -39 379 204 634 123 129 230 211 453 345 280 169 414 281 508 423 84 127 123 249 133 418 6 107 -12 235 -37 265 -7 9 -31 14 -61 14 -42 0 -54 -5 -80 -30z"/>
 <path d="M2544 3510 c-132 -54 -73 -359 104 -538 84 -84 167 -129 331 -177 158 -46 212 -74 282 -146 102 -104 152 -240 152 -419 0 -226 -75 -370 -233 -448 -47 -23 -67 -27 -140 -27 -75 1 -93 5 -152 33 -114 55 -201 169 -233 304 -16 67 -20 185 -7 205 4 7 27 25 51 41 38 26 47 28 76 19 73 -22 89 24 24 69 -30 20 -56 29 -98 32 -53 4 -61 2 -92 -26 -91 -80 -93 -313 -3 -496 45 -93 100 -157 178 -208 80 -51 170 -78 263 -78 204 0 356 97 443 283 55 118 74 227 67 397 -8 214 -60 346 -190 478 -75 76 -169 125 -335 173 -136 38 -213 84 -270 161 -63 82 -84 140 -90 240 -4 72 -8 90 -26 106 -25 24 -73 34 -102 22z"/>
 </g>
<g id="layer3" fill="#f8f9de" stroke="none">
 <path d="M1880 4174 c-171 -21 -260 -41 -412 -91 -561 -185 -1025 -584 -1278 -1098 -137 -280 -190 -528 -190 -890 0 -362 53 -610 190 -890 213 -433 558 -771 1015 -991 320 -155 602 -214 1020 -214 418 0 700 59 1020 214 457 220 802 558 1015 991 137 280 190 528 190 890 0 362 -53 610 -190 890 -213 433 -558 771 -1015 991 -326 158 -605 215 -1035 213 -118 -1 -267 -7 -330 -15z m186 -439 c12 -8 32 -38 45 -67 22 -49 24 -65 24 -218 0 -145 -3 -174 -23 -240 -78 -252 -255 -431 -658 -668 -229 -135 -386 -269 -514 -442 -144 -194 -170 -341 -90 -499 41 -83 78 -122 176 -187 154 -103 291 -144 477 -144 184 0 485 62 616 126 91 45 165 114 180 169 17 64 13 201 -9 295 -50 205 -173 325 -336 325 -61 0 -76 -4 -110 -27 -44 -31 -74 -75 -74 -110 0 -34 33 -82 73 -107 56 -35 62 -94 12 -127 -22 -15 -28 -15 -74 1 -29 9 -67 33 -90 55 -122 119 -114 274 21 395 74 66 129 89 224 93 96 5 187 -23 277 -82 154 -103 257 -307 273 -546 18 -259 -109 -430 -399 -532 -100 -36 -332 -84 -476 -99 -244 -25 -458 29 -676 172 -106 70 -182 148 -228 237 -58 110 -77 174 -77 261 0 143 54 282 170 436 149 197 298 329 537 474 306 186 402 259 489 372 55 72 100 166 114 238 16 84 13 275 -5 318 -22 53 -19 81 14 114 33 33 82 39 117 14z m598 -181 c30 -31 33 -62 10 -106 -40 -78 12 -243 110 -347 65 -68 91 -81 256 -126 168 -46 246 -83 315 -152 71 -69 149 -181 175 -250 47 -127 63 -341 36 -485 -53 -275 -209 -439 -456 -479 -193 -32 -429 92 -527 277 -67 127 -103 308 -84 420 33 188 157 261 316 186 101 -48 163 -141 185 -274 23 -149 -28 -245 -108 -204 -35 18 -38 29 -46 131 -8 122 -59 205 -126 205 -40 0 -50 -24 -50 -117 0 -155 48 -282 135 -362 78 -71 145 -94 255 -89 142 7 225 58 283 175 74 147 75 440 2 588 -35 70 -119 161 -174 189 -25 13 -106 40 -179 60 -161 45 -202 62 -270 113 -142 107 -252 311 -254 470 -3 143 119 253 196 177z"/>
 </g>

</svg>
