<!DOCTYPE svg PUBLIC "-//W3C//DTD SVG 20010904//EN" "http://www.w3.org/TR/2001/REC-SVG-20010904/DTD/svg10.dtd">
<svg version="1.0" xmlns="http://www.w3.org/2000/svg" width="197px" height="183px" viewBox="0 0 1970 1830" preserveAspectRatio="xMidYMid meet">
<g id="layer1" fill="#3f3f3f" stroke="none">
 <path d="M320 1810 c-34 -34 -26 -102 29 -273 135 -414 174 -547 196 -660 l13 -67 -39 34 c-62 57 -96 70 -174 70 -90 0 -149 -28 -228 -106 -88 -87 -111 -145 -115 -292 -4 -126 8 -215 39 -276 46 -94 210 -206 336 -230 51 -10 76 -10 147 3 47 9 98 23 113 31 41 21 98 84 124 138 l24 47 44 -35 c90 -70 230 -124 343 -132 70 -4 83 -2 132 22 56 27 121 92 178 174 47 69 70 145 76 255 4 94 4 99 -27 161 -38 77 -173 211 -272 269 -111 65 -175 81 -325 79 l-131 -1 9 62 c10 84 47 241 65 285 44 106 128 175 269 224 155 54 307 46 481 -23 124 -49 149 -65 168 -106 27 -57 23 -83 -29 -171 -96 -165 -190 -217 -343 -193 -148 22 -193 63 -193 175 0 67 15 103 51 122 34 17 106 18 137 1 l23 -13 -21 -19 c-40 -36 -17 -107 43 -128 32 -12 79 6 118 43 34 32 39 43 39 80 0 108 -137 220 -269 220 -112 0 -234 -83 -267 -183 -24 -72 -22 -186 6 -259 50 -135 219 -216 427 -205 113 5 175 32 264 114 59 55 155 196 177 262 18 53 14 144 -8 205 -40 105 -121 162 -340 236 -82 28 -113 33 -225 37 -111 5 -144 2 -215 -16 -199 -49 -348 -157 -420 -305 -38 -76 -90 -264 -90 -325 0 -46 -16 -8 -65 149 -26 85 -67 217 -91 292 -24 76 -44 153 -44 173 0 48 -29 75 -80 75 -27 0 -47 -7 -60 -20z m772 -960 c111 -34 269 -162 304 -245 41 -99 -14 -266 -118 -361 -40 -36 -42 -36 -107 -32 -118 9 -263 84 -337 175 -34 41 -40 58 -65 185 -16 77 -33 156 -38 176 -24 95 -26 88 32 100 121 27 245 28 329 2z m-677 -104 c69 -53 84 -137 36 -204 -40 -55 -48 -57 -55 -17 -7 35 -37 65 -67 65 -22 0 -69 -56 -69 -82 0 -43 25 -103 57 -135 26 -26 42 -33 72 -33 65 0 157 77 210 175 l21 40 0 -45 c0 -24 8 -64 17 -88 14 -38 15 -54 5 -110 -6 -36 -19 -77 -30 -91 -26 -37 -83 -62 -151 -68 -54 -5 -64 -3 -149 41 -55 29 -100 60 -116 80 -63 83 -76 278 -24 367 68 116 171 160 243 105z"/>
 </g>

</svg>