<!DOCTYPE svg PUBLIC "-//W3C//DTD SVG 20010904//EN" "http://www.w3.org/TR/2001/REC-SVG-20010904/DTD/svg10.dtd">
<svg version="1.0" xmlns="http://www.w3.org/2000/svg" viewBox="0 0 16000 9310" preserveAspectRatio="none">
  <g id="meCarShadowLayer" fill="#e3b7b4" stroke="none">
    <path d="M2180 2732 c-107 -25 -423 -23 -600 4 -52 8 -84 -21 -83 -72 1 -26 -5 -46 -17 -59 -10 -11 -31 -47 -46 -79 -36 -79 -125 -193 -181 -233 -43 -30 -49 -32 -112 -27 -54 4 -86 15 -181 61 -63 31 -124 61 -135 66 -11 6 -30 13 -43 16 -17 5 -34 30 -68 106 -25 55 -51 105 -57 112 -9 9 -34 9 -97 2 -118 -13 -193 -51 -292 -151 -95 -95 -133 -170 -149 -290 -14 -102 -6 -268 16 -328 31 -87 161 -197 340 -288 208 -106 261 -173 319 -404 34 -135 112 -351 161 -448 56 -110 225 -254 361 -307 43 -17 135 -52 204 -78 69 -26 153 -63 188 -83 111 -65 125 -71 233 -86 121 -18 191 -20 204 -7 6 6 65 4 155 -4 189 -19 313 -19 405 0 66 14 77 14 98 1 20 -14 28 -14 77 0 30 9 84 15 119 15 141 -2 331 83 331 149 0 8 16 26 36 40 20 13 73 68 117 122 46 57 94 105 115 115 20 10 44 30 55 44 18 25 18 28 3 57 -23 45 -53 63 -95 56 -29 -5 -50 2 -104 30 -38 20 -72 34 -76 31 -5 -2 -51 29 -102 70 -52 41 -99 75 -105 75 -14 0 -24 23 -24 53 0 43 -52 172 -82 200 -40 38 -52 74 -35 101 8 11 17 45 20 74 6 47 13 61 62 114 30 33 64 77 75 98 17 33 28 42 72 55 67 20 152 19 183 -1 25 -16 277 -45 368 -42 43 1 51 -2 80 -35 56 -60 85 -59 224 8 65 32 147 81 183 109 36 29 88 67 115 86 126 85 165 120 165 150 0 18 11 39 30 58 28 28 30 36 30 104 0 130 -8 144 -145 258 -158 132 -213 167 -315 200 -54 17 -103 29 -107 27 -5 -3 -34 0 -65 8 -31 7 -89 16 -130 20 -42 4 -80 14 -90 22 -13 11 -52 18 -140 22 -84 5 -133 12 -154 24 -28 14 -133 37 -175 37 -22 0 -56 -30 -63 -56 -5 -15 1 -31 19 -52 14 -16 25 -35 25 -42 0 -6 -22 -35 -50 -64 -27 -29 -50 -58 -50 -65 0 -16 -184 -101 -218 -101 -15 0 -37 -6 -48 -14 -11 -8 -49 -16 -87 -17 l-66 -2 -75 86 c-53 60 -85 107 -107 159 -47 111 -47 110 -82 157 l-33 45 -119 1 c-79 2 -142 -3 -185 -13z m1956 -321 c34 -5 70 -14 82 -20 26 -14 69 -14 78 0 4 7 13 1 24 -16 17 -26 17 -27 -5 -49 -12 -12 -32 -48 -44 -80 -22 -60 -64 -105 -110 -119 -17 -4 -55 1 -110 15 -78 21 -85 25 -98 57 -22 51 -9 128 29 186 28 43 34 46 62 41 17 -3 58 -10 92 -15z m-3418 -144 c19 -6 49 -26 68 -43 18 -18 47 -38 64 -45 29 -13 30 -16 30 -76 0 -67 -20 -102 -76 -134 -27 -16 -33 -15 -100 5 -38 11 -93 38 -121 58 l-52 37 6 58 c6 69 30 150 46 157 17 8 95 -2 135 -17z m3782 -132 c0 -12 -4 -25 -9 -30 -5 -6 -12 -20 -15 -31 -5 -16 -2 -23 13 -27 37 -9 2 -76 -41 -77 -12 0 -19 12 -24 45 -3 25 -14 56 -24 68 -17 21 -17 23 6 67 13 25 24 51 24 59 0 9 13 2 35 -19 19 -19 35 -43 35 -55z m-1895 -500 c18 -6 20 -16 22 -134 1 -71 8 -168 14 -217 7 -49 11 -125 10 -169 -1 -44 3 -86 8 -94 7 -10 -6 -34 -44 -85 -61 -80 -75 -91 -165 -124 -68 -25 -243 -46 -269 -32 -13 7 -38 37 -130 155 -54 68 -102 193 -108 275 -3 57 2 81 40 192 51 147 63 169 119 204 31 20 60 28 127 34 91 8 342 5 376 -5z m-1078 -97 c132 -23 133 -23 133 -50 0 -14 15 -56 34 -92 44 -85 53 -112 69 -223 11 -82 11 -98 -3 -135 -15 -42 -17 -43 -60 -44 -49 -1 -107 -22 -230 -84 -72 -36 -84 -39 -121 -31 -22 5 -58 21 -80 35 -35 24 -39 30 -39 70 0 23 -7 65 -15 92 -9 27 -24 101 -34 163 l-18 115 56 60 c31 34 72 83 90 109 29 43 37 48 60 43 14 -3 86 -16 158 -28z"/>
  </g>
  <g id="meCarWheelsLayer" fill="#aaaaaa" stroke="none">
    <path d="M2933 3099 c-67 -11 -153 -44 -195 -74 -18 -13 -52 -34 -76 -46 -98 -50 -118 -138 -83 -374 5 -33 18 -85 30 -115 11 -30 20 -67 21 -82 0 -14 12 -41 27 -58 22 -27 31 -31 57 -26 17 3 75 12 128 19 60 9 110 23 131 36 20 12 51 21 73 21 35 0 50 9 123 73 46 41 88 82 94 93 23 41 36 140 26 195 -5 30 -12 77 -16 104 -5 47 -10 55 -95 137 -70 67 -100 89 -133 97 -24 6 -47 10 -52 10 -4 -1 -31 -5 -60 -10z"/>
    <path d="M910 3025 c-25 -7 -62 -18 -83 -25 -56 -17 -115 -74 -123 -118 -4 -21 -14 -50 -23 -67 -11 -21 -15 -55 -14 -116 1 -98 19 -148 65 -182 15 -11 28 -29 28 -39 0 -45 60 -117 115 -138 17 -6 62 -10 100 -9 39 1 91 -1 116 -5 49 -8 154 12 190 37 10 8 51 50 89 95 57 66 76 97 96 155 13 39 32 85 40 101 16 27 15 31 -9 85 -14 31 -28 68 -31 83 -9 40 -54 88 -82 88 -14 0 -37 6 -52 14 -96 48 -323 70 -422 41z"/>
  </g>
  <g id="meCarWindowsLayer" fill="#feffe3" stroke="none">
    <path d="M3978 2410 c-28 -29 -30 -35 -25 -80 6 -52 25 -96 63 -147 31 -41 115 -73 191 -73 56 0 58 1 105 51 62 66 64 97 10 166 -55 69 -128 104 -232 110 -79 4 -81 4 -112 -27z"/>
    <path d="M610 2272 c-24 -13 -44 -36 -64 -76 -27 -52 -28 -60 -17 -97 29 -97 133 -164 197 -126 109 63 134 96 134 175 0 60 -23 93 -79 115 -67 27 -131 31 -171 9z"/>
    <path d="M4377 2190 c-36 -28 -67 -82 -67 -115 0 -40 35 -90 86 -125 65 -43 88 -40 146 23 47 50 49 54 45 100 -9 103 -137 174 -210 117z"/>
    <path d="M3326 1705 c-99 -17 -125 -27 -211 -86 -47 -32 -89 -73 -129 -125 l-59 -76 6 -72 c3 -44 15 -92 30 -126 57 -126 324 -470 399 -514 36 -21 59 -26 119 -28 44 -1 83 -7 96 -15 19 -13 26 -12 57 2 43 21 87 76 97 124 4 20 15 55 23 79 11 28 16 72 15 125 0 63 4 92 20 127 11 25 21 58 21 75 0 21 12 42 44 75 24 25 53 60 63 79 11 19 41 49 69 67 73 48 94 70 94 99 0 32 -50 85 -80 85 -12 0 -55 13 -97 30 -49 20 -120 37 -211 50 -75 11 -167 24 -204 30 -37 5 -70 10 -75 9 -4 -1 -43 -7 -87 -14z"/>
    <path d="M1337 1609 c-47 -11 -74 -32 -127 -95 -31 -38 -40 -57 -40 -87 0 -23 -8 -49 -22 -67 -20 -28 -21 -34 -10 -107 7 -43 12 -98 12 -124 0 -25 4 -49 10 -55 5 -5 13 -32 16 -59 5 -40 14 -58 45 -90 21 -22 52 -55 68 -72 25 -29 36 -33 78 -33 76 0 124 18 164 61 21 23 45 39 58 39 55 0 128 66 138 125 3 22 17 54 30 73 37 55 32 113 -19 213 -45 87 -126 184 -175 209 -15 8 -32 21 -36 28 -14 21 -85 52 -119 51 -18 -1 -50 -5 -71 -10z"/>
    <path d="M2280 1590 c-176 -18 -252 -64 -288 -175 -26 -76 -29 -184 -8 -261 47 -177 227 -348 366 -348 96 1 200 75 252 182 30 60 33 76 36 173 4 110 -21 357 -39 392 -6 10 -20 22 -32 26 -35 13 -204 20 -287 11z"/>
  </g>
  <g id="meCarLineArtLayer" fill="#ffffff" stroke="none">
    <path d="M2909 3180 c-73 -6 -99 -13 -173 -50 -136 -66 -231 -173 -251 -282 l-7 -36 -101 5 c-65 4 -158 -1 -257 -12 -150 -17 -188 -17 -520 -2 -33 2 -36 5 -56 59 -78 210 -329 323 -612 274 -136 -24 -208 -65 -265 -152 -28 -42 -57 -139 -57 -190 0 -27 -4 -32 -31 -38 -17 -3 -47 -6 -65 -6 -48 0 -154 -42 -222 -89 -99 -67 -199 -195 -243 -310 -23 -61 -48 -222 -49 -312 0 -79 26 -221 51 -275 49 -103 171 -207 360 -305 136 -70 218 -138 243 -199 9 -22 25 -84 37 -138 23 -106 119 -373 173 -480 19 -37 51 -86 71 -109 40 -47 154 -142 224 -187 88 -56 636 -252 786 -280 57 -11 419 -46 539 -52 106 -6 138 -4 256 19 74 15 182 35 240 46 111 21 267 69 335 104 94 47 158 101 250 211 128 152 157 204 214 381 51 155 75 261 86 377 13 134 80 202 313 318 70 35 153 86 203 126 46 36 91 69 99 72 38 14 95 71 142 139 73 108 88 151 95 252 5 77 3 97 -21 167 -33 99 -74 161 -174 260 -99 99 -176 144 -316 188 -195 59 -227 65 -466 86 -152 13 -280 34 -309 49 -11 6 -31 11 -44 11 -22 0 -25 5 -30 49 -17 144 -148 277 -300 305 -21 4 -44 8 -50 10 -7 2 -51 0 -98 -4z m206 -173 c104 -53 130 -106 130 -262 0 -124 -8 -146 -78 -222 -64 -70 -133 -99 -260 -112 l-68 -6 -6 27 c-3 16 -8 28 -12 28 -9 0 -51 -64 -51 -78 0 -21 -17 -13 -46 21 -62 73 -134 266 -134 363 0 86 70 174 187 233 65 32 110 41 203 37 67 -3 96 -9 135 -29z m-1897 -21 c134 -36 232 -139 232 -247 0 -36 -28 -125 -57 -182 -43 -87 -159 -175 -254 -194 -30 -6 -31 -5 -19 16 12 24 6 71 -10 71 -5 0 -26 -12 -47 -26 -33 -22 -45 -25 -87 -19 -57 7 -100 27 -132 62 -19 20 -21 29 -13 55 10 37 5 46 -16 28 -13 -11 -19 -4 -41 46 -73 165 -67 284 18 347 83 62 280 82 426 43z m482 -313 c77 -12 271 -14 375 -4 66 6 186 14 265 17 l145 7 17 -73 c21 -87 83 -216 135 -282 73 -91 183 -121 290 -79 26 10 66 22 88 25 112 21 235 111 297 217 26 45 62 149 51 149 -4 0 -4 3 -1 6 3 3 22 -2 43 -10 44 -19 203 -41 458 -66 123 -12 162 -19 304 -61 152 -44 230 -95 333 -219 62 -73 78 -100 37 -62 -32 31 -78 37 -116 18 -30 -16 -31 -16 -31 6 0 40 -46 122 -90 162 -64 57 -122 80 -205 81 -81 0 -126 -21 -162 -74 -33 -49 -37 -91 -19 -175 27 -120 77 -174 181 -196 63 -13 162 1 211 30 l32 18 6 -57 c4 -31 20 -85 36 -119 34 -72 61 -89 100 -65 l25 16 -25 -27 c-13 -15 -40 -37 -60 -49 -19 -12 -68 -48 -109 -80 -41 -32 -124 -83 -185 -114 -268 -135 -363 -235 -386 -410 -24 -178 -31 -215 -70 -336 -37 -114 -42 -126 -56 -112 -9 8 -32 15 -52 15 -54 0 -131 40 -185 96 -54 56 -273 356 -313 427 -16 30 -24 57 -20 70 9 39 72 102 133 134 98 52 170 66 310 59 66 -3 143 -10 169 -16 26 -6 82 -12 123 -12 87 -2 131 17 131 57 0 39 -60 58 -329 105 -72 13 -203 13 -277 -1 -81 -15 -193 -70 -245 -122 -24 -23 -62 -69 -84 -102 -86 -127 -51 -216 236 -596 114 -150 223 -224 324 -217 30 1 55 1 55 -2 0 -12 -138 -179 -195 -235 -49 -49 -79 -68 -165 -106 -108 -48 -135 -55 -420 -111 -200 -39 -304 -41 -615 -9 -231 24 -338 48 -528 118 -67 24 -170 61 -228 82 -150 55 -193 75 -265 126 -96 69 -159 135 -194 206 -61 120 -142 350 -174 494 -9 39 -33 104 -53 145 -48 95 -120 155 -294 245 -147 76 -257 163 -287 227 -31 65 -46 168 -38 273 12 178 53 272 163 375 91 86 197 130 312 130 36 0 37 -1 79 -92 23 -51 42 -103 42 -114 0 -12 10 -34 22 -50 21 -26 21 -27 3 -20 -67 27 -153 13 -206 -31 -64 -55 -98 -180 -67 -248 13 -30 116 -110 168 -132 47 -21 100 -11 161 28 109 69 140 186 76 281 l-23 33 70 -23 c57 -19 86 -23 156 -20 76 3 95 8 162 41 145 71 237 181 286 340 l27 88 55 -7 c30 -4 66 -8 80 -11z m2497 -324 c51 -25 83 -66 83 -107 0 -41 -46 -62 -133 -62 l-65 0 -31 60 c-35 67 -39 104 -13 119 30 18 113 13 159 -10z m-3442 -163 c33 -22 57 -60 49 -79 -9 -23 -65 -56 -100 -59 -19 -1 -49 9 -78 26 -44 26 -48 30 -42 59 11 56 46 79 109 73 21 -2 49 -11 62 -20z m3735 -82 c0 -29 -16 -64 -30 -64 -13 0 -13 56 1 81 13 25 29 15 29 -17z m51 -161 c-5 -10 -16 -27 -24 -37 -13 -18 -14 -18 -13 5 1 13 10 29 21 36 26 16 27 16 16 -4z"/>
    <path d="M1842 2487 c-34 -8 -49 -19 -77 -58 -28 -39 -41 -49 -72 -54 -115 -18 -185 -54 -80 -41 104 13 202 62 271 135 32 33 28 35 -42 18z"/>
    <path d="M2029 2367 c-85 -57 -114 -159 -131 -461 -12 -219 -6 -258 38 -264 42 -6 55 37 74 248 17 195 29 268 61 371 16 53 29 104 29 113 0 23 -31 20 -71 -7z"/>
    <path d="M3338 2314 c-4 -4 -15 -7 -25 -8 -24 -3 -93 -38 -93 -48 0 -11 43 -10 75 2 32 12 58 37 53 51 -2 6 -7 7 -10 3z"/>
    <path d="M2218 1959 c-27 -15 -23 -65 7 -93 28 -26 166 -70 278 -88 72 -11 79 -11 105 9 19 14 28 31 30 56 3 31 -1 38 -25 50 -15 8 -50 18 -78 21 -27 4 -105 18 -173 32 -68 13 -124 24 -125 24 -1 0 -10 -5 -19 -11z"/>
    <path d="M1470 1947 c-56 -15 -62 -37 -18 -70 46 -34 98 -49 179 -51 62 -1 71 2 96 26 23 24 26 31 17 55 -9 26 -14 28 -79 34 -39 4 -88 9 -110 12 -22 4 -60 1 -85 -6z"/>
    <path d="M2281 1689 c-160 -22 -301 -94 -311 -160 -3 -19 -13 -48 -22 -66 -47 -85 -62 -247 -33 -357 35 -133 131 -265 246 -338 74 -48 120 -61 202 -59 162 4 304 132 352 318 16 59 19 242 6 358 -4 41 -2 69 7 87 32 66 -34 171 -126 203 -59 20 -224 27 -321 14z m282 -148 c10 -10 33 -168 42 -288 13 -177 -28 -297 -128 -368 -34 -24 -54 -30 -109 -33 -59 -4 -76 0 -126 24 -158 77 -258 271 -232 453 23 164 67 200 270 221 84 9 271 3 283 -9z"/>
    <path d="M1313 1621 c-99 -34 -154 -94 -192 -210 -41 -124 -36 -302 10 -427 43 -115 177 -219 276 -215 25 0 64 12 91 26 26 14 55 25 65 25 63 0 161 94 214 205 80 170 44 352 -100 502 -82 86 -139 113 -236 113 -46 -1 -96 -8 -128 -19z m217 -132 c49 -24 116 -99 142 -157 11 -26 23 -77 25 -113 5 -57 2 -75 -19 -121 -47 -103 -109 -148 -202 -148 -42 0 -77 -22 -83 -52 -5 -27 -6 -27 -35 -12 -57 30 -117 94 -136 147 -29 77 -36 198 -18 286 26 123 63 165 163 187 66 14 112 9 163 -17z"/>
  </g>
</svg>
