<!DOCTYPE svg PUBLIC "-//W3C//DTD SVG 20010904//EN" "http://www.w3.org/TR/2001/REC-SVG-20010904/DTD/svg10.dtd">
<svg version="1.0" xmlns="http://www.w3.org/2000/svg" viewBox="0 0 10000 13450" preserveAspectRatio="none">
  <g id="layer1" fill="#595959" stroke="none">
      <path d="M0 13201 l0 -249 82 -32 c235 -93 644 -275 686 -304 26 -18 79 -51 117 -72 39 -21 94 -53 124 -71 30 -18 102 -51 160 -74 58 -23 113 -48 122 -56 9 -7 54 -29 100 -47 46 -19 114 -47 151 -64 78 -36 328 -122 354 -122 9 0 66 -16 125 -35 123 -40 136 -41 205 -20 70 21 127 73 166 153 29 59 33 76 33 152 0 108 -50 479 -115 860 -16 96 -30 187 -30 203 l0 27 -1140 0 -1140 0 0 -249z"/>
      <path d="M9272 12134 c-36 -36 -54 -85 -142 -377 -38 -128 -99 -324 -134 -437 -66 -209 -74 -248 -56 -295 29 -75 75 -86 693 -155 148 -16 288 -30 313 -30 l44 0 0 600 0 599 -42 12 c-145 39 -347 80 -433 89 -55 5 -126 13 -157 16 -53 6 -59 5 -86 -22z"/>
      <path d="M480 10850 c0 -5 -7 -10 -16 -10 -15 0 -16 -18 -11 -192 6 -180 16 -407 32 -708 8 -162 22 -326 36 -420 6 -41 10 -118 10 -170 0 -67 4 -101 15 -117 30 -47 55 -57 1424 -578 782 -299 753 -288 766 -271 6 9 17 16 24 16 20 0 2 209 -85 1005 -61 553 -78 668 -110 747 -16 39 -210 117 -645 257 -239 78 -466 152 -505 165 -140 49 -670 218 -788 251 -130 38 -147 40 -147 25z"/>
      <path d="M8523 9808 c-38 -18 -73 -121 -134 -396 -33 -147 -75 -334 -94 -417 -39 -171 -42 -206 -17 -227 20 -18 127 -53 897 -288 492 -150 663 -199 794 -225 l34 -7 -7 698 c-4 385 -10 701 -12 703 -2 2 -57 12 -121 22 -65 9 -179 26 -253 37 -156 24 -560 69 -735 83 -66 5 -145 13 -175 18 -73 13 -150 12 -177 -1z"/>
      <path d="M367 7820 c-15 -12 -27 -31 -27 -45 0 -59 58 -189 262 -594 268 -531 363 -705 391 -720 12 -6 33 -20 47 -30 19 -16 99 -33 345 -75 176 -30 464 -80 640 -111 613 -107 902 -155 939 -155 70 0 71 64 4 245 -16 44 -38 116 -48 160 -11 44 -53 186 -95 315 -42 129 -87 274 -100 323 -14 48 -34 106 -46 130 -41 80 -56 94 -111 107 -29 7 -87 23 -128 36 -179 56 -296 86 -455 119 -93 19 -228 47 -300 64 -71 16 -233 50 -360 76 -126 25 -315 64 -420 87 -335 71 -359 76 -435 83 -68 6 -78 4 -103 -15z"/>
      <path d="M8119 6685 c-58 -31 -108 -169 -279 -765 -66 -228 -142 -493 -170 -589 -28 -96 -55 -197 -61 -225 -17 -84 -50 -180 -70 -202 -11 -11 -19 -25 -19 -30 0 -17 52 -50 105 -67 43 -14 2013 -529 2245 -587 47 -11 93 -23 103 -26 16 -5 17 51 17 1074 l0 1079 -62 17 c-35 9 -88 23 -118 31 -53 14 -1225 243 -1459 285 -133 23 -196 25 -232 5z"/>
      <path d="M7128 4618 c-8 -7 -46 -51 -85 -98 -218 -266 -275 -343 -267 -363 9 -25 187 -105 774 -348 239 -99 516 -215 615 -258 326 -142 410 -173 451 -165 39 7 176 119 387 316 110 103 135 139 105 151 -7 3 -328 132 -713 287 -796 321 -1222 490 -1239 490 -7 0 -19 -6 -28 -12z"/>
      <path d="M1313 4554 c-3 -8 -13 -14 -23 -14 -23 0 -20 14 -74 -360 -58 -403 -62 -443 -42 -459 9 -8 16 -19 16 -26 0 -22 304 -128 1250 -433 547 -177 607 -193 642 -170 33 22 55 127 123 593 36 247 42 343 25 375 -5 10 -38 28 -72 39 -89 29 -753 198 -873 222 -187 37 -641 146 -660 159 -19 13 -171 60 -238 74 -58 12 -69 12 -74 0z"/>

      <path d="M7888 2508 c-17 -15 -30 -126 -47 -428 -7 -120 -6 -148 6 -167 16 -25 28 -28 308 -79 105 -19 271 -50 370 -69 99 -19 254 -48 345 -64 91 -16 226 -41 300 -55 256 -47 269 -46 299 13 45 87 281 699 281 728 0 1 -10 9 -22 17 -25 16 -109 24 -638 57 -947 59 -1176 68 -1202 47z"/>

      <path d="M1203 1424 c-17 -15 -38 -85 -102 -339 -124 -492 -125 -495 -110 -522 7 -12 19 -25 28 -27 25 -7 322 -68 686 -140 182 -35 591 -116 910 -180 610 -120 627 -123 662 -111 28 9 34 28 133 450 95 405 96 407 71 429 -14 12 -160 46 -488 111 -257 52 -522 105 -588 119 -66 14 -232 46 -370 71 -137 25 -351 68 -475 95 -288 63 -328 68 -357 44z"/>
  </g>
</svg>
