
<!DOCTYPE svg PUBLIC "-//W3C//DTD SVG 20010904//EN" "http://www.w3.org/TR/2001/REC-SVG-20010904/DTD/svg10.dtd">
<svg version="1.0" xmlns="http://www.w3.org/2000/svg" viewBox="0 0 7120 11380" preserveAspectRatio="none">
<g id="layer1" fill="#808080" stroke="none">
 <path d="M0 11377 c0 -1 4 -18 10 -37 11 -39 34 -211 50 -375 6 -60 23 -168 37 -240 35 -175 37 -362 5 -445 -27 -68 -27 -75 -2 -102 l20 -22 0 28 c0 17 14 45 39 74 41 49 137 223 266 482 42 85 92 182 110 215 19 33 74 142 124 243 l91 182 -375 0 c-206 0 -375 -1 -375 -3z"/>
 <path d="M6289 11163 c-194 -335 -236 -413 -263 -485 l-26 -68 229 -527 c322 -742 428 -981 462 -1038 l18 -29 21 46 c11 25 22 68 24 95 7 73 136 507 183 613 13 30 35 67 49 81 37 39 74 148 74 219 0 45 -8 77 -36 142 -31 72 -157 466 -319 999 l-48 156 -60 7 c-33 3 -87 6 -121 6 l-61 0 -126 -217z"/>
 <path d="M786 10784 c-7 -28 -56 -264 -56 -270 0 -2 -6 -1 -14 2 -17 7 -6 63 -145 -681 -149 -798 -137 -730 -221 -1225 -79 -463 -93 -591 -67 -643 25 -49 54 -177 71 -322 22 -175 126 -1201 126 -1240 0 -16 4 -37 10 -45 7 -12 12 -11 30 5 12 11 28 32 35 46 15 27 114 424 247 986 45 193 87 349 92 346 5 -4 7 3 4 14 -8 29 24 158 44 180 11 12 20 50 27 113 5 52 57 297 116 545 59 248 115 499 126 558 l19 108 -24 82 c-14 45 -48 170 -76 277 -27 107 -72 276 -100 375 -27 99 -61 225 -75 280 -56 210 -146 520 -154 528 -5 5 -12 -4 -15 -19z"/>
 <path d="M5784 10404 c-3 -10 -17 -44 -31 -74 -76 -160 -100 -217 -148 -345 -29 -77 -75 -192 -102 -255 -53 -123 -78 -195 -143 -410 l-40 -134 51 -186 c76 -277 595 -2094 621 -2175 44 -133 73 -84 88 145 7 111 15 150 74 353 36 125 73 241 80 256 39 75 126 113 208 91 22 -6 58 -8 79 -5 44 8 44 -9 3 155 -13 52 -30 113 -39 135 l-15 40 5 -65 4 -65 -18 65 c-10 36 -57 211 -105 390 -48 179 -130 483 -182 675 -52 193 -110 417 -129 499 -19 82 -43 177 -54 210 -26 78 -109 379 -157 566 -20 80 -38 147 -40 149 -2 2 -6 -5 -10 -15z"/>
 <path d="M5387 8345 c-9 -8 -33 -90 -56 -182 -82 -342 -346 -1551 -367 -1682 -7 -41 -8 -43 -22 -25 -9 13 -16 15 -19 7 -2 -7 -10 -10 -17 -7 -13 5 -12 0 54 -551 31 -253 50 -415 55 -460 2 -22 16 -134 30 -249 14 -115 24 -210 23 -211 -2 -1 -77 -19 -167 -40 -204 -47 -315 -80 -331 -100 -7 -8 -20 -15 -30 -15 -44 0 -44 -1 -43 -609 2 -730 21 -1923 33 -2020 4 -40 12 -77 17 -82 4 -4 27 -11 51 -15 l43 -7 -21 35 -20 35 44 59 c109 145 270 329 285 326 8 -2 48 -17 88 -33 82 -32 103 -35 103 -15 0 63 157 486 180 486 4 0 13 -13 20 -30 26 -64 57 -23 85 113 9 39 45 169 80 287 35 118 78 271 95 340 56 224 110 402 176 573 35 92 64 171 64 175 0 4 11 24 25 43 13 20 22 39 20 43 -3 3 -2 4 2 1 4 -3 23 10 43 30 l36 35 84 -15 c46 -8 86 -13 88 -10 2 2 -13 6 -34 10 -58 9 -67 17 -86 71 -18 51 -25 33 -9 -24 8 -25 7 -32 -4 -32 -8 0 -18 8 -24 18 -12 22 -48 205 -61 303 -5 42 -20 109 -34 150 -24 71 -129 667 -180 1024 -36 246 -253 2052 -261 2168 -4 53 -11 97 -15 97 -5 0 -15 -7 -23 -15z"/>
 <path d="M900 7670 c-26 -99 -77 -310 -155 -635 -142 -596 -231 -962 -322 -1325 -73 -289 -87 -358 -87 -428 l-1 -83 47 -42 c47 -42 48 -42 112 -252 166 -543 237 -788 234 -808 -2 -16 -11 -23 -30 -25 -24 -3 -28 -8 -28 -36 0 -17 5 -37 12 -44 17 -17 53 -15 70 6 39 43 123 354 428 1580 184 738 250 1018 250 1061 0 61 0 62 -135 346 -26 55 -94 201 -152 325 -167 358 -188 396 -212 396 -16 0 -24 -9 -31 -36z"/>
 <path d="M1588 5667 c-16 -89 -37 -214 -48 -277 -12 -63 -52 -299 -90 -524 -39 -225 -88 -478 -110 -564 -26 -101 -40 -177 -40 -218 0 -126 -66 -497 -111 -628 -26 -76 -32 -111 -39 -240 -11 -192 -93 -691 -156 -951 -39 -161 -50 -194 -73 -213 -39 -35 -101 -62 -146 -62 l-40 0 40 -19 c61 -28 121 -99 141 -168 19 -65 19 -64 -35 -403 -41 -251 -39 -245 -76 -283 -25 -26 -31 -37 -22 -46 42 -42 66 8 147 312 123 454 262 987 366 1388 58 228 218 849 355 1381 137 532 249 986 249 1008 0 30 -25 101 -86 249 -96 230 -184 421 -193 421 -3 0 -18 -73 -33 -163z"/>
 <path d="M5547 1453 c-2 -120 -2 -459 -1 -753 2 -485 10 -679 28 -697 3 -4 20 6 36 22 21 20 27 32 20 40 -7 8 -7 57 0 141 12 161 15 172 48 208 15 16 21 26 15 22 -16 -9 -17 -36 2 584 9 284 20 523 26 533 5 10 7 22 4 27 -4 6 0 10 7 10 10 1 -166 80 -178 80 -1 0 -5 -98 -7 -217z"/>
 </g>

</svg>
