
<!DOCTYPE svg PUBLIC "-//W3C//DTD SVG 20010904//EN" "http://www.w3.org/TR/2001/REC-SVG-20010904/DTD/svg10.dtd">
<svg version="1.0" xmlns="http://www.w3.org/2000/svg" viewBox="0 0 9600 12710" preserveAspectRatio="none">
<g id="layer1" fill="#3d3d3d" stroke="none">
 <path d="M8486 12702 c-7 -6 49 -204 113 -402 32 -102 92 -295 132 -430 40 -135 87 -279 104 -320 17 -41 37 -97 44 -125 27 -109 32 -123 52 -149 11 -14 24 -26 29 -26 5 0 31 14 57 30 26 17 76 39 110 49 l62 19 202 -32 202 -32 -7 705 c-3 388 -8 706 -9 707 -4 4 -1088 10 -1091 6z"/>
 <path d="M2347 12243 c-2 -5 -66 -129 -141 -277 -141 -279 -204 -383 -227 -378 -17 4 -39 -26 -39 -54 0 -35 -38 -73 -109 -107 -64 -31 -69 -32 -201 -31 -134 0 -136 1 -265 46 -71 25 -175 66 -230 90 -55 25 -111 49 -125 53 -14 4 -54 24 -90 46 -36 21 -98 52 -139 69 -41 17 -120 55 -177 85 -99 53 -128 63 -137 48 -7 -11 -214 -980 -271 -1263 -61 -308 -102 -600 -83 -600 5 0 27 16 50 35 22 19 51 35 63 35 23 0 631 -195 1399 -448 l390 -128 27 -50 c33 -59 76 -100 91 -85 7 7 6 16 -5 28 -8 10 -17 30 -20 44 -4 22 -2 25 19 21 13 -2 25 1 28 9 2 8 115 604 250 1324 135 721 248 1317 251 1325 5 12 8 10 15 -8 10 -26 29 -21 29 8 0 47 -33 78 -115 110 -44 16 -113 37 -153 45 -86 18 -80 17 -85 8z"/>
 <path d="M7657 11701 c-15 -30 -13 -39 43 -254 32 -122 82 -298 110 -392 28 -93 57 -207 65 -252 8 -46 21 -113 30 -150 19 -83 150 -560 163 -594 6 -13 17 -63 27 -109 18 -90 185 -705 230 -850 15 -47 32 -91 38 -99 9 -10 30 -12 92 -7 111 9 1070 -106 1098 -132 15 -14 20 -14 27 -2 6 10 10 2 13 -26 3 -21 3 101 1 271 -2 171 -4 480 -4 688 l0 377 -51 0 c-86 0 -832 90 -847 102 -23 20 -41 63 -48 119 -4 30 -10 64 -15 76 -4 12 -4 36 1 55 5 18 12 49 14 68 3 19 5 35 6 35 1 0 3 10 6 23 2 12 -1 22 -6 22 -6 0 -9 -3 -9 -7 1 -5 0 -11 -1 -15 -1 -5 -3 -11 -4 -15 -1 -5 -9 -24 -18 -43 -8 -19 -25 -65 -37 -103 -13 -37 -26 -65 -30 -62 -9 5 -182 393 -404 905 l-162 374 -35 8 c-19 4 -89 11 -156 14 l-121 7 -16 -32z"/>
 <path d="M7257 9673 c-4 -3 -7 -17 -7 -30 0 -12 -4 -23 -10 -23 -5 0 -10 -7 -10 -15 0 -8 5 -14 11 -12 8 1 12 -37 14 -118 3 -129 108 -1008 176 -1469 22 -149 69 -473 105 -720 89 -623 122 -807 168 -926 8 -19 17 -60 20 -90 4 -30 19 -117 33 -193 29 -156 32 -160 118 -171 28 -4 61 -11 75 -16 29 -11 1631 -322 1636 -318 1 2 6 468 10 1035 l7 1032 -69 31 c-43 20 -76 29 -89 25 -92 -29 -125 -33 -192 -20 -37 7 -81 18 -97 24 -15 6 -58 16 -94 21 -36 5 -263 69 -505 142 l-439 132 -55 66 c-69 82 -95 131 -108 198 -5 30 -14 54 -20 55 -5 1 -19 -35 -30 -80 -20 -84 -28 -98 -38 -65 -81 275 -277 967 -277 980 0 19 -135 496 -145 512 -5 8 -11 8 -20 0 -10 -8 -29 -7 -73 5 -66 17 -85 18 -95 8z"/>
 <path d="M2713 9038 c-6 -7 -38 -132 -72 -278 -127 -537 -242 -996 -257 -1018 -12 -18 -18 -21 -29 -12 -10 8 -16 7 -23 -6 -8 -14 -91 15 -698 246 -379 145 -702 266 -719 270 -37 9 -269 96 -310 117 -16 9 -86 37 -155 64 -97 38 -127 46 -136 36 -17 -19 -269 -1086 -293 -1245 -22 -145 -22 -145 76 -157 29 -4 57 -13 64 -21 7 -8 20 -12 30 -9 31 10 142 -17 172 -41 29 -25 55 -30 217 -43 112 -10 857 -164 874 -181 5 -5 27 -10 48 -10 92 0 419 -83 459 -117 8 -7 26 -13 40 -13 50 0 102 -22 134 -57 33 -36 55 -37 55 -3 0 11 9 28 21 38 22 21 10 -28 379 1502 110 454 207 839 215 855 19 38 12 61 -26 80 -34 18 -54 19 -66 3z"/>
 <path d="M3232 7598 c-26 -5 -48 -18 -56 -31 -7 -12 -43 -143 -80 -292 -37 -148 -73 -283 -80 -300 -7 -16 -94 -354 -192 -749 -170 -683 -181 -721 -210 -750 -17 -17 -34 -39 -37 -50 -5 -12 -13 -16 -24 -12 -10 4 -309 57 -666 118 -470 80 -654 108 -666 101 -9 -5 -17 -23 -19 -39 -2 -16 -14 -74 -27 -129 -18 -77 -248 -1506 -268 -1663 -3 -31 14 -45 27 -23 3 5 34 1 68 -9 35 -10 119 -34 188 -54 69 -20 133 -36 142 -36 41 0 375 -92 412 -114 29 -17 69 -27 141 -35 111 -13 215 -36 257 -57 15 -8 39 -34 53 -59 15 -24 35 -47 47 -51 11 -3 59 -7 108 -9 48 -2 96 -7 106 -13 11 -5 64 -13 120 -17 81 -6 108 -4 138 9 63 26 115 73 125 114 6 20 44 237 86 482 57 336 78 484 85 602 8 134 13 169 39 245 17 48 35 113 41 143 40 209 63 361 70 465 6 84 19 161 44 255 20 74 67 320 105 545 39 226 79 462 91 525 11 63 25 147 31 185 7 39 20 79 29 90 20 22 44 171 56 337 5 80 4 106 -10 142 -24 64 -90 121 -155 135 -59 12 -60 12 -119 -1z"/>
 <path d="M3421 5247 c-5 -12 -54 -200 -110 -417 -56 -217 -192 -735 -303 -1150 -110 -415 -218 -822 -239 -903 -21 -81 -45 -158 -53 -170 -8 -12 -17 -43 -20 -68 -5 -35 -16 -56 -42 -83 -19 -20 -41 -36 -48 -36 -7 0 -312 97 -677 215 -365 118 -672 215 -681 215 -23 0 -25 -5 -58 -132 -15 -62 -35 -132 -44 -154 -19 -51 -124 -621 -216 -1169 -38 -225 -80 -468 -94 -540 -36 -190 -38 -204 -30 -217 4 -7 13 -3 24 12 l18 24 203 -42 c112 -22 463 -93 779 -157 316 -63 611 -122 655 -130 421 -75 453 -83 502 -127 12 -11 28 -18 36 -15 18 7 104 431 242 1192 20 110 51 279 70 375 19 96 66 344 105 550 39 206 98 510 130 675 57 289 200 1040 275 1445 20 107 39 241 42 297 l6 103 -34 27 c-19 16 -118 112 -220 216 -102 103 -191 187 -198 187 -6 0 -15 -10 -20 -23z"/>
 <path d="M7190 4432 c-19 -6 -39 -34 -87 -127 -34 -66 -71 -149 -81 -185 -46 -152 -74 -267 -70 -295 3 -26 10 -32 68 -53 63 -23 433 -166 725 -280 77 -30 147 -60 155 -66 8 -7 65 -32 125 -55 61 -24 133 -54 160 -66 28 -13 64 -27 80 -30 17 -4 39 -13 51 -20 11 -7 83 -39 160 -70 165 -68 196 -83 192 -95 -2 -5 -86 -84 -188 -176 -121 -109 -203 -175 -237 -191 l-53 -24 -287 120 c-299 124 -346 140 -358 121 -9 -15 -22 -277 -35 -766 -13 -455 -12 -468 38 -438 26 15 65 13 542 -15 283 -17 576 -33 650 -36 74 -2 214 -9 310 -16 184 -11 205 -17 247 -66 12 -16 27 -24 36 -20 20 8 31 112 23 220 -3 45 -24 341 -46 657 -71 1016 -79 1097 -109 1124 -16 14 -621 179 -696 190 -22 3 -69 14 -105 25 -36 11 -90 26 -120 35 -30 8 -109 31 -175 51 -66 19 -148 40 -181 45 -34 6 -92 21 -128 35 -37 14 -77 25 -90 25 -13 0 -61 12 -107 26 -46 14 -144 42 -217 63 -73 21 -135 41 -138 44 -3 3 -9 21 -13 40 -6 25 -2 57 16 118 13 46 25 99 26 119 2 32 0 35 -28 37 -16 1 -41 -2 -55 -5z"/>

 <path d="M6855 2893 c-358 -26 -923 -75 -967 -84 -32 -6 -63 -18 -70 -26 -16 -19 -13 -255 6 -608 9 -154 25 -449 36 -655 11 -206 27 -483 35 -615 8 -132 19 -341 25 -465 13 -265 25 -377 42 -398 11 -13 81 -14 563 -9 503 5 723 15 801 36 28 7 29 10 33 77 1 38 -2 193 -8 344 -7 151 -18 442 -26 645 -8 204 -22 444 -30 535 -8 91 -15 222 -15 293 0 291 -47 779 -83 872 l-23 60 -135 1 c-74 0 -156 -1 -184 -3z"/>

 </g>

</svg>
